<svg xmlns='http://www.w3.org/2000/svg' width='26' height='26' viewBox='0 0 26 26'>
            <defs>
        <rect id="path-1-1" x="0" y="0" width="13" height="20" rx="2"></rect>
        </defs>
       <g id="Page-1-1" stroke="none" stroke-width="1" fill="none" fill-rule="evenodd">
        <g id="Paytm-Payments-Navigation-new" transform="translate(-200.000000, -252.000000)">
            <g id="Dropdown-1" transform="translate(151.000000, 83.000000)">
                <g id="ic_mobilepayment-new" transform="translate(49.000000, 169.000000)">
                    <polygon id="Rectangle-4-1" fill="#00CEF7" points="2.5 2 17.5 2 19 4 1 4"></polygon>
                    <path d="M2.49441652,2 C1.99021881,2 1.53294032,2.29947066 1.3396271,2.75665839 L0.149030209,6.20356905 C-0.150437572,7.05999268 -0.00317192401,7.9677785 0.632430431,8.63574214 C0.910093547,8.92754423 1.26898151,9.14393409 1.66677673,9.26216259 L1.66677673,18.3636364 C1.66677673,19.2631045 2.41732119,20 3.3334496,20 L16.6725292,20 C17.5886576,20 18.3392021,19.2631045 18.3392021,18.3636364 C18.3391754,18.3306708 18.3392021,18.251236 18.3392021,18.1538696 C18.1448865,18.1538696 17.7708617,18.1538696 17.5058656,18.1538696 C17.5026102,18.2692871 17.505923,18.2925204 17.5058656,18.3636364 C17.5058656,18.8239864 17.1414059,19.1818182 16.6725292,19.1818182 L3.3334496,19.1818182 C2.86457286,19.1818182 2.50011317,18.8239864 2.50011317,18.3636364 L2.50011317,9.35644536 C2.61920882,9.34883627 2.73880835,9.33470627 2.85900121,9.30850482 C3.38600317,9.19362391 3.85406091,8.88711582 4.19608281,8.39763855 C4.28730814,8.514479 4.39098311,8.62254405 4.5028877,8.71963768 C4.94871019,9.10644541 5.54525116,9.36954773 6.17037431,9.36363636 C6.9545689,9.35623182 7.64278562,8.93574445 8.06735387,8.33371809 C8.48785543,8.94660173 9.19997558,9.36252364 10.0001411,9.36363636 C10.7839773,9.36486364 11.497572,8.96030586 11.9247903,8.36168314 C12.3684586,8.98647541 13.1103584,9.39719409 13.9308198,9.36363636 C14.5415513,9.33868182 15.1120155,9.06525118 15.5348295,8.68208436 C15.6251549,8.60023345 15.7059343,8.50837209 15.7822263,8.41361845 C16.1098775,8.86987345 16.5949706,9.21064005 17.1803436,9.31489686 C17.2887594,9.33420595 17.3975486,9.34639277 17.5058656,9.35164959 C17.5058656,15.2197963 17.5058656,18.1538696 17.5058656,18.1538696 C17.8626589,18.1538696 17.9430425,18.1538696 18.3392021,18.1538696 L18.3392021,9.24698 C18.7621757,9.11988077 19.1480738,8.88160986 19.4451633,8.53346777 C20.0015695,7.88144232 20.1604751,6.97434745 19.8260238,6.18039609 L18.6639103,2.76944248 C18.4707555,2.31232839 18.0068079,2 17.5026102,2 L2.49441652,2 Z M2.49441652,2.81818182 L17.5026102,2.81818182 C17.6717942,2.81818182 17.8204497,2.91666968 17.8859125,3.06827059 L19.0561643,6.492809 C19.2690276,6.99813036 19.1692443,7.58243286 18.8063263,8.00772377 C18.4429999,8.43348514 17.9061638,8.61224641 17.32927,8.50949914 C16.803068,8.4157805 16.2127292,7.77761545 16.2127292,7.31818182 C16.2126125,7.17214455 16.1332122,7.03724109 16.004395,6.96422245 C15.8754779,6.89114655 15.716644,6.89114655 15.5877268,6.96422245 C15.4589097,7.03724109 15.3795094,7.17214455 15.3793927,7.31818182 C15.3793927,7.54693318 15.2423276,7.83375664 14.9692349,8.08123209 C14.6888631,8.33531436 14.2778745,8.53067532 13.8966397,8.5462535 C13.1406119,8.57718077 12.3341339,7.91681682 12.3341339,7.31818182 C12.3340172,7.17214455 12.2546169,7.03724109 12.1257998,6.96422245 C11.9968826,6.89114655 11.8380491,6.89114655 11.7091316,6.96422245 C11.5803148,7.03724109 11.5009145,7.17214455 11.5007975,7.31818182 C11.5007975,7.90463409 10.7142837,8.54631364 10.0017686,8.54545455 C9.26462832,8.54422727 8.49622921,7.83660227 8.49622921,7.31818182 C8.49611254,7.17214455 8.41671225,7.03724109 8.2878951,6.96422245 C8.15897796,6.89114655 8.00015237,6.89114655 7.87122689,6.96422245 C7.74241807,7.03724109 7.66302195,7.17214455 7.66289278,7.31818182 C7.66289278,7.79915818 6.84561766,8.53900727 6.16223595,8.54545455 C5.78394329,8.54913636 5.35113585,8.36324177 5.05464725,8.10600132 C4.83375476,7.91434632 4.68287962,7.70791536 4.64855865,7.513139 C4.63701695,7.447574 4.6340336,7.40006627 4.6339086,7.32137764 C4.6326586,7.17648214 4.55338747,7.03986418 4.42557449,6.96741827 C4.29665735,6.89434236 4.13782334,6.89434236 4.00890619,6.96741827 C3.88008901,7.04043691 3.80068875,7.17534036 3.80057209,7.32137764 C3.80057209,7.81498264 3.19567138,8.39690095 2.67914862,8.50949914 C2.12994658,8.6292155 1.57981458,8.43314232 1.24115499,8.07723732 C0.802109187,7.61583186 0.715806533,7.10394132 0.937607357,6.46963768 L2.11030051,3.06906958 C2.17539242,2.91619231 2.32456172,2.81818182 2.49441652,2.81818182 Z" id="Shape" fill="#012B72"></path>
                    <g id="Group-12" transform="translate(18.500000, 10.000000) scale(-1, 1) translate(-18.500000, -10.000000) translate(12.000000, 0.000000)">
                        <g id="Rectangle-10">
                            <g fill="#FFFFFF" fill-rule="evenodd"><rect id="path-1-1" x="0" y="0" width="13" height="20" rx="2"></rect></g>
                            <rect stroke="#172A68" stroke-width="1" x="0.5" y="0.5" width="12" height="19" rx="2"></rect>
                        </g>
                        <path d="M6.5,15 C5.65625,15 5,15.65625 5,16.5 C5,17.34375 5.65625,18 6.5,18 L6.5,18 C7.34375,18 8,17.25 8,16.40625 C8,15.65625 7.34375,15 6.5,15 Z" id="Shape" fill="#00B9F5" fill-rule="nonzero"></path>
                        <path d="M7.86451613,2.31724138 L5.6016129,2.31724138 C5.34193548,2.31724138 5.08225806,2.53448276 5.08225806,2.82413793 C5.08225806,3.07758621 5.30483871,3.33103448 5.6016129,3.33103448 L7.86451613,3.33103448 C8.01290323,3.33103448 8.16129032,3.25862069 8.23548387,3.15 C8.30967742,3.07758621 8.34677419,2.96896552 8.34677419,2.86034483 C8.34677419,2.78793103 8.34677419,2.71551724 8.30967742,2.64310345 L8.30967742,2.60689655 C8.1983871,2.42586207 8.05,2.31724138 7.86451613,2.31724138 Z" id="Shape" fill="#012B72" fill-rule="nonzero"></path>
                    </g>
                </g>
            </g>
        </g>
    </g>
        </svg>
       