<svg xmlns='http://www.w3.org/2000/svg' width='24' height='24' viewBox='0 0 24 24'>
<g id="Page-1" stroke="none" stroke-width="1" fill="none" fill-rule="evenodd">
    <g id="Paytm-Payments-Navigation1" transform="translate(-202.000000, -191.000000)">
        <g id="Dropdown" transform="translate(151.000000, 83.000000)">
            <g id="ic-paymentgateway1" transform="translate(51.000000, 108.000000)">
                <path d="M0.5,3.5 L20.5249844,3.5" id="Line-4" stroke="#00B4F5" stroke-linecap="square"></path>
                <rect id="Rectangle-11" stroke="#172A68" x="0.5" y="0.5" width="20" height="13" rx="2"></rect>
                <path d="M12.6307864,13.5 L8.37512091,13.5 L8.37512091,14.4309684 C8.37512091,14.8329698 8.21375946,15.2181481 7.9272275,15.5001137 L6.62526281,16.7813293 C6.54511081,16.8602039 6.49997294,16.9679504 6.49997294,17.0804028 C6.49997294,17.3121399 6.68783299,17.5 6.91957011,17.5 L14.1887772,17.5 C14.2777682,17.5 14.3625067,17.4619238 14.421599,17.3953843 C14.5357917,17.2668004 14.5241253,17.0699911 14.3955414,16.9557984 L13.1347479,15.8361137 C12.8142097,15.5514504 12.6307864,15.1432423 12.6307864,14.714549 L12.6307864,13.5 Z" id="Rectangle-12" stroke="#172A68"></path>
            </g>
        </g>
    </g>
</g>
</svg>