<svg xmlns='http://www.w3.org/2000/svg' width='28' height='28' viewBox='0 0 28 28'>
    <g>
        <g id="text">
        <path fill="#00B9F5" class="cls-p" d="M18.47,3.41H13.71s-.17.23-.47.68v0H14.5a2.33,2.33,0,0,1,.71.13,1.32,1.32,0,0,1,.75.61H13.71l-.48.68a0,0,0,0,0,0,0h2.83a.82.82,0,0,1-.06.31q-.38,1-1.94,1a4.22,4.22,0,0,1-.58,0v.68l2.79,3.26h1s0,0,0,0v-.13L15,7.79a1.83,1.83,0,0,1-.31-.41h0A3.06,3.06,0,0,0,16,7a2.06,2.06,0,0,0,.78-.65,2,2,0,0,0,.34-.85H18l.46-.68,0,0H17.08a1.66,1.66,0,0,0-.36-.75H18A7.37,7.37,0,0,0,18.47,3.41Z"/>
        <path class="cls-p1" d="M23.79,14.18H3.41a.75.75,0,0,1-.73-.92L5.68.58A.75.75,0,0,1,6.41,0H26.79a.75.75,0,0,1,.73.92l-3,12.68A.75.75,0,0,1,23.79,14.18ZM4.36,12.68H23.19L25.84,1.5H7Z"/>
        <path class="cls-p1" d="M4.17,1.51H.75A.75.75,0,0,1,.75,0H4.17a.75.75,0,0,1,0,1.5Z"/>
        <path class="cls-p1" d="M3,5.18H1.19a.75.75,0,0,1,0-1.5H3a.75.75,0,0,1,0,1.5Z"/>
        </g>
    </g>
</svg>