<svg xmlns="http://www.w3.org/2000/svg" xmlns:xlink="http://www.w3.org/1999/xlink" width="24" height="24" viewBox="0 0 24 24">
    <defs>
        <path id="a" d="M0 0h24v24H0V0z"/>
        <mask id="b" width="24" height="24" x="0" y="0" fill="#fff">
            <use xlink:href="#a"/>
        </mask>
        <path id="c" d="M4 6.527c1.253-.358 4.156-.98 6.956-.037l-.002 11.152c-1.359-.297-3.674-.52-6.954.112V6.527zm15.911 11.227c-1.544-.297-2.873-.406-3.99-.406-1.257 0-2.244.137-2.963.294L12.956 6.49c2.787-.934 5.698-.317 6.955.039v11.225zm1.362-12.886c-.201-.077-4.838-1.823-9.317-.134-4.479-1.69-9.117.056-9.318.134A.998.998 0 0 0 2 5.8v13.194c0 .306.141.596.381.786a1.004 1.004 0 0 0 .854.185c5.524-1.334 8.253-.086 8.271-.077.043.022.089.033.134.047a1.118 1.118 0 0 0 .235.048c.017 0 .033.003.049.004a1.214 1.214 0 0 0 .266-.027 1.08 1.08 0 0 0 .122-.04c.027-.01.057-.014.084-.027.027-.013 2.757-1.261 8.28.072a1.002 1.002 0 0 0 1.235-.971V5.8a.998.998 0 0 0-.638-.932z"/>
    </defs>
    <g fill="none" fill-rule="evenodd">
        <mask id="d" fill="#fff">
            <use xlink:href="#c"/>
        </mask>
        <use fill="#060607" xlink:href="#c"/>
        <g fill="#536e92" mask="url(#d)">
            <path d="M0 0h24v24H0z"/>
        </g>
    </g>
</svg>
