<svg xmlns="http://www.w3.org/2000/svg" xmlns:xlink="http://www.w3.org/1999/xlink" width="24" height="24" viewBox="0 0 24 24">
    <defs>
        <path id="a" d="M0 0h24v24H0V0z"/>
        <mask id="b" width="24" height="24" x="0" y="0" fill="#fff">
            <use xlink:href="#a"/>
        </mask>
        <path id="c" d="M22.409 17.988a1.001 1.001 0 0 1-.738 1.207l-3.227.776a1 1 0 0 1-1.204-.73l-.901-3.611a1 1 0 0 1 .728-1.213 1.008 1.008 0 0 1 1.212.728l.337 1.35A7.941 7.941 0 0 0 20 12c0-4.411-3.589-8-8-8s-8 3.589-8 8 3.589 8 8 8a1 1 0 1 1 0 2C6.486 22 2 17.513 2 12 2 6.486 6.486 2 12 2s10 4.486 10 10c0 1.964-.567 3.84-1.616 5.447l.819-.197a1.003 1.003 0 0 1 1.206.738zM9.184 7.826h5.558v.013c-.328.53-.513.814-.555.85h-1.485c.204.25.343.557.416.917h1.583c.02.005.03.013.03.025-.356.559-.536.839-.544.839H13.16c-.023.287-.155.633-.393 1.039-.316.409-.619.673-.907.796-.539.27-1.055.407-1.549.407v.01c0 .042.122.21.364.505l2.744 3.482v.164c0 .016-.009.024-.028.024h-1.207c-2.173-2.661-3.259-3.997-3.259-4.01v-.807l.011-.031c.193.029.418.043.676.043 1.218 0 1.974-.415 2.271-1.245.046-.123.07-.248.07-.377H8.646c-.016 0-.024-.008-.024-.025.367-.558.553-.84.561-.84h2.623v-.01c-.15-.321-.44-.57-.873-.748a2.61 2.61 0 0 0-.832-.158H8.635v-.03c.355-.555.537-.833.55-.833z"/>
    </defs>
    <g fill="none" fill-rule="evenodd">
        <mask id="d" fill="#fff">
            <use xlink:href="#c"/>
        </mask>
        <use fill="#060607" xlink:href="#c"/>
        <g fill="#536e92" mask="url(#d)">
            <path d="M0 0h24v24H0z"/>
        </g>
    </g>
</svg>
