<svg xmlns="http://www.w3.org/2000/svg" xmlns:xlink="http://www.w3.org/1999/xlink" width="24" height="24" viewBox="0 0 24 24">
    <defs>
        <path id="a" d="M0 0h24v24H0V0z"/>
        <mask id="b" width="24" height="24" x="0" y="0" fill="#fff">
            <use xlink:href="#a"/>
        </mask>
        <path id="c" d="M8 3a2 2 0 0 0-2 2v4a2 2 0 0 1-2 2H3v2h1a2 2 0 0 1 2 2v4a2 2 0 0 0 2 2h2v-2H8v-5a2 2 0 0 0-2-2 2 2 0 0 0 2-2V5h2V3H8zm8 0a2 2 0 0 1 2 2v4a2 2 0 0 0 2 2h1v2h-1a2 2 0 0 0-2 2v4a2 2 0 0 1-2 2h-2v-2h2v-5a2 2 0 0 1 2-2 2 2 0 0 1-2-2V5h-2V3h2z"/>
    </defs>
    <g fill="none" fill-rule="evenodd">
        <mask id="d" fill="#fff">
            <use xlink:href="#c"/>
        </mask>
        <use fill="#00b9f5" fill-rule="nonzero" xlink:href="#c"/>
        <g fill="#00b9f5" mask="url(#d)">
            <path d="M0 0h24v24H0z"/>
        </g>
    </g>
</svg>
