<svg xmlns="http://www.w3.org/2000/svg" xmlns:xlink="http://www.w3.org/1999/xlink" width="24" height="24" viewBox="0 0 24 24">
    <defs>
        <path id="a" d="M0 0h24v24H0V0z"/>
        <mask id="b" width="24" height="24" x="0" y="0" fill="#fff">
            <use xlink:href="#a"/>
        </mask>
        <path id="c" d="M13 5.003h-1v-1h1v1zm-5 0H7v-1h1v1zm5.53-2.84l1.31-1.31c.19-.19.19-.51 0-.71a.513.513 0 0 0-.71 0l-1.48 1.48c-.8-.39-1.7-.62-2.65-.62-.96 0-1.86.23-2.66.63L5.85.143a.501.501 0 0 0-.7 0c-.2.2-.2.52 0 .71l1.31 1.31C4.97 3.263 4 5.002 4 7.002h12c0-2-1-3.75-2.47-4.84zm4.97 5.84a1.5 1.5 0 0 0-1.5 1.5v7a1.5 1.5 0 0 0 3 0v-7a1.5 1.5 0 0 0-1.5-1.5zm-17 0a1.5 1.5 0 0 0-1.5 1.5v7a1.5 1.5 0 0 0 3 0v-7a1.5 1.5 0 0 0-1.5-1.5zm2.5 10a1 1 0 0 0 1 1h1v3.5a1.5 1.5 0 0 0 3 0v-3.5h2v3.5a1.5 1.5 0 0 0 3 0v-3.5h1a1 1 0 0 0 1-1v-10H4v10z"/>
    </defs>
    <g fill="none" fill-rule="evenodd" transform="translate(2)">
        <mask id="d" fill="#fff">
            <use xlink:href="#c"/>
        </mask>
        <use fill="#000" fill-rule="nonzero" xlink:href="#c"/>
        <g fill="#536e92" mask="url(#d)">
            <path d="M-2 0h24v24H-2z"/>
        </g>
    </g>
</svg>
