<svg xmlns="http://www.w3.org/2000/svg" xmlns:xlink="http://www.w3.org/1999/xlink" width="24" height="24" viewBox="0 0 24 24">
    <defs>
        <path id="a" d="M0 0h24v24H0V0z"/>
        <mask id="b" width="24" height="24" x="0" y="0" fill="#fff">
            <use xlink:href="#a"/>
        </mask>
        <path id="c" d="M10 2c-4.411 0-8 3.589-8 8s3.589 8 8 8 8-3.589 8-8-3.589-8-8-8m0 18C4.486 20 0 15.514 0 10S4.486 0 10 0s10 4.486 10 10-4.486 10-10 10zm-1.07-5.08h1.881v-1.799h-1.88v1.799zM7.213 7.887v.314h1.8V7.86c0-.444.074-.806.223-1.084.151-.277.398-.416.743-.416.31 0 .54.109.695.322.155.213.232.492.232.838 0 .272-.038.529-.116.77-.077.24-.21.466-.402.674l-.517.587c-.31.345-.527.674-.655.987-.127.314-.19.697-.19 1.152v.532h1.69v-.204c0-.347.052-.628.156-.846.105-.218.275-.459.511-.722l.545-.613c.327-.382.552-.736.675-1.064.123-.327.184-.681.184-1.062 0-.8-.239-1.439-.716-1.916-.476-.477-1.197-.715-2.159-.715-.446 0-.839.07-1.18.212-.34.141-.622.334-.845.579-.222.245-.39.54-.504.885-.114.346-.17.723-.17 1.131z"/>
    </defs>
    <g fill="none" fill-rule="evenodd" transform="translate(2 2)">
        <mask id="d" fill="#fff">
            <use xlink:href="#c"/>
        </mask>
        <use fill="#060607" xlink:href="#c"/>
        <g fill="#536e92" mask="url(#d)">
            <path d="M-2-2h24v24H-2z"/>
        </g>
    </g>
</svg>
