<svg xmlns="http://www.w3.org/2000/svg" xmlns:xlink="http://www.w3.org/1999/xlink" width="24" height="24" viewBox="0 0 24 24">
    <defs>
        <path id="a" d="M0 0h24v24H0V0z"/>
        <mask id="b" width="24" height="24" x="0" y="0" fill="#fff">
            <use xlink:href="#a"/>
        </mask>
        <path id="c" d="M13.086 11.288c.467.88 1.169 1.508 2.08 1.904v.01c-.006.014-.014.027-.019.041-.104.268-.2.54-.312.804-.443 1.044-1.076 1.968-1.81 2.825a3.628 3.628 0 0 1-.913.79 2.13 2.13 0 0 1-1.389.298 4.45 4.45 0 0 1-1.092-.302 5.119 5.119 0 0 0-1.224-.352 3.462 3.462 0 0 0-1.108.03 5.36 5.36 0 0 0-1.071.325 5.13 5.13 0 0 1-.973.295c-.098.02-.198.03-.297.044h-.255c-.009-.003-.018-.007-.027-.008a1.97 1.97 0 0 1-.82-.274 3.703 3.703 0 0 1-.812-.657c-.493-.507-.911-1.076-1.298-1.666-.55-.836-.952-1.745-1.255-2.697a9.954 9.954 0 0 1-.475-2.523L0 9.888v-.36l.006-.054c.017-.22.027-.444.05-.664.052-.477.159-.942.332-1.39.359-.935.918-1.719 1.745-2.298.358-.25.743-.447 1.158-.586a4.464 4.464 0 0 1 1.003-.209c.266-.025.531-.024.795.022.391.066.768.178 1.139.313.377.137.751.281 1.138.384.164.043.33.092.501.037.354-.112.709-.226 1.063-.34.315-.103.627-.216.945-.309a3.94 3.94 0 0 1 1.116-.169c.54.002 1.067.093 1.58.26a4.02 4.02 0 0 1 1.953 1.335c.053.067.104.136.157.206l-.066.042a4.72 4.72 0 0 0-.978.797 3.551 3.551 0 0 0-.924 1.941 4.424 4.424 0 0 0-.003 1.227c.058.426.174.835.376 1.215zM7.644 4.257c-.012 0-.024-.003-.04-.005a2.538 2.538 0 0 1-.016-.522c.066-.903.442-1.669 1.024-2.344C9.06.864 9.622.508 10.255.255a3.444 3.444 0 0 1 1.004-.247c.009-.001.017-.005.026-.008h.067c.004.196.023.394.01.589-.052.9-.433 1.662-1.013 2.335a4.53 4.53 0 0 1-.904.811 3.115 3.115 0 0 1-1.088.471c-.235.05-.473.065-.713.051z"/>
    </defs>
    <g fill="none" fill-rule="evenodd" transform="translate(5 3)">
        <mask id="d" fill="#fff">
            <use xlink:href="#c"/>
        </mask>
        <use fill="#060607" xlink:href="#c"/>
        <g fill="#536e92" mask="url(#d)">
            <path d="M-5-3h24v24H-5z"/>
        </g>
    </g>
</svg>
