<svg xmlns="http://www.w3.org/2000/svg" xmlns:xlink="http://www.w3.org/1999/xlink" width="24" height="24" viewBox="0 0 24 24">
    <defs>
        <path id="a" d="M0 0h24v24H0V0z"/>
        <mask id="b" width="24" height="24" x="0" y="0" fill="#fff">
            <use xlink:href="#a"/>
        </mask>
        <path id="c" d="M19.69 1.882a8.064 8.064 0 0 1-2.316.65 4.046 4.046 0 0 0 1.77-2.24c-.782.47-1.648.8-2.56.988C15.84.47 14.795 0 13.609 0c-2.211 0-4.018 1.807-4.018 4.038 0 .32.037.63.103.922A11.477 11.477 0 0 1 1.374.744a3.995 3.995 0 0 0-.546 2.023c0 1.402.706 2.645 1.798 3.35-.668 0-1.29-.188-1.835-.47v.028a4.04 4.04 0 0 0 3.237 3.963 3.973 3.973 0 0 1-1.816.066 4.028 4.028 0 0 0 3.764 2.804A8.02 8.02 0 0 1 .96 14.24c-.32 0-.64-.019-.96-.056A11.43 11.43 0 0 0 6.193 16c7.416 0 11.492-6.155 11.492-11.492 0-.179 0-.348-.01-.527a8.067 8.067 0 0 0 2.014-2.099z"/>
    </defs>
    <g fill="none" fill-rule="evenodd" transform="translate(2 4)">
        <mask id="d" fill="#fff">
            <use xlink:href="#c"/>
        </mask>
        <use fill="#536292" fill-rule="nonzero" xlink:href="#c"/>
        <g fill="#536292" mask="url(#d)">
            <path d="M-2-4h24v24H-2z"/>
        </g>
    </g>
</svg>
