<svg xmlns="http://www.w3.org/2000/svg" xmlns:xlink="http://www.w3.org/1999/xlink" width="362" height="202" viewBox="0 0 362 202">
    <defs>
        <path id="a" d="M.762.572h209.25V1.68H.762z"/>
    </defs>
    <g fill="none" fill-rule="evenodd">
        <path fill="#FFF" d="M-1037-138H403v1499h-1440z"/>
        <path fill="#9ADBF9" d="M278.075 200.379h18.937v-26.562h-18.937zM212.007 198.132a573.445 573.445 0 0 0-60.629 1.67c-.42.035-.957.177-.995.597 13.061 1.213 26.22-.294 39.333.046 6.365.164 12.711.764 19.072 1.062 1.067.05 2.288.028 2.99-.776.861-.986.404-2.56-.395-3.595M248.817 100.935c-.436-.483-.968.506-.871 1.15 3.324 22.053 9.38 43.815 9.775 66.114.045 2.52-.005 5.139-1.101 7.408-1.833 3.788-6.078 5.684-10.057 7.056-16.818 5.799-34.34 7.1-52.12 7.705 1.708.118 2.672 1.115 4.392 1.189 16.246.698 33.652-1.574 49.058-6.514 2.964-.95 7.81-4.11 10.026-1.921.77.76 1.502 4.33 2.31 3.61.393-.35-.376-1.944-.337-2.468.164-2.17.674-3.69 1.754-5.578 3.91-6.838 2.687-15.334 1.346-23.097l-6.317-36.556c-.62-3.59-1.25-7.21-2.614-10.586-1.365-3.376-3.544-6.534-6.655-8.428M175.737 128.188a6.615 6.615 0 0 0-2.962-2.91c-.306-.15-.647-.278-.977-.198-.627.151-.847.914-.95 1.551-2.915 18.14-1.143 36.724-3.112 54.991-.116 1.074-.251 2.17-.724 3.142-.485.998-1.297 1.801-2.173 2.484-5.014 3.91-11.875 4.158-18.234 4.24.393 1.621 2.14 3.207 2.532 4.83 7.417-.663 14.685-.2 22.125-.5-1.174-.645-3.621-2.283-4.133-3.52-.393-.947-.271-2.029.002-3.017.819-2.978 2.929-5.499 5.499-7.214.702-.468 1.468-.91 1.904-1.636.439-.732.466-1.63.48-2.483l.674-39.554c.07-4.088.084-8.402-1.938-11.956"/>
        <path fill="#E3F6FC" d="M166.292 64.238c-.85.16-1.71.18-2.58.03-5.38-.9-8.73-7.59-7.5-14.95 1.23-7.35 6.59-12.58 11.96-11.68.74.12 1.44.36 2.09.68-4.59.7-8.61 5.61-9.47 12.04-.83 6.18 1.54 11.79 5.5 13.88"/>
        <path fill="#9ADBF9" d="M175.252 52.288c-.47 3.54-2.95 6.13-5.54 5.79-2.59-.35-4.3-3.5-3.83-7.04.48-3.54 2.96-6.13 5.54-5.78 2.59.34 4.3 3.49 3.83 7.03"/>
        <path fill="#9ADBF9" d="M165.882 51.038c.48-3.54 2.96-6.13 5.54-5.78 2.59.34 4.3 3.49 3.83 7.03-.47 3.54-2.95 6.13-5.54 5.79-2.59-.35-4.3-3.5-3.83-7.04m6.48-12.75a7.372 7.372 0 0 0-2.1.03c-4.59.7-8.61 5.61-9.47 12.04-.83 6.18 1.54 11.79 5.5 13.88 0 .01.01 0 .01 0 .77.42 1.6.69 2.48.81 5.4.72 10.58-4.69 11.57-12.08.98-7.39-2.59-13.96-7.99-14.68"/>
        <path fill="#9ADBF9" d="M175.252 52.288c-.47 3.54-2.95 6.13-5.54 5.79-2.59-.35-4.3-3.5-3.83-7.04.48-3.54 2.96-6.13 5.54-5.78 2.59.34 4.3 3.49 3.83 7.03"/>
        <path fill="#9ADBF9" d="M175.252 52.288c-.47 3.54-2.95 6.13-5.54 5.79-2.59-.35-4.3-3.5-3.83-7.04.48-3.54 2.96-6.13 5.54-5.78 2.59.34 4.3 3.49 3.83 7.03"/>
        <path fill="#314C75" d="M175.573 52.344c.077.013.12.088.059.657-.071.564-.21 1.644-.928 3.54-.361.95-1.178 2.627-2.282 4.003-1.073 1.404-2.451 2.401-2.978 2.694-1.037.623-2.118 1.074-3.31 1.29-.472.107-.96.108-1.441.126-1.955-.005-3.808-.822-5.131-1.922l-.794-.74c-.307-.367-.723-.797-1.093-1.377-.778-1.129-1.541-2.73-1.987-4.66-.912-3.842-.403-9.024 2.094-13.206 1.242-2.072 2.967-3.868 4.994-4.938a9.605 9.605 0 0 1 3.142-.984c1.053-.08 2.067-.02 2.958.247 1.807.478 3.035 1.524 3.796 2.285.75.796 1.106 1.347 1.154 1.42.432.548.978 1.594 1.226 2.2.357.89.542 1.463.66 1.98.142.511.229.964.316 1.638a15.683 15.683 0 0 1-.045 4.294c-.184.97-.34 1.465-.41 1.453-.214-.02.17-2.132-.43-5.61-.22-1.256-.576-2.309-1.096-3.475-.54-1.148-1.283-2.457-2.763-3.757l-.773-.563c-.381-.2-.821-.482-1.317-.64-.97-.38-2.033-.465-2.445-.454-.101.013-.618-.028-1.434.141a8.65 8.65 0 0 0-3.06 1.334c-2.318 1.522-4.552 4.713-5.466 8.34a17.871 17.871 0 0 0-.571 5.452c.094 1.766.474 3.405 1.009 4.75 1.064 2.736 2.765 4.048 3.003 4.27 1.128.911 2.704 1.611 4.408 1.646 1.697.012 3.433-.579 4.783-1.56 2.767-1.946 4.113-4.758 4.587-5.934.956-2.422 1.366-3.97 1.565-3.94"/>
        <path fill="#314C75" d="M180.252 52.73c.077.01.124.084.08.654-.052.567-.153 1.65-.808 3.569-.33.96-1.09 2.665-2.149 4.077-1.024 1.439-2.37 2.48-2.887 2.792-1.014.657-2.082 1.143-3.264 1.398-.47.123-.956.14-1.436.175-1.956.059-3.835-.695-5.193-1.75l-.817-.715c-.32-.356-.75-.771-1.14-1.34-.814-1.102-1.63-2.676-2.14-4.591-1.038-3.81-.702-9.004 1.653-13.268 1.172-2.112 2.837-3.964 4.828-5.101a9.618 9.618 0 0 1 3.107-1.088c1.05-.115 2.065-.088 2.964.149 1.823.418 3.085 1.422 3.87 2.158.778.77 1.151 1.309 1.202 1.38.448.534 1.03 1.56 1.296 2.158.387.877.593 1.444.728 1.956.158.507.26.957.37 1.628.3 1.854.202 3.319.097 4.294-.151.974-.29 1.475-.36 1.465-.215-.014.099-2.137-.616-5.594-.262-1.247-.655-2.287-1.213-3.436-.578-1.13-1.363-2.413-2.886-3.662l-.792-.537c-.389-.188-.835-.455-1.337-.597-.98-.347-2.047-.396-2.46-.372-.099.016-.617-.007-1.427.188a8.7 8.7 0 0 0-3.013 1.435c-2.266 1.599-4.393 4.863-5.186 8.516a17.862 17.862 0 0 0-.39 5.47c.154 1.76.588 3.387 1.167 4.713 1.153 2.699 2.897 3.955 3.143 4.168 1.157.873 2.756 1.52 4.46 1.499 1.696-.045 3.41-.693 4.728-1.718 2.701-2.036 3.952-4.892 4.387-6.083.873-2.453 1.234-4.014 1.434-3.99M189.499 90.513c.039.005.067.037.06.2.004.166-.081.462-.371.878-.595.832-2.135 1.868-5.187 3.044-1.53.617-4.351 1.554-6.967 2.475-1.306.466-2.556.944-3.545 1.401-.978.462-1.751.909-2.158 1.126-1.635.891-3.055 1.931-4.443 3.108a25.93 25.93 0 0 0-1.588 1.481c-2.045 2.072-3.605 4.511-4.5 6.954a23.997 23.997 0 0 0-1.121 4.18c-.391 2.08-.607 4.8-.705 7.933-.258 6.26.057 14.094.3 21.79.12 3.849.225 7.665.224 11.236a163.86 163.86 0 0 1-.313 9.747c-.188 2.86-.561 5.249-.936 6.94-.336 1.73-1.052 2.737-1.152 2.837-.444.534-1.182.977-1.858 1.256-.69.329-1.383.555-1.88.732-2.926.934-3.678 1.097-5.79 1.618-2.92.685-5.212 1.14-6.767 1.452-1.563.298-2.364.49-2.391.42-.03-.07.76-.437 2.296-.894 1.53-.471 3.792-1.072 6.647-1.847 2.064-.569 3.854-1.08 5.89-1.797.495-.2 1.032-.374 1.542-.625.266-.115.53-.24.768-.391.115-.074.265-.14.359-.222a4.96 4.96 0 0 1 .275-.24c.743-.867 1.018-2.33 1.325-3.998.115-.605.382-2.376.527-4.198.154-1.82.223-3.681.265-4.416.008-.36.198-3.632.167-8.386-.022-4.756-.246-10.997-.412-17.277-.18-6.28-.17-12.608.197-17.51.184-2.454.529-4.548.92-6.075.386-1.53.764-2.5.878-2.784.895-2.374 2.468-4.861 4.543-6.97 2.062-2.124 4.566-3.897 7.08-5.238 2.53-1.376 5.112-2.106 7.202-2.828 2.109-.692 3.793-1.266 4.806-1.663 2.03-.777 3.618-1.467 4.578-2.126.997-.638 1.148-1.336 1.235-1.322"/>
        <path fill="#314C75" d="M174.189 126.165c.156-.012.248.172.552 2.97.149 1.406.47 5.101.461 5.921.003.82.068 1.587.096 2.391l.035.96c.036 1.286.072 2.55.103 3.705.038 1.265.151 8.177.133 14.824l-.001 13.27.027 1.716c-.003 1.31.009 1.642-.02 2.576-.075 2.581-.217 4.035-.367 4.038-.148.003-.401-1.47-.528-4.032-.091-1.854-.162-3.22-.172-6.19 0-.54-.029-3.134-.004-3.77l.1-11.096c.038-5.419-.035-10.888-.053-11.41-.08-4.302-.36-10.95-.548-12.829-.184-1.879.029-3.03.186-3.044M212.312 82.538c.055-.056.187-.02.933.56.782.537 2.271 1.55 5.353 2.968 1.541.726 4.4 1.914 7.13 2.94l6.237 2.315c1.85.72 3.621 1.32 5.455 1.997l2.188.819c2.883 1.129 5.918 2.155 8.138 4.176.603.529 1.81 1.808 2.838 3.897 1.055 2.082 1.948 4.83 3.065 7.946 2.156 6.256 4.47 14.197 6.152 22.123 1.705 7.92 2.834 15.797 3.39 21.76.587 5.963.703 10.002.73 10.288.084 1.146.123 3.094.16 4.183.041 1.594.036 2.607-.002 3.507-.043.899-.102 1.69-.33 2.844-.315 1.589-.907 2.97-1.655 4-.737 1.037-1.583 1.746-2.334 2.184-.754.446-1.408.626-1.846.693-.44.069-.67.047-.673.016-.032-.112.94-.168 2.275-1.127 1.318-.935 2.9-2.92 3.356-5.937.352-2.167.251-4.112.17-6.401a238.726 238.726 0 0 0-.432-8.503c-.055-1.31-.649-7.567-.84-9.1-.043-.371-.386-3.797-1.176-8.725-.778-4.928-2.026-11.356-3.693-17.716-1.64-6.367-3.657-12.667-5.422-17.477-.848-2.42-1.707-4.413-2.595-5.738-.874-1.335-1.675-2.01-1.9-2.214-1.917-1.688-4.739-2.718-7.584-3.817l-8.6-3.186c-5.575-2.035-10.385-4.045-12.467-5.052-2.096-.97-3.688-1.953-4.673-2.78a6.387 6.387 0 0 1-1.063-1.014c-.218-.255-.313-.401-.285-.43M230.57 124.154c.139-.034.34.248 1.446 4.827.578 2.298 1.784 8.397 1.917 9.766.192 1.362.37 2.638.56 3.974l.195 1.6c.252 2.144.46 4.25.612 6.19.04.53.125 1.656.15 3.232.009 1.574-.037 3.62-.555 5.906-.494 2.278-1.63 4.792-3.51 6.84-1.853 2.071-4.264 3.701-6.73 5.043-2.482 1.343-5.006 2.436-7.32 3.56a451.24 451.24 0 0 1-6.368 2.982c-3.752 1.72-6.367 2.705-6.55 2.78-.735.298-1.992.776-2.707 1.015-2.092.706-2.63.868-4.146 1.29-2.101.555-3.761.91-4.897 1.105-1.138.194-1.747.257-1.764.184-.037-.165 2.342-.868 6.412-2.149 2.935-.972 5.085-1.708 9.649-3.613.837-.328 4.77-2.133 5.74-2.574l5.512-2.564c3.107-1.485 7.322-3.185 10.758-6.048 1.7-1.427 3.126-3.174 4.01-5.068.88-1.899 1.274-3.872 1.44-5.6.299-3.476-.014-5.985-.017-6.416a172.47 172.47 0 0 0-1.423-12.167c-.618-4.03-1.33-7.533-1.684-9.072-.705-3.078-.888-4.983-.73-5.023"/>
        <path fill="#314C75" d="M255.915 182.195c.053.12-.127.362-3.654 1.75-.885.358-2.517.912-4.061 1.418-1.556.46-3.017.902-3.56 1-1.08.22-2.072.533-3.131.755l-1.262.279c-1.691.368-3.36.696-4.89.975-3.32.988-36.772 4.937-37.608 3.66-.646-.06-1.74-.268-2.342-.458-.884-.26-1.412-.541-1.875-.78-.445-.278-.843-.525-1.318-1.027a5.079 5.079 0 0 1-1.231-2.176c-.16-.706-.197-1.312-.154-1.79.065-.96.273-1.426.323-1.418.098.012.06.522.16 1.424.038.45.154.992.354 1.588a4.712 4.712 0 0 0 1.179 1.739c.838.783 1.826 1.16 2.978 1.49 1.176.297 2.582.493 4.538.537.357.004 1.39.009 2.445-.05 1.053-.05 2.125-.142 2.548-.168.207-.02 2.106-.186 4.86-.431 2.75-.205 6.352-.515 9.964-.906 7.229-.743 14.464-1.974 15.147-2.125 2.834-.527 6.434-1.261 9.596-2.076 3.158-.827 5.889-1.684 7.062-2.148 2.368-.87 3.859-1.23 3.932-1.062M259.676 180.763c.156-.017.241.05.451 1.154.106.555.333 2.021.308 2.35-.019.327.038.631.05.951l.014.382.045 1.474c.023.503.04 3.251.05 5.878.008 1.315.033 2.6.07 3.569.033.968.076 1.618.08 1.665.024.183.053.496.062.672.026.515.044.645.036 1.014-.013 1.02-.116 1.608-.267 1.625-.145.016-.434-.542-.626-1.55-.13-.732-.234-1.272-.298-2.455-.008-.215-.08-1.248-.06-1.501-.03-.259.108-8.527.07-8.932-.03-1.7-.145-4.328-.27-5.066-.12-.736.13-1.212.285-1.23M.02 198.905c.006-.078.281-.12 2.546-.034l14.477.576a756.61 756.61 0 0 0 18.09.386c6.832.072 13.242.018 15.562.017l4.12-.026c.678-.01 1.351-.023 2.023-.033l1.006-.019.035-.004-.013-.016-.196-.298-.74-1.132c-.49-.758-.998-1.507-1.47-2.287-.956-1.552-1.94-3.087-2.852-4.657-3.75-6.28-7.139-12.626-10.05-18.514-.829-1.7-2.668-5.387-5.463-11.632a393.12 393.12 0 0 1-4.874-11.368 537.465 537.465 0 0 1-2.93-7.266c-.507-1.306-1.034-2.656-1.578-4.053l-1.93-5.07c19.053.077 48.261.198 72.956.3l8.924.036 4.252.017c.685.007 1.416-.018 2.172.163.767.162 1.491.678 1.933 1.255.465.578.78 1.18 1.092 1.743l.93 1.69c.621 1.106 1.171 2.208 1.732 3.262a255.724 255.724 0 0 1 2.97 5.962l5.917 12.581a379.293 379.293 0 0 0 4.285 8.746 150.901 150.901 0 0 0 3.844 7.125c.501.9 1.003 1.72 1.54 2.608a81.83 81.83 0 0 0 1.835 2.94c1.964 3.072 3.91 5.701 5.478 8.077 1.585 2.363 2.82 4.453 3.7 6.207a31.455 31.455 0 0 1 1.741 4.116c.304.964.424 1.47.391 1.48-.039.011-.237-.478-.62-1.415a41.895 41.895 0 0 0-1.965-4.002c-.946-1.705-2.238-3.732-3.87-6.037-1.615-2.318-3.6-4.896-5.61-7.947-5.814-8.84-9.146-15.935-16.267-31.2-.658-1.383-2.559-5.402-4.648-9.394-.524-.997-1.045-2-1.579-2.95-.533-.936-1.02-1.92-1.517-2.65-.94-1.535-2.56-1.246-3.47-1.305l-84.805-.48a4186.17 4186.17 0 0 0 1.492 3.925l1.623 4.181a568.434 568.434 0 0 0 3.042 7.55c1.936 4.67 3.636 8.632 5.11 11.87 2.931 6.482 4.764 10.147 5.203 11.031 2.322 4.7 5.065 9.878 7.83 14.668 1.388 2.391 2.75 4.704 4.073 6.807a114.099 114.099 0 0 0 1.901 3.013l2.046 3.153c-2.777.037-5.457.074-8.036.11-2.394.006-4.694.014-6.892.021a759.546 759.546 0 0 1-11.933-.116c-7.084-.129-12.357-.317-15.422-.423-5.369-.19-9.658-.477-12.602-.735a91.875 91.875 0 0 1-3.375-.345c-.768-.097-1.166-.169-1.164-.208"/>
        <g transform="translate(151 199.878)">
            <mask id="b" fill="#fff">
                <use xlink:href="#a"/>
            </mask>
            <path fill="#314C75" d="M.762 1.056C.762.899 1.53.82 12.74.718 18.376.666 33.151.54 36.415.578c3.265.04 6.335-.001 9.542-.001h3.83c5.131.003 10.174.005 14.784.005 10.093 0 110.29.047 112.171.036 1.882-.012 5.075-.025 6.86-.021 5.233.013 6.562.005 10.297.042 10.311.1 16.113.267 16.113.417 0 .148-5.898.376-16.123.477-7.405.074-12.859.135-24.717.137-2.157 0-12.514.025-15.058 0-2.47-.024-85.746-.205-89.926-.205-17.196 0-43.797-.056-51.347-.007-7.55.05-12.079-.245-12.079-.402" mask="url(#b)"/>
        </g>
        <path fill="#314C75" d="M149.079 196.233c.006-.158.263-.225 3.94-.235 1.854-.017 6.7-.168 7.772-.165 1.072.01 2.079-.056 3.132-.083l1.257-.043 4.85-.202c1.658-.047 10.702-.594 19.427-1.097 4.362-.237 8.645-.428 11.88-.504 3.234-.078 5.414-.092 5.57-.088l2.262-.021c.842.004 1.446-.004 2.014.172.554.157 1.115.59 1.369 1.295.317.965.28 1.7.303 2.39-.005.679-.067 1.25-.145 1.706-.162.912-.361 1.364-.428 1.35-.08-.016-.05-.51-.053-1.406a16.725 16.725 0 0 0-.086-1.634c-.078-.616-.148-1.413-.42-2.068-.382-.94-1.44-.79-2.693-.773l-4.603.067-4.942.12c-.405-.02-7.442.21-14.552.615-7.108.396-14.297.752-14.986.765-2.826.146-6.43.252-9.64.313-3.208.014-6.02.026-7.264.03-2.49-.01-3.971-.35-3.964-.504M61.928 200.514c.002-.157.294-.233 4.543-.308 2.138-.038 7.738-.151 8.976-.117 1.237.04 2.401-.005 3.616-.008l1.452-.004 5.603-.026c1.914-.015 12.365-.087 22.424-.308l13.681-.347 6.402-.211 2.598-.111c1.983-.063 2.486-.091 3.902-.108 3.91-.053 6.115.016 6.121.167.006.147-2.218.472-6.089.727-2.803.183-4.869.322-9.364.476-.818.025-4.744.178-5.709.178-.468.007-8.597.148-16.808.29-8.21.112-16.504.126-17.297.131l-19.473.013c-2.863.029-4.579-.277-4.578-.434"/>
        <path fill="#314C75" d="M191.065 184.524c-.074.175-.28.04-3.448-.997a42.32 42.32 0 0 0-3.656-.95c-1.394-.3-2.716-.491-3.191-.581-.951-.176-1.86-.25-2.808-.315-.376-.035-.755-.046-1.131-.071-.75-.02-1.547-.086-2.161.01-.599.09-1.12.443-1.613.874-.526.476-2.355 2.098-3.894 4.88a18.712 18.712 0 0 0-1.057 2.27c-.312.803-.57 1.672-.443 2.447.195 1.576 2.513 2.172 4.254 2.76.911.253 1.834.354 2.667.153.836-.202 1.581-.686 2.232-1.27.654-.583 1.233-1.245 1.811-1.87.292-.311.577-.617.875-.902.29-.282.619-.592 1.073-.787.448-.22 1.082-.155 1.445.06.388.2.63.425.872.61.478.39.874.726 1.212.983.673.519 1.107.704 1.164.732.456.237 1.269.363 1.735.293.681-.067 1.107-.27 1.482-.414.375-.17.7-.326 1.184-.591 1.325-.743 2.449-1.345 3.287-1.558.838-.225 1.308-.162 1.31-.104.012.089-.429.202-1.152.56-.735.35-1.691 1.027-2.996 1.877-.953.586-1.869 1.132-3.151 1.262a4.087 4.087 0 0 1-2.064-.348c-.708-.307-1.375-.806-2.067-1.377l-.671-.546c-.305-.246-.656-.506-.879-.514-.437-.086-1.198.793-1.44 1.01-.066.062-.385.393-.902.949-.526.545-1.225 1.365-2.324 2.12a5.38 5.38 0 0 1-1.996.843c-.768.148-1.588.1-2.372-.072-.789-.17-1.554-.446-2.304-.74-.744-.297-1.56-.61-2.256-1.224-.724-.598-1.088-1.634-1.004-2.515.057-.89.35-1.682.644-2.404a19.445 19.445 0 0 1 2.075-3.803c1.492-2.12 2.919-3.296 3.16-3.514.501-.43 1.162-.882 1.966-1 .786-.116 1.518-.036 2.282-.021 1.522.074 3.082.244 4.537.484 2.916.47 5.39 1.253 6.476 1.603 2.186.697 3.301 1.58 3.237 1.708"/>
        <path fill="#FFF" d="M199.021 24.74c-8.19-.033-16.365.97-24.38 2.657-2.129.448-4.358 1.003-5.928 2.51-1.914 1.837-2.419 4.66-2.799 7.286-1.918 13.226-3.216 26.763-.76 39.899.502 2.684 1.181 5.392 2.639 7.7.849 1.344 1.983 2.549 3.416 3.237 1.482.712 3.17.825 4.812.927 4.786.295 9.608.59 14.36-.053 1.901-.257 3.899-.726 5.241-2.095 1.31-1.337 1.748-3.27 2.279-5.063a34.712 34.712 0 0 1 2.701-6.561"/>
        <path fill="#314C75" d="M199.02 24.811c0 .078-.119.138-1.105.193-.986.066-2.84.111-6.294.39-1.739.136-4.877.473-7.816.916-2.938.44-5.676.97-6.67 1.144-1.978.371-3.88.7-5.646 1.382-.702.275-1.365.624-1.936 1.071-1.164.887-1.892 2.226-2.33 3.627-.44 1.41-.648 2.874-.849 4.29-.209 1.548-.983 6.548-1.559 13.231-.279 3.341-.487 7.106-.475 11.056.022 3.95.286 8.085.873 12.134.614 4.018 1.334 8.13 3.568 11.064 1.093 1.465 2.554 2.453 4.178 2.775 1.614.352 3.288.35 4.801.466 3.036.187 5.57.255 7.377.22 1.81-.036 2.892-.135 3.035-.146 1.151-.099 3.102-.333 4.112-.623 1.501-.396 2.3-.926 2.884-1.477.578-.567.978-1.18 1.41-2.2.57-1.42.902-2.846 1.358-4.013a30.05 30.05 0 0 1 1.251-2.913c.77-1.536 1.294-2.28 1.353-2.249.072.04-.307.88-.92 2.466a44.922 44.922 0 0 0-1.019 2.95c-.38 1.165-.632 2.545-1.194 4.093-.412 1.108-1.016 2.147-1.933 2.9-.903.757-2.003 1.202-3.177 1.505-2.366.544-5.066.774-8.784.763-1.37.032-7.77-.269-9.39-.479-.189-.053-1.215-.067-2.789-.685-1.59-.62-3.377-2.269-4.553-4.634-1.226-2.356-1.876-5.325-2.357-8.44a82.736 82.736 0 0 1-.955-9.863c-.27-6.75.251-13.52.821-18.73.585-5.213 1.16-8.89 1.244-9.534.191-1.32.395-2.754.853-4.206.446-1.44 1.235-2.933 2.531-3.966 1.29-1.037 2.881-1.56 4.416-1.932 1.547-.359 3.075-.645 4.567-.927 5.961-1.117 11.264-1.59 13.605-1.77 2.344-.184 4.227-.185 5.52-.113 1.293.068 1.995.188 1.994.264M206.653 55.545c-.074-.022-.117-.088-.037-.518.09-.425.28-1.227.902-2.635.309-.71.957-1.957 1.728-3.041.749-1.105 1.723-1.991 2.13-2.237.783-.521 1.616-.95 2.564-1.101a5.025 5.025 0 0 1 1.15-.055 4.151 4.151 0 0 1 2.174.774c.63.443 1.079 1.045 1.405 1.64.175.327.517 1.045.719 2.086.21 1.044.25 2.382.088 3.875a15.638 15.638 0 0 1-1.321 4.78c-.74 1.608-1.94 3.247-3.697 4.128-.866.434-1.79.667-2.684.803-.447.067-.89.11-1.322.142l-1.1.058c-.017-.004-.02.008-.022.027l-.091.499-.165 1.127c-.09.735-.15 1.433-.183 2.08-.127 2.589.112 4.33.11 4.453.066.492.182 1.326.262 1.79.22 1.363.322 1.7.52 2.665.607 2.657 1.152 4.118.993 4.185-.113.055-1.038-1.29-1.857-3.961-.282-.967-.508-1.816-.69-2.83a24.634 24.634 0 0 1-.414-3.807c-.005-.294-.038-1.15-.006-2.018.024-.868.1-1.748.154-2.092.01-.084.053-.511.163-1.192.029-.17.048-.357.089-.557.044-.234.092-.484.14-.75l.062-.327.03-.167c.02-.045-.005-.143.075-.12l.713-.024.826-.034c1.078-.06 2.324-.165 3.508-.635 1.186-.451 2.232-1.38 2.994-2.543 1.529-2.346 2.106-5.276 2.106-7.463.048-2.227-.695-3.638-.827-3.842-.5-.951-1.507-1.79-2.767-1.871-1.254-.11-2.545.414-3.5 1.214-.974.795-1.692 1.78-2.246 2.62-.555.846-.925 1.57-1.134 2.023-.823 1.804-1.374 2.895-1.542 2.85"/>
        <path fill="#042556" d="M201.922 27.174a29.27 29.27 0 0 0-1.49 10.805c.074 1.481.28 3.01 1.064 4.27.784 1.258 2.278 2.177 3.732 1.883a17.126 17.126 0 0 0-.534 11.015c.291 1 1.06 2.185 2.057 1.892.578-.17.893-.777 1.142-1.325l1.667-3.662c.646-1.42 1.318-2.879 2.447-3.959 1.128-1.079 2.835-1.704 4.286-1.126.782.311 1.716.924 2.347.367.267-.237.354-.612.426-.963a96.911 96.911 0 0 0 1.921-19.562c-.007-2.01-.122-4.153-1.295-5.783-.866-1.202-2.203-1.967-3.533-2.618-14.138-6.922-31.76-5.008-44.954-13.597-1.65-1.074-3.224-2.31-5.05-3.05a10.48 10.48 0 0 0-5.129-.69c-1.57.183-3.159.77-4.212 1.951-1.156 1.293-1.524 3.14-1.37 4.867.153 1.727.772 3.374 1.384 4.996-1.854-.145-4.22.017-4.866 1.761-.34.92-.022 1.942.326 2.86.885 2.328 2.59 4.962 5.07 4.727.46-.044.945-.188 1.372-.008.54.227.75.861.955 1.41 1.13 3.011 3.97 5.311 7.151 5.788 2.655.4 5.324-.389 7.944-.977a54.653 54.653 0 0 1 26.195.587"/>
        <path fill="#314C75" d="M171.907 72.034c.029-.154.103-.22.918-.179.412.019 1.48.024 1.71.075.23.065.455.036.685.051l.275.018c.368.028.73.026 1.062.039.362.003 2.354.022 4.245-.293a24.511 24.511 0 0 0 2.544-.525 16.85 16.85 0 0 0 1.168-.344 5.56 5.56 0 0 1 .464-.171c.359-.115.445-.156.71-.213.73-.17 1.184-.189 1.244-.048.059.132-.25.517-.93.885-.491.262-.858.458-1.71.719-.156.042-.897.284-1.09.296-.092.012-1.668.355-3.283.487-1.614.161-3.245.093-3.4.09-1.284.008-3.246-.281-3.805-.334-.565-.051-.84-.399-.807-.553"/>
        <path fill="#9ADBF9" d="M211.292 67.404c-.85.16-1.71.18-2.58.03-5.38-.9-8.73-7.59-7.5-14.95 1.23-7.35 6.59-12.58 11.96-11.68.74.12 1.44.36 2.09.68-4.59.7-8.61 5.61-9.47 12.04-.83 6.18 1.54 11.79 5.5 13.88"/>
        <path fill="#9ADBF9" d="M220.252 55.455c-.47 3.54-2.95 6.13-5.54 5.79-2.59-.35-4.3-3.5-3.83-7.04.48-3.54 2.96-6.13 5.54-5.78 2.59.34 4.3 3.49 3.83 7.03"/>
        <path fill="#E3F6FC" d="M210.882 54.205c.48-3.54 2.96-6.13 5.54-5.78 2.59.34 4.3 3.49 3.83 7.03-.47 3.54-2.95 6.13-5.54 5.79-2.59-.35-4.3-3.5-3.83-7.04m6.48-12.75a7.373 7.373 0 0 0-2.1.03c-4.59.7-8.609 5.61-9.47 12.04-.83 6.18 1.54 11.79 5.5 13.88 0 .01.01 0 .01 0 .77.42 1.601.69 2.48.81 5.4.72 10.58-4.69 11.57-12.08.98-7.39-2.59-13.96-7.99-14.68"/>
        <path fill="#9ADBF9" d="M220.252 55.455c-.47 3.54-2.95 6.13-5.54 5.79-2.59-.35-4.3-3.5-3.83-7.04.48-3.54 2.96-6.13 5.54-5.78 2.59.34 4.3 3.49 3.83 7.03"/>
        <path fill="#9ADBF9" d="M220.252 55.455c-.47 3.54-2.95 6.13-5.54 5.79-2.59-.35-4.3-3.5-3.83-7.04.48-3.54 2.96-6.13 5.54-5.78 2.59.34 4.3 3.49 3.83 7.03"/>
        <path fill="#314C75" d="M211.305 67.474c.014.072-.037.16-.609.28-.558.094-1.725.3-3.703-.403-.993-.335-2.65-1.38-3.752-2.797-1.113-1.4-1.758-2.959-1.914-3.533a18.34 18.34 0 0 1-.786-3.39c-.035-.466-.11-.929-.108-1.393a19.309 19.309 0 0 1 .555-5.329c.235-.842.913-3.75 3.307-6.679 1.176-1.445 2.858-2.836 4.94-3.576 1.033-.386 2.182-.512 3.302-.44.28.03.563.046.84.092a7.87 7.87 0 0 1 1.246.338c.453.161.811.344 1.18.52.352.17.818.39 1.053.517-.692.146-1.383.282-2.043.468l-.996.262c-.203.07-.295.126-.449.19a5.726 5.726 0 0 0-.806.414c-.269.14-.513.316-.757.49-.975.697-1.799 1.553-2.482 2.456-1.378 1.81-2.163 3.808-2.614 5.533-.87 3.504-.492 5.907-.493 6.052.05.644.263 1.716.4 2.308.447 1.73.677 2.133 1.212 3.277a11.005 11.005 0 0 0 2.415 3.226c.343.32.624.546.82.694.19.158.28.257.262.29-.017.033-.147.005-.387-.088-.246-.082-.587-.25-1.005-.524-.824-.543-1.969-1.543-2.892-3.172a14.086 14.086 0 0 1-1.458-3.6c-.333-1.33-.569-2.91-.462-5.066.011-.392.118-1.525.327-2.662.24-1.13.577-2.258.766-2.682.083-.149.437-1.375 1.595-3.204.582-.906 1.375-1.965 2.527-2.963a10.713 10.713 0 0 1 2.002-1.387c.184-.114.39-.197.592-.288l.31-.136.155-.069.033-.01c.078-.025.158-.048.232-.058.07-.003.027-.022-.007-.038l-.104-.046a1.582 1.582 0 0 0-.126-.04 4.456 4.456 0 0 0-.688-.1c-.933-.14-1.928-.032-2.88.25-.96.266-1.874.742-2.68 1.334-.829.568-1.528 1.28-2.147 1.991-2.455 2.941-3.08 6.08-3.217 6.47a18.646 18.646 0 0 0-.5 4.887c.054 1.74.39 3.523 1.004 5.088.617 1.565 1.517 2.89 2.455 3.795.93.922 1.877 1.412 2.471 1.63 1.187.461 2.206.62 2.92.67.714.057 1.13.067 1.144.15"/>
        <path fill="#314C75" d="M220.323 55.464c.077.01.13.05.135.33.002.28-.024.814-.321 1.765a7.793 7.793 0 0 1-1.015 2.04c-.496.726-1.168 1.263-1.436 1.412-.521.316-1.053.583-1.662.716-.24.062-.491.073-.738.09-1.01.035-1.98-.361-2.671-.897-.387-.265-1.57-1.405-2.062-3.335-.515-1.892-.347-4.448.823-6.56.582-1.046 1.408-1.972 2.416-2.548a4.83 4.83 0 0 1 1.582-.553c.539-.061 1.059-.043 1.519.076.936.214 1.58.725 1.977 1.097.394.389.582.659.607.695.23.265.528.776.659 1.075.36.883.425 1.12.525 1.785.217 1.856-.23 2.839-.338 2.812-.178-.02-.152-1.048-.541-2.645a6.863 6.863 0 0 0-.608-1.573c-.277-.512-.644-1.088-1.321-1.642-.128-.09-.502-.366-.94-.492a3.43 3.43 0 0 0-1.076-.167c-.073.002-.946-.038-1.981.706-1.033.715-2.037 2.218-2.42 3.92-.418 1.698-.215 3.524.33 4.752.53 1.258 1.328 1.834 1.44 1.933.53.397 1.253.695 2.027.685a3.77 3.77 0 0 0 2.168-.787c1.256-.94 1.849-2.282 2.038-2.845.383-1.151.706-1.862.884-1.845"/>
        <path fill="#314C75" d="M210.813 54.195c-.078-.01-.131-.05-.135-.332-.002-.279.026-.812.324-1.762a7.846 7.846 0 0 1 1.018-2.039c.496-.725 1.168-1.263 1.436-1.412.522-.315 1.054-.582 1.665-.712.241-.063.491-.072.739-.089 1.005-.026 1.976.36 2.668.901.387.265 1.568 1.407 2.056 3.338.51 1.894.344 4.446-.826 6.56-.583 1.046-1.412 1.97-2.42 2.544a4.914 4.914 0 0 1-1.582.552c-.539.06-1.06.045-1.521-.078-.936-.218-1.576-.73-1.973-1.103-.392-.389-.58-.66-.605-.695-.231-.266-.528-.777-.658-1.076-.362-.883-.425-1.12-.526-1.785-.217-1.855.23-2.838.34-2.812.178.02.152 1.05.539 2.645.142.577.342 1.052.609 1.573.276.513.643 1.09 1.319 1.645.129.091.502.366.939.496.43.152.891.173 1.073.17.073-.006.947.035 1.984-.706 1.035-.713 2.039-2.215 2.422-3.917.416-1.699.22-3.524-.325-4.753-.529-1.258-1.324-1.836-1.435-1.935a3.408 3.408 0 0 0-2.029-.687 3.749 3.749 0 0 0-2.169.782c-1.255.94-1.849 2.281-2.04 2.844-.385 1.15-.711 1.861-.887 1.843"/>
        <path fill="#314C75" d="M217.354 41.525c-.01.083-.086.115-.631.136-.527.05-1.598.01-3.32.802-.866.382-2.32 1.36-3.365 2.62-1.073 1.234-1.783 2.608-2.053 3.09-.522.986-.867 1.984-1.16 3.04-.115.422-.207.85-.305 1.275a18.043 18.043 0 0 0-.27 5.036c.047.505.139 1.713.721 3.507.295.893.744 1.922 1.451 2.987a8.902 8.902 0 0 0 3.12 2.914l.994.549-1.228-.077c-.016-.001-.013.008-.015-.002l-.007-.013-.368-.357-1.118-1.09 1.759.993c.983.556 2.234.858 3.545.79 1.313-.063 2.669-.535 3.868-1.32 2.431-1.574 4.13-4.266 5.029-6.844.925-2.603 1.074-5.13.96-6.93-.122-1.808-.449-2.92-.469-3.027-.101-.305-.214-.724-.359-1.125-.162-.395-.299-.796-.427-1.07-.754-1.604-1.064-1.95-1.836-2.93-1.123-1.325-2.323-2.028-3.174-2.386-.419-.211-.77-.29-.998-.381-.231-.086-.35-.15-.345-.187.005-.037.137-.053.393-.045.254.01.643.015 1.122.16.963.229 2.369.87 3.668 2.24.927.994 1.585 1.993 2.174 3.24.556 1.259 1.056 2.785 1.273 4.935.025.392.107 1.528.053 2.683-.051.575-.092 1.156-.164 1.645l-.204 1.117c-.111.226-.564 3.48-3.031 6.774-1.208 1.619-2.986 3.2-5.16 3.95-1.072.388-2.236.55-3.34.433-1.107-.063-2.147-.423-3.025-.903l.474-.072c-.028.025-.025.034-.114.083-.026.01-.059.03-.136.039a.407.407 0 0 1-.322-.113c-.154-.192-.103-.237-.119-.283l.212.348c-1.585-.877-2.728-2.11-3.5-3.318-.786-1.21-1.253-2.385-1.573-3.381-.592-2.015-.647-3.314-.675-3.591-.132-1.54-.058-3.31.288-5.083a17.586 17.586 0 0 1 1.826-5.08c.836-1.541 1.893-2.838 2.938-3.75 1.037-.92 2.027-1.481 2.66-1.753 1.262-.576 2.407-.683 3.156-.612.758.075 1.137.266 1.127.337"/>
        <path fill="#314C75" d="M220.323 55.464c.077.01.13.05.135.33.002.28-.024.814-.321 1.765a7.793 7.793 0 0 1-1.015 2.04c-.496.726-1.168 1.263-1.436 1.412-.521.316-1.053.583-1.662.716-.24.062-.491.073-.738.09-1.01.035-1.98-.361-2.671-.897-.387-.265-1.57-1.405-2.062-3.335-.515-1.892-.347-4.448.823-6.56.582-1.046 1.408-1.972 2.416-2.548a4.83 4.83 0 0 1 1.582-.553c.539-.061 1.059-.043 1.519.076.936.214 1.58.725 1.977 1.097.394.389.582.659.607.695.23.265.528.776.659 1.075.36.883.425 1.12.525 1.785.217 1.856-.23 2.839-.338 2.812-.178-.02-.152-1.048-.541-2.645a6.863 6.863 0 0 0-.608-1.573c-.277-.512-.644-1.088-1.321-1.642-.128-.09-.502-.366-.94-.492a3.43 3.43 0 0 0-1.076-.167c-.073.002-.946-.038-1.981.706-1.033.715-2.037 2.218-2.42 3.92-.418 1.698-.215 3.524.33 4.752.53 1.258 1.328 1.834 1.44 1.933.53.397 1.253.695 2.027.685a3.77 3.77 0 0 0 2.168-.787c1.256-.94 1.849-2.282 2.038-2.845.383-1.151.706-1.862.884-1.845"/>
        <path fill="#314C75" d="M220.323 55.464c.077.01.13.05.135.33.002.28-.024.814-.321 1.765a7.793 7.793 0 0 1-1.015 2.04c-.496.726-1.168 1.263-1.436 1.412-.521.316-1.053.583-1.662.716-.24.062-.491.073-.738.09-1.01.035-1.98-.361-2.671-.897-.387-.265-1.57-1.405-2.062-3.335-.515-1.892-.347-4.448.823-6.56.582-1.046 1.408-1.972 2.416-2.548a4.83 4.83 0 0 1 1.582-.553c.539-.061 1.059-.043 1.519.076.936.214 1.58.725 1.977 1.097.394.389.582.659.607.695.23.265.528.776.659 1.075.36.883.425 1.12.525 1.785.217 1.856-.23 2.839-.338 2.812-.178-.02-.152-1.048-.541-2.645a6.863 6.863 0 0 0-.608-1.573c-.277-.512-.644-1.088-1.321-1.642-.128-.09-.502-.366-.94-.492a3.43 3.43 0 0 0-1.076-.167c-.073.002-.946-.038-1.981.706-1.033.715-2.037 2.218-2.42 3.92-.418 1.698-.215 3.524.33 4.752.53 1.258 1.328 1.834 1.44 1.933.53.397 1.253.695 2.027.685a3.77 3.77 0 0 0 2.168-.787c1.256-.94 1.849-2.282 2.038-2.845.383-1.151.706-1.862.884-1.845"/>
        <path fill="#314C75" d="M211.305 67.474c.014.072-.037.16-.609.28-.558.094-1.725.3-3.703-.403-.993-.335-2.65-1.38-3.752-2.797-1.113-1.4-1.758-2.959-1.914-3.533a18.34 18.34 0 0 1-.786-3.39c-.035-.466-.11-.929-.108-1.393a19.309 19.309 0 0 1 .555-5.329c.235-.842.913-3.75 3.307-6.679 1.176-1.445 2.858-2.836 4.94-3.576 1.033-.386 2.182-.512 3.302-.44.28.03.563.046.84.092a7.87 7.87 0 0 1 1.246.338c.453.161.811.344 1.18.52.352.17.818.39 1.053.517-.692.146-1.383.282-2.043.468l-.996.262c-.203.07-.295.126-.449.19a5.726 5.726 0 0 0-.806.414c-.269.14-.513.316-.757.49-.975.697-1.799 1.553-2.482 2.456-1.378 1.81-2.163 3.808-2.614 5.533-.87 3.504-.492 5.907-.493 6.052.05.644.263 1.716.4 2.308.447 1.73.677 2.133 1.212 3.277a11.005 11.005 0 0 0 2.415 3.226c.343.32.624.546.82.694.19.158.28.257.262.29-.017.033-.147.005-.387-.088-.246-.082-.587-.25-1.005-.524-.824-.543-1.969-1.543-2.892-3.172a14.086 14.086 0 0 1-1.458-3.6c-.333-1.33-.569-2.91-.462-5.066.011-.392.118-1.525.327-2.662.24-1.13.577-2.258.766-2.682.083-.149.437-1.375 1.595-3.204.582-.906 1.375-1.965 2.527-2.963a10.713 10.713 0 0 1 2.002-1.387c.184-.114.39-.197.592-.288l.31-.136.155-.069.033-.01c.078-.025.158-.048.232-.058.07-.003.027-.022-.007-.038l-.104-.046a1.582 1.582 0 0 0-.126-.04 4.456 4.456 0 0 0-.688-.1c-.933-.14-1.928-.032-2.88.25-.96.266-1.874.742-2.68 1.334-.829.568-1.528 1.28-2.147 1.991-2.455 2.941-3.08 6.08-3.217 6.47a18.646 18.646 0 0 0-.5 4.887c.054 1.74.39 3.523 1.004 5.088.617 1.565 1.517 2.89 2.455 3.795.93.922 1.877 1.412 2.471 1.63 1.187.461 2.206.62 2.92.67.714.057 1.13.067 1.144.15"/>
        <path fill="#314C75" d="M220.323 55.464c.077.01.13.05.135.33.002.28-.024.814-.321 1.765a7.793 7.793 0 0 1-1.015 2.04c-.496.726-1.168 1.263-1.436 1.412-.521.316-1.053.583-1.662.716-.24.062-.491.073-.738.09-1.01.035-1.98-.361-2.671-.897-.387-.265-1.57-1.405-2.062-3.335-.515-1.892-.347-4.448.823-6.56.582-1.046 1.408-1.972 2.416-2.548a4.83 4.83 0 0 1 1.582-.553c.539-.061 1.059-.043 1.519.076.936.214 1.58.725 1.977 1.097.394.389.582.659.607.695.23.265.528.776.659 1.075.36.883.425 1.12.525 1.785.217 1.856-.23 2.839-.338 2.812-.178-.02-.152-1.048-.541-2.645a6.863 6.863 0 0 0-.608-1.573c-.277-.512-.644-1.088-1.321-1.642-.128-.09-.502-.366-.94-.492a3.43 3.43 0 0 0-1.076-.167c-.073.002-.946-.038-1.981.706-1.033.715-2.037 2.218-2.42 3.92-.418 1.698-.215 3.524.33 4.752.53 1.258 1.328 1.834 1.44 1.933.53.397 1.253.695 2.027.685a3.77 3.77 0 0 0 2.168-.787c1.256-.94 1.849-2.282 2.038-2.845.383-1.151.706-1.862.884-1.845"/>
        <path fill="#314C75" d="M210.813 54.195c-.078-.01-.131-.05-.135-.332-.002-.279.026-.812.324-1.762a7.846 7.846 0 0 1 1.018-2.039c.496-.725 1.168-1.263 1.436-1.412.522-.315 1.054-.582 1.665-.712.241-.063.491-.072.739-.089 1.005-.026 1.976.36 2.668.901.387.265 1.568 1.407 2.056 3.338.51 1.894.344 4.446-.826 6.56-.583 1.046-1.412 1.97-2.42 2.544a4.914 4.914 0 0 1-1.582.552c-.539.06-1.06.045-1.521-.078-.936-.218-1.576-.73-1.973-1.103-.392-.389-.58-.66-.605-.695-.231-.266-.528-.777-.658-1.076-.362-.883-.425-1.12-.526-1.785-.217-1.855.23-2.838.34-2.812.178.02.152 1.05.539 2.645.142.577.342 1.052.609 1.573.276.513.643 1.09 1.319 1.645.129.091.502.366.939.496.43.152.891.173 1.073.17.073-.006.947.035 1.984-.706 1.035-.713 2.039-2.215 2.422-3.917.416-1.699.22-3.524-.325-4.753-.529-1.258-1.324-1.836-1.435-1.935a3.408 3.408 0 0 0-2.029-.687 3.749 3.749 0 0 0-2.169.782c-1.255.94-1.849 2.281-2.04 2.844-.385 1.15-.711 1.861-.887 1.843"/>
        <path fill="#314C75" d="M217.354 41.525c-.01.083-.086.115-.631.136-.527.05-1.598.01-3.32.802-.866.382-2.32 1.36-3.365 2.62-1.073 1.234-1.783 2.608-2.053 3.09-.522.986-.867 1.984-1.16 3.04-.115.422-.207.85-.305 1.275a18.043 18.043 0 0 0-.27 5.036c.047.505.139 1.713.721 3.507.295.893.744 1.922 1.451 2.987a8.902 8.902 0 0 0 3.12 2.914l.994.549-1.228-.077c-.016-.001-.013.008-.015-.002l-.007-.013-.368-.357-1.118-1.09 1.759.993c.983.556 2.234.858 3.545.79 1.313-.063 2.669-.535 3.868-1.32 2.431-1.574 4.13-4.266 5.029-6.844.925-2.603 1.074-5.13.96-6.93-.122-1.808-.449-2.92-.469-3.027-.101-.305-.214-.724-.359-1.125-.162-.395-.299-.796-.427-1.07-.754-1.604-1.064-1.95-1.836-2.93-1.123-1.325-2.323-2.028-3.174-2.386-.419-.211-.77-.29-.998-.381-.231-.086-.35-.15-.345-.187.005-.037.137-.053.393-.045.254.01.643.015 1.122.16.963.229 2.369.87 3.668 2.24.927.994 1.585 1.993 2.174 3.24.556 1.259 1.056 2.785 1.273 4.935.025.392.107 1.528.053 2.683-.051.575-.092 1.156-.164 1.645l-.204 1.117c-.111.226-.564 3.48-3.031 6.774-1.208 1.619-2.986 3.2-5.16 3.95-1.072.388-2.236.55-3.34.433-1.107-.063-2.147-.423-3.025-.903l.474-.072c-.028.025-.025.034-.114.083-.026.01-.059.03-.136.039a.407.407 0 0 1-.322-.113c-.154-.192-.103-.237-.119-.283l.212.348c-1.585-.877-2.728-2.11-3.5-3.318-.786-1.21-1.253-2.385-1.573-3.381-.592-2.015-.647-3.314-.675-3.591-.132-1.54-.058-3.31.288-5.083a17.586 17.586 0 0 1 1.826-5.08c.836-1.541 1.893-2.838 2.938-3.75 1.037-.92 2.027-1.481 2.66-1.753 1.262-.576 2.407-.683 3.156-.612.758.075 1.137.266 1.127.337"/>
        <path fill="#314C75" d="M220.323 55.464c.077.01.13.05.135.33.002.28-.024.814-.321 1.765a7.793 7.793 0 0 1-1.015 2.04c-.496.726-1.168 1.263-1.436 1.412-.521.316-1.053.583-1.662.716-.24.062-.491.073-.738.09-1.01.035-1.98-.361-2.671-.897-.387-.265-1.57-1.405-2.062-3.335-.515-1.892-.347-4.448.823-6.56.582-1.046 1.408-1.972 2.416-2.548a4.83 4.83 0 0 1 1.582-.553c.539-.061 1.059-.043 1.519.076.936.214 1.58.725 1.977 1.097.394.389.582.659.607.695.23.265.528.776.659 1.075.36.883.425 1.12.525 1.785.217 1.856-.23 2.839-.338 2.812-.178-.02-.152-1.048-.541-2.645a6.863 6.863 0 0 0-.608-1.573c-.277-.512-.644-1.088-1.321-1.642-.128-.09-.502-.366-.94-.492a3.43 3.43 0 0 0-1.076-.167c-.073.002-.946-.038-1.981.706-1.033.715-2.037 2.218-2.42 3.92-.418 1.698-.215 3.524.33 4.752.53 1.258 1.328 1.834 1.44 1.933.53.397 1.253.695 2.027.685a3.77 3.77 0 0 0 2.168-.787c1.256-.94 1.849-2.282 2.038-2.845.383-1.151.706-1.862.884-1.845"/>
        <path fill="#314C75" d="M220.323 55.464c.077.01.13.05.135.33.002.28-.024.814-.321 1.765a7.793 7.793 0 0 1-1.015 2.04c-.496.726-1.168 1.263-1.436 1.412-.521.316-1.053.583-1.662.716-.24.062-.491.073-.738.09-1.01.035-1.98-.361-2.671-.897-.387-.265-1.57-1.405-2.062-3.335-.515-1.892-.347-4.448.823-6.56.582-1.046 1.408-1.972 2.416-2.548a4.83 4.83 0 0 1 1.582-.553c.539-.061 1.059-.043 1.519.076.936.214 1.58.725 1.977 1.097.394.389.582.659.607.695.23.265.528.776.659 1.075.36.883.425 1.12.525 1.785.217 1.856-.23 2.839-.338 2.812-.178-.02-.152-1.048-.541-2.645a6.863 6.863 0 0 0-.608-1.573c-.277-.512-.644-1.088-1.321-1.642-.128-.09-.502-.366-.94-.492a3.43 3.43 0 0 0-1.076-.167c-.073.002-.946-.038-1.981.706-1.033.715-2.037 2.218-2.42 3.92-.418 1.698-.215 3.524.33 4.752.53 1.258 1.328 1.834 1.44 1.933.53.397 1.253.695 2.027.685a3.77 3.77 0 0 0 2.168-.787c1.256-.94 1.849-2.282 2.038-2.845.383-1.151.706-1.862.884-1.845"/>
        <path fill="#314C75" d="M211.305 67.474c.014.072-.037.16-.609.28-.558.094-1.725.3-3.703-.403-.993-.335-2.65-1.38-3.752-2.797-1.113-1.4-1.758-2.959-1.914-3.533a18.34 18.34 0 0 1-.786-3.39c-.035-.466-.11-.929-.108-1.393a19.309 19.309 0 0 1 .555-5.329c.235-.842.913-3.75 3.307-6.679 1.176-1.445 2.858-2.836 4.94-3.576 1.033-.386 2.182-.512 3.302-.44.28.03.563.046.84.092a7.87 7.87 0 0 1 1.246.338c.453.161.811.344 1.18.52.352.17.818.39 1.053.517-.692.146-1.383.282-2.043.468l-.996.262c-.203.07-.295.126-.449.19a5.726 5.726 0 0 0-.806.414c-.269.14-.513.316-.757.49-.975.697-1.799 1.553-2.482 2.456-1.378 1.81-2.163 3.808-2.614 5.533-.87 3.504-.492 5.907-.493 6.052.05.644.263 1.716.4 2.308.447 1.73.677 2.133 1.212 3.277a11.005 11.005 0 0 0 2.415 3.226c.343.32.624.546.82.694.19.158.28.257.262.29-.017.033-.147.005-.387-.088-.246-.082-.587-.25-1.005-.524-.824-.543-1.969-1.543-2.892-3.172a14.086 14.086 0 0 1-1.458-3.6c-.333-1.33-.569-2.91-.462-5.066.011-.392.118-1.525.327-2.662.24-1.13.577-2.258.766-2.682.083-.149.437-1.375 1.595-3.204.582-.906 1.375-1.965 2.527-2.963a10.713 10.713 0 0 1 2.002-1.387c.184-.114.39-.197.592-.288l.31-.136.155-.069.033-.01c.078-.025.158-.048.232-.058.07-.003.027-.022-.007-.038l-.104-.046a1.582 1.582 0 0 0-.126-.04 4.456 4.456 0 0 0-.688-.1c-.933-.14-1.928-.032-2.88.25-.96.266-1.874.742-2.68 1.334-.829.568-1.528 1.28-2.147 1.991-2.455 2.941-3.08 6.08-3.217 6.47a18.646 18.646 0 0 0-.5 4.887c.054 1.74.39 3.523 1.004 5.088.617 1.565 1.517 2.89 2.455 3.795.93.922 1.877 1.412 2.471 1.63 1.187.461 2.206.62 2.92.67.714.057 1.13.067 1.144.15"/>
        <path fill="#314C75" d="M220.323 55.464c.077.01.13.05.135.33.002.28-.024.814-.321 1.765a7.793 7.793 0 0 1-1.015 2.04c-.496.726-1.168 1.263-1.436 1.412-.521.316-1.053.583-1.662.716-.24.062-.491.073-.738.09-1.01.035-1.98-.361-2.671-.897-.387-.265-1.57-1.405-2.062-3.335-.515-1.892-.347-4.448.823-6.56.582-1.046 1.408-1.972 2.416-2.548a4.83 4.83 0 0 1 1.582-.553c.539-.061 1.059-.043 1.519.076.936.214 1.58.725 1.977 1.097.394.389.582.659.607.695.23.265.528.776.659 1.075.36.883.425 1.12.525 1.785.217 1.856-.23 2.839-.338 2.812-.178-.02-.152-1.048-.541-2.645a6.863 6.863 0 0 0-.608-1.573c-.277-.512-.644-1.088-1.321-1.642-.128-.09-.502-.366-.94-.492a3.43 3.43 0 0 0-1.076-.167c-.073.002-.946-.038-1.981.706-1.033.715-2.037 2.218-2.42 3.92-.418 1.698-.215 3.524.33 4.752.53 1.258 1.328 1.834 1.44 1.933.53.397 1.253.695 2.027.685a3.77 3.77 0 0 0 2.168-.787c1.256-.94 1.849-2.282 2.038-2.845.383-1.151.706-1.862.884-1.845"/>
        <path fill="#314C75" d="M210.813 54.195c-.078-.01-.131-.05-.135-.332-.002-.279.026-.812.324-1.762a7.846 7.846 0 0 1 1.018-2.039c.496-.725 1.168-1.263 1.436-1.412.522-.315 1.054-.582 1.665-.712.241-.063.491-.072.739-.089 1.005-.026 1.976.36 2.668.901.387.265 1.568 1.407 2.056 3.338.51 1.894.344 4.446-.826 6.56-.583 1.046-1.412 1.97-2.42 2.544a4.914 4.914 0 0 1-1.582.552c-.539.06-1.06.045-1.521-.078-.936-.218-1.576-.73-1.973-1.103-.392-.389-.58-.66-.605-.695-.231-.266-.528-.777-.658-1.076-.362-.883-.425-1.12-.526-1.785-.217-1.855.23-2.838.34-2.812.178.02.152 1.05.539 2.645.142.577.342 1.052.609 1.573.276.513.643 1.09 1.319 1.645.129.091.502.366.939.496.43.152.891.173 1.073.17.073-.006.947.035 1.984-.706 1.035-.713 2.039-2.215 2.422-3.917.416-1.699.22-3.524-.325-4.753-.529-1.258-1.324-1.836-1.435-1.935a3.408 3.408 0 0 0-2.029-.687 3.749 3.749 0 0 0-2.169.782c-1.255.94-1.849 2.281-2.04 2.844-.385 1.15-.711 1.861-.887 1.843"/>
        <path fill="#314C75" d="M217.354 41.525c-.01.083-.086.115-.631.136-.527.05-1.598.01-3.32.802-.866.382-2.32 1.36-3.365 2.62-1.073 1.234-1.783 2.608-2.053 3.09-.522.986-.867 1.984-1.16 3.04-.115.422-.207.85-.305 1.275a18.043 18.043 0 0 0-.27 5.036c.047.505.139 1.713.721 3.507.295.893.744 1.922 1.451 2.987a8.902 8.902 0 0 0 3.12 2.914l.994.549-1.228-.077c-.016-.001-.013.008-.015-.002l-.007-.013-.368-.357-1.118-1.09 1.759.993c.983.556 2.234.858 3.545.79 1.313-.063 2.669-.535 3.868-1.32 2.431-1.574 4.13-4.266 5.029-6.844.925-2.603 1.074-5.13.96-6.93-.122-1.808-.449-2.92-.469-3.027-.101-.305-.214-.724-.359-1.125-.162-.395-.299-.796-.427-1.07-.754-1.604-1.064-1.95-1.836-2.93-1.123-1.325-2.323-2.028-3.174-2.386-.419-.211-.77-.29-.998-.381-.231-.086-.35-.15-.345-.187.005-.037.137-.053.393-.045.254.01.643.015 1.122.16.963.229 2.369.87 3.668 2.24.927.994 1.585 1.993 2.174 3.24.556 1.259 1.056 2.785 1.273 4.935.025.392.107 1.528.053 2.683-.051.575-.092 1.156-.164 1.645l-.204 1.117c-.111.226-.564 3.48-3.031 6.774-1.208 1.619-2.986 3.2-5.16 3.95-1.072.388-2.236.55-3.34.433-1.107-.063-2.147-.423-3.025-.903l.474-.072c-.028.025-.025.034-.114.083-.026.01-.059.03-.136.039a.407.407 0 0 1-.322-.113c-.154-.192-.103-.237-.119-.283l.212.348c-1.585-.877-2.728-2.11-3.5-3.318-.786-1.21-1.253-2.385-1.573-3.381-.592-2.015-.647-3.314-.675-3.591-.132-1.54-.058-3.31.288-5.083a17.586 17.586 0 0 1 1.826-5.08c.836-1.541 1.893-2.838 2.938-3.75 1.037-.92 2.027-1.481 2.66-1.753 1.262-.576 2.407-.683 3.156-.612.758.075 1.137.266 1.127.337"/>
        <path fill="#314C75" d="M220.323 55.464c.077.01.13.05.135.33.002.28-.024.814-.321 1.765a7.793 7.793 0 0 1-1.015 2.04c-.496.726-1.168 1.263-1.436 1.412-.521.316-1.053.583-1.662.716-.24.062-.491.073-.738.09-1.01.035-1.98-.361-2.671-.897-.387-.265-1.57-1.405-2.062-3.335-.515-1.892-.347-4.448.823-6.56.582-1.046 1.408-1.972 2.416-2.548a4.83 4.83 0 0 1 1.582-.553c.539-.061 1.059-.043 1.519.076.936.214 1.58.725 1.977 1.097.394.389.582.659.607.695.23.265.528.776.659 1.075.36.883.425 1.12.525 1.785.217 1.856-.23 2.839-.338 2.812-.178-.02-.152-1.048-.541-2.645a6.863 6.863 0 0 0-.608-1.573c-.277-.512-.644-1.088-1.321-1.642-.128-.09-.502-.366-.94-.492a3.43 3.43 0 0 0-1.076-.167c-.073.002-.946-.038-1.981.706-1.033.715-2.037 2.218-2.42 3.92-.418 1.698-.215 3.524.33 4.752.53 1.258 1.328 1.834 1.44 1.933.53.397 1.253.695 2.027.685a3.77 3.77 0 0 0 2.168-.787c1.256-.94 1.849-2.282 2.038-2.845.383-1.151.706-1.862.884-1.845"/>
        <path fill="#314C75" d="M220.323 55.464c.077.01.13.05.135.33.002.28-.024.814-.321 1.765a7.793 7.793 0 0 1-1.015 2.04c-.496.726-1.168 1.263-1.436 1.412-.521.316-1.053.583-1.662.716-.24.062-.491.073-.738.09-1.01.035-1.98-.361-2.671-.897-.387-.265-1.57-1.405-2.062-3.335-.515-1.892-.347-4.448.823-6.56.582-1.046 1.408-1.972 2.416-2.548a4.83 4.83 0 0 1 1.582-.553c.539-.061 1.059-.043 1.519.076.936.214 1.58.725 1.977 1.097.394.389.582.659.607.695.23.265.528.776.659 1.075.36.883.425 1.12.525 1.785.217 1.856-.23 2.839-.338 2.812-.178-.02-.152-1.048-.541-2.645a6.863 6.863 0 0 0-.608-1.573c-.277-.512-.644-1.088-1.321-1.642-.128-.09-.502-.366-.94-.492a3.43 3.43 0 0 0-1.076-.167c-.073.002-.946-.038-1.981.706-1.033.715-2.037 2.218-2.42 3.92-.418 1.698-.215 3.524.33 4.752.53 1.258 1.328 1.834 1.44 1.933.53.397 1.253.695 2.027.685a3.77 3.77 0 0 0 2.168-.787c1.256-.94 1.849-2.282 2.038-2.845.383-1.151.706-1.862.884-1.845"/>
        <path fill="#9ADBF9" d="M219.254 52.23s4.506-29.084-4.13-34.295c0 0-9.095-3.578-9.809-2.4-.714 1.179 9.212 5.678 7.129 35.379"/>
        <path fill="#314C75" d="M219.184 52.22c-.174-.025-.129-.334.252-4.853.091-1.136.228-3.196.305-5.136.08-1.94.107-3.76.128-4.417.062-1.316.003-2.554-.033-3.844l-.069-1.54c-.118-2.06-.34-4.074-.694-5.878a24.051 24.051 0 0 0-.604-2.483c-.347-1.16-.865-2.657-1.894-4.037-.133-.168-.266-.34-.402-.513l-.47-.464c-.15-.171-.345-.282-.526-.42l-.268-.195c-.049-.032.01-.003-.049-.024l-.182-.054c-.976-.293-1.996-.6-3.047-.914l-6.196-1.86c-.016-.007-.048-.012-.046.015.015.025.045.043.122.128a20.71 20.71 0 0 1 1.5 1.797c.92 1.25 1.648 2.595 2.306 3.92a36.204 36.204 0 0 1 2.555 7.708 52.92 52.92 0 0 1 .951 5.803c.185 1.444.193 2.327.22 2.432.075.766.181 2.068.176 2.797.051 2.137.074 2.679-.002 4.202a47.994 47.994 0 0 1-.379 4.845c-.136 1.108-.25 1.69-.324 1.684-.074-.006-.133-.611-.156-1.73l-.035-4.814c.013-1.497-.073-2.792-.139-4.311-.018-.761-.094-1.573-.17-2.493-.07-.922-.146-1.951-.314-3.131-.043-.873-.79-4.964-1.065-5.946-.03-.104-.109-.605-.353-1.397-.116-.398-.253-.875-.41-1.421-.19-.537-.402-1.142-.635-1.808-.52-1.307-1.168-2.854-2.15-4.423a20.097 20.097 0 0 0-1.682-2.357l-.506-.566-.13-.147-.19-.233-.383-.467c-.115-.158-.309-.317-.282-.452a.792.792 0 0 1 .157-.503.742.742 0 0 1 .408-.28 1.06 1.06 0 0 1 .55.01l6.651 2.03 3.154.96.43.132c.195.116.26.18.387.268.22.173.47.31.65.516l.572.57c.161.209.32.414.475.617 1.205 1.662 1.707 3.384 2.086 4.632.338 1.268.486 2.128.538 2.362.672 3.466.855 7.946.752 11.908-.092 3.966-.42 7.425-.548 8.955-.259 3.063-.839 4.847-.992 4.82M217.462 87.034c.127.048.195.291-.938 3.015-.55 1.38-2.297 4.854-2.78 5.563-.462.724-.837 1.436-1.27 2.156l-.522.858a61.598 61.598 0 0 1-2.127 3.26c-.394.53-1.597 2.344-3.68 4.367-2.058 2.013-5.233 4.115-8.84 4.66-1.782.273-3.623.163-5.234-.38-1.612-.523-2.964-1.532-3.774-2.64-.822-1.099-1.237-2.148-1.52-2.882-.272-.742-.402-1.191-.424-1.25a27.859 27.859 0 0 1-.517-1.736c-.334-1.34-.413-1.681-.585-2.651-.447-2.685-.417-4.224-.28-4.24.159-.019.523 1.487 1.156 4.058.234.932.458 1.733.732 2.669.288.928.577 2.022 1.147 3.395.106.248.425.966.862 1.608a7.32 7.32 0 0 0 1.21 1.388c.1.08 1.137 1.074 3.142 1.549 1.976.508 4.792.288 7.304-.844 2.544-1.08 4.69-2.942 6.144-4.543 1.46-1.61 2.33-2.903 2.49-3.118 2.56-3.654 5.96-9.722 6.685-11.538.785-1.79 1.467-2.781 1.619-2.724"/>
        <path fill="#314C75" d="M182.659 95.867c.163-.002.22.087.375 1.319.07.621.359 2.222.389 2.578.009.362.109.688.166 1.035l.078.413c.104.554.228 1.093.349 1.585.073.267.283 1.14.668 2.267.392 1.116.907 2.549 1.639 3.738.715 1.204 1.825 2.018 2.758 2.475.93.465 1.635.638 1.678.66.199.049.534.13.72.177l1.09.282c1.092.313 1.719.55 1.695.703-.021.141-.706.293-1.867.175-.837-.103-1.474-.142-2.78-.615-.241-.068-1.364-.564-1.604-.764-.055-.047-.653-.383-1.364-1.075-.724-.688-1.413-1.796-1.894-2.936-.987-2.266-1.552-4.683-1.605-4.912-.52-1.883-.798-4.886-.854-5.737-.092-.855.21-1.37.363-1.368M219.913 88.138c.145.04.208.186-.234 1.997-.202.916-.934 3.269-1.182 3.756-.244.488-.388.981-.61 1.468l-.256.584a50.3 50.3 0 0 1-1.063 2.22c-.358.754-2.505 4.839-5.26 8.309-1.352 1.732-2.75 3.422-4.124 4.447-1.373 1.033-2.486 1.372-2.541 1.424-.293.129-.796.331-1.082.419-.836.265-1.044.329-1.642.478-1.645.389-2.551.622-2.617.484-.068-.13.756-.753 2.353-1.339 1.13-.454 2.016-.687 3.672-1.519.148-.079.569-.318.967-.61.4-.289.783-.622.939-.749.078-.06.756-.645 1.637-1.648a52.556 52.556 0 0 0 3.035-3.803c2.096-2.856 3.762-6.039 3.903-6.348a55.372 55.372 0 0 0 1.98-4.366c.584-1.485 1.023-2.813 1.18-3.412.32-1.191.786-1.834.945-1.792M298.584 200.557c0 .157-.368.235-5.726.338-2.695.052-9.76.177-11.32.139-1.56-.039-3.029.002-4.563.001h-2.088v-.579c.002-2.543.002-5.043.005-7.328 0-1.804.005-9.467.012-20.045l24.188.022v11.475l.022 3.279c-.013 2.503-.006 3.138-.042 4.924a178.135 178.135 0 0 1-.19 5.7c-.074 1.31-.153 2.003-.228 2.003-.074 0-.168-.704-.257-2.021a132.31 132.31 0 0 1-.22-5.687c-.073-3.54-.136-6.148-.137-11.817 0-.516-.005-2.011-.009-3.53l-.002-2.176c.002-.326.002-.623.005-.877v-.182c.002-.056.002-.016.002-.03l.005-.006v-.003l-22.185-.123-.082 19.277c-.002 2.293-.007 4.953-.01 6.847l10.29.016 6.756-.019c3.608-.05 5.774.245 5.774.402M300.381 177.69c0-.078.023-.136.24-.177.217-.036.63-.093 1.4-.005.385.04 1.087.162 1.72.383.636.214 1.206.498 1.385.641.378.256.74.483 1.097.756.143.106.267.236.402.353.54.472.986 1.023 1.365 1.543.193.286.883 1.228 1.307 2.692.436 1.448.555 3.398.02 5.184-.504 1.79-1.588 3.322-2.6 4.231-1.003.934-1.852 1.335-1.895 1.384-.226.13-.623.335-.85.435-.689.245-.86.32-1.376.405-1.426.231-2.223-.016-2.215-.138 0-.173.781-.335 2-.73.87-.319 1.52-.56 2.725-1.394.228-.14 1.19-.984 1.384-1.236.05-.054.565-.545 1.084-1.427a8.022 8.022 0 0 0 1.12-3.506c.12-1.352-.136-2.727-.534-3.712-.404-.984-.836-1.619-.922-1.718-.62-.892-1.64-1.87-2.719-2.48a7.45 7.45 0 0 0-2.618-.936c-.937-.129-1.515-.363-1.52-.548"/>
        <path fill="#314C75" d="M300.399 180.725c0-.135.061-.28 1.098-.234a5.5 5.5 0 0 1 1.164.225c.431.134.82.32.938.422.263.18.491.337.739.51.098.071.182.158.272.237.363.32.664.69.919 1.041.13.193.595.828.88 1.816.292.977.371 2.291.008 3.493-.342 1.205-1.073 2.236-1.754 2.846-.675.628-1.246.898-1.274.932-.151.09-.417.233-.571.298-.465.162-.58.215-.931.26-.967.123-1.494-.098-1.488-.229.001-.164.51-.35 1.274-.639a7.742 7.742 0 0 0 1.707-.928c.145-.09.746-.628.874-.78.033-.034.364-.339.699-.894a5.076 5.076 0 0 0 .733-2.217 5.338 5.338 0 0 0-.317-2.37c-.253-.63-.526-1.04-.58-1.103a5.705 5.705 0 0 0-1.738-1.596 4.495 4.495 0 0 0-1.679-.594c-.598-.065-.967-.32-.973-.496"/>
        <path fill="#ACE2FA" d="M283.278 174.004c.314 0 .47 0 .677.007.103.004.352.013.276.014-.076.002.005.004.004.006a.002.002 0 0 1-.002.002c-.002.004-.007.007-.007.01 0 .005-.094.065-.071.066.024.001.05.003.04.004-.024.003-.01.004-.081.007a43.818 43.818 0 0 1-1.79 0c-.148-.005-.27-.008-.273-.015-.002 0-.05-.008 0-.009.047-.002.409-.05.409-.054 0-.01.112-.026.013-.03-.098-.005.49-.008.805-.008"/>
        <path fill="#314C75" d="M291.483 152.226c-.022-.078-.002-.122.052-.21.024-.05.044-.092.05-.193.009-.091-.026-.256-.112-.308-.101-.116-.472-.218-.946-.16-.466.036-.886.152-1.043.17-.317.039-.587.183-.868.312a4.733 4.733 0 0 0-1.455 1.045c-.128.158-.812.814-.862 1.676-.021.408.227.939.559 1.545l1.039 1.849c.717 1.256 1.342 2.596 1.568 3.72.237 1.118.14 1.902.15 1.954a4.72 4.72 0 0 1-.082.803c-.143.605-.206.758-.41 1.157-.634 1.103-1.382 1.335-1.44 1.229-.107-.133.306-.653.626-1.6.203-.696.303-1.231.256-2.404.013-.22-.197-1.222-.274-1.47a8.862 8.862 0 0 0-.506-1.403c-.34-.787-.903-1.787-1.466-2.824-.274-.527-.565-1.027-.776-1.612-.226-.58-.2-1.28-.001-1.754.392-.962.94-1.4 1.005-1.501 1.33-1.557 4.565-2.29 5.483-1.221.428.513.183 1.065-.075 1.236-.285.182-.468.022-.472-.036M284.063 159.459c-.096.133-.17.145-.526.058-.086-.018-.249-.042-.337-.018-.098.025-.065.05-.08.017.007.01-.006-.006-.004.005.002.005.011.01.006.02a.157.157 0 0 0-.014.036.992.992 0 0 0-.012.345c.012.075.032.313.16.653.12.34.348.773.573 1.244.23.458.413 1.04.445 1.46.043.432-.01.742-.01.763a1.15 1.15 0 0 1-.047.325c-.09.24-.113.309-.236.456-.369.415-.736.37-.795.254-.08-.136-.013-.421.021-.702.03-.211.018-.354.034-.7.006-.063-.043-.374-.039-.457.027-.05-.094-.681-.464-1.448-.368-.74-.55-1.676-.521-1.77-.049-.306.008-.838.301-1.088.322-.304.731-.26.926-.203.219.055.351.124.438.153.32.119.281.48.181.597"/>
        <path fill="#9ADBF9" d="M83.954 172.6c-1.756 1.181-4.422.293-5.955-1.985-1.532-2.277-1.352-5.082.405-6.264 1.756-1.182 4.423-.294 5.955 1.984 1.533 2.277 1.352 5.082-.405 6.264"/>
    </g>
</svg>
