<svg xmlns="http://www.w3.org/2000/svg" width="302" height="240" viewBox="0 0 302 240">
    <g fill="none" fill-rule="evenodd">
        <path fill="#F0F9FC" d="M38.163 21.244C43.928 8.79 59.953 4.558 73.585 6.194c13.632 1.636 26.467 7.533 40.086 9.268 20.613 2.626 41.152-4.423 61.895-5.658 31.21-1.858 62.991 10.225 85.076 32.344 22.084 22.12 34.107 53.911 32.183 85.101-.695 11.266-3.816 23.519-13.085 29.966-4.64 3.228-10.305 4.603-15.884 5.514-19.096 3.119-40.864 2.4-54.658 15.962-8.925 8.773-12.686 22.171-22.735 29.63-10.308 7.653-24.366 7.047-37.156 5.922-15.371-1.352-31.908-3.485-43.168-14.03-6.458-6.05-11.087-14.767-19.473-17.597-13.904-4.691-27.437 9.67-42.112 9.555-8.22-.065-15.891-4.867-20.977-11.32-5.086-6.455-7.893-14.411-9.82-22.398-4.463-18.49-4.4-38.876 4.73-55.565 2.59-4.737 5.88-9.131 7.762-14.19 1.883-5.06 2.117-11.179-1.167-15.465-2.71-3.54-7.367-5.29-9.757-9.051-4.106-6.463.503-15.013 6.157-20.176 5.655-5.164 12.795-9.52 15.261-16.768"/>
        <path fill="#FFF" d="M168.198 105.707c-3.815 1.29-7.66 2.614-11.092 4.72-3.432 2.106-6.463 5.09-7.896 8.851-1.433 3.762-1.024 8.355 1.645 11.369-.872 1.144-1.766 2.33-2.13 3.721-.364 1.393-.068 3.06 1.089 3.918 1.142.847 2.707.682 4.13.682s3.109.404 3.603 1.737c.663 1.784-1.307 3.396-1.83 5.226-.477 1.67.376 3.532 1.777 4.56 1.4 1.026 3.235 1.314 4.964 1.146 1.73-.167 3.387-.75 5.025-1.33 1.183-.418 2.403-.858 3.316-1.718.913-.86 1.44-2.262.914-3.401-.579-1.252-2.164-1.761-2.832-2.968-.68-1.23-.162-2.845.83-3.841.993-.997 2.354-1.517 3.67-2.01 2.188-.82 4.642-1.637 6.79-.72 1.321.563 2.298 1.702 3.478 2.521 1.18.82 2.867 1.281 4.004.403.84-.648 1.088-1.847.884-2.887-.203-1.04-.78-1.964-1.345-2.862l-10.814-17.16c-2.315-3.673-4.635-7.354-7.302-10.78l-1.767 1.044"/>
        <path fill="#AAE4FF" d="M196.496 96.445a32.35 32.35 0 0 0-16.448 1.508c-2.066.756-4.06 1.726-6.183 2.302-2.124.575-4.454.73-6.477-.136-2.023-.866-3.625-2.94-3.434-5.132-.902 2.177-.957 4.766.174 6.833 1.13 2.067 3.546 3.46 5.873 3.08 1.87-.306 3.39-1.611 4.92-2.728 6.143-4.483 14.032-6.506 21.575-5.534M183.3 134.004l-2.72 1.072c1.678 2.108 4.02 3.63 6.475 4.206l-4.416-6.137M169.277 117.867c-4.058 1.143-7.24 3.43-10.135 6.494-1.104 1.168-1.925 2.65-2.858 3.506-.933.856-5.977 1.429-6.822-6.429-.135-1.258-.319 4.599-.65 3.377.578 1.185 3.156 6.137 4.223 6.911 1.066.774 2.975 1.93 4.1 1.244.828-.504.912-2.287 1.409-3.12a20.373 20.373 0 0 1 8.581-7.86c1.32-.637 3.837-1.586 3.116-2.823"/>
        <path fill="#AAE4FF" d="M170.71 121.08a18.659 18.659 0 0 0-4.894 3.646c-.85.884-1.612 1.852-2.371 2.816l-2.051 2.605c-1.56 1.983-3.195 4.162-3.24 6.685-.018 1.021.232 2.03.547 3.002.65 2.008 1.632 3.987 3.267 5.324.692.565 1.55 1.017 2.441.935.393-.037.773-.176 1.168-.2.394-.022.84.11 1.02.462-.692.56-1.67.603-2.553.485-3.383-.455-6.372-3.08-7.26-6.375-.32-1.192-.384-2.437-.424-3.671-.029-.907-.046-1.818.08-2.716.38-2.727 2.026-5.097 3.746-7.248 1.77-2.21 3.726-4.362 6.226-5.693 1.053-.562 2.246-.974 3.427-.802.53.078 1.13.383 1.164.917l-.361.186"/>
        <path fill="#FFF" d="M196.766 93.582c-4.255-1.65-9.02-.633-13.486.308-4.467.941-9.328 1.743-13.427-.263-1.113-.544-2.292-1.307-3.488-.986-.999.268-1.654 1.23-2.023 2.195a7.905 7.905 0 0 0 .39 6.428 7.912 7.912 0 0 0 5.093 3.945c-2.22 3.844-1.75 8.782.117 12.81 1.866 4.028 4.954 7.341 7.991 10.58l6.777 7.23c1.642 1.752 3.416 3.583 5.743 4.173 2.307.586 4.726-.16 6.952-1.002a77.362 77.362 0 0 0 9.677-4.442c2.043-1.115 4.105-2.386 5.38-4.332 1.275-1.946 1.534-4.742.009-6.498 1.702-.81 3.404-1.618 5.106-2.426.828-.393 1.678-.803 2.295-1.48.618-.676.955-1.693.579-2.529-.527-1.172-2.048-1.41-3.32-1.595-5.38-.778-10.457-3.498-14.085-7.544-3.627-4.047-5.778-9.388-5.965-14.819"/>
        <path fill="#AAE4FF" d="M208.99 116.631c-.06-.366-.47-.549-.826-.651a12.17 12.17 0 0 0-4.794-.39c-1.17.14-4.808 2.428-5.876 2.926-3.334 1.559-6.63 3.901-10.35 3.42-6.367-.822-6.627-.173-9.4.606-1.637.461-3.161-1.861-4.158-3.463-.643-1.034-1.22-2.554-1.54-3.73-.314-1.164-.538-2.395-1.24-3.375-.093-.128-.204-.26-.359-.294-.342-.075-.57.343-.652.683-.537 2.258-.143 4.67.795 6.793.939 2.122 2.396 3.98 4.006 5.65.911.947 1.899 1.856 3.092 2.406.447-1.563 1.27-3.15 2.733-3.86 1.426-.692 3.107-.396 4.682-.213 4.624.536 9.605-.161 13.267-3.034.647-.507 1.244-1.075 1.909-1.559 2.367-1.723 5.441-2.252 8.361-2.026M197.018 96.352c-3.302-.677-6.064-.78-9.702-.346-2.539.302-5.862 1.268-8.142 2.424-2.28 1.156-3.557 2.696-6.104 2.916-2.548.219-5.283-.483-7.025-2.355-.799-.859-1.358-1.922-2.18-2.759-.081-.083-.173-.168-.287-.19-.318-.06-.495.356-.524.678-.307 3.333 1.918 6.57 4.903 8.089 2.984 1.519 4.07.244 6.886-2.05 2.596-2.116 7.738-4.311 11.044-4.849 3.465-.562 7.84-.562 11.088-.995 1.075-.144.182.434.216-.65"/>
        <path fill="#AAE4FF" d="M211.333 121.07c-2.206 5.395-6.219 10.801-11.521 13.225-5.302 2.425-10.716 1.925-16.242.065-1.807-2.784-6.136-7.65-4.44-6.039 6.108 5.801 18.223 4.25 22.17 1.747 3.948-2.502 9.275-9.257 8.603-12.98.538.346.755 2.731 1.292 3.076"/>
        <path fill="#FFF" d="M212.23 75.334c4.843-1.137 9.989-1.243 14.755.184 4.765 1.428 9.12 4.462 11.703 8.712 3.228 5.306 3.412 12.237.81 17.877-2.6 5.639-7.815 9.923-13.75 11.76-5.934 1.837-12.501 1.302-18.228-1.107-1.035-.435-2.23-1.299-1.937-2.381.215-.79 1.113-1.144 1.896-1.385l7.378-2.266c1.844-.566 3.777-1.187 5.09-2.598 1.543-1.657 1.925-4.138 1.537-6.368-.388-2.23-1.446-4.279-2.49-6.287l-6.136-11.798c-.383-.737-.773-1.496-.857-2.321-.084-.826.209-1.745.922-2.17"/>
        <path fill="#AAE4FF" d="M171.01 148.309a43.567 43.567 0 0 1-8.774 2.713c-1.231.241-2.498.43-3.735.223-1.237-.206-2.455-.865-3.058-1.964-.436-.797-.456-1.831-.047-2.62l-.17-.017c-1.018.73-1.206 2.286-.604 3.386.603 1.099 1.82 1.758 3.058 1.964 1.237.207 2.504.018 3.734-.223a43.544 43.544 0 0 0 10.281-3.39l-.686-.072zM153.207 138.47c-1.212.101-2.494-.118-3.465-.85-.868-.655-1.42-1.773-1.278-2.835l-.288-.112c-.35 1.165.23 2.477 1.201 3.209.971.732 2.253.951 3.465.85 1.212-.1 2.378-.492 3.53-.882l-.194-.074c-.97.32-1.955.61-2.971.695"/>
        <path fill="#2E5488" d="M147.796 135.28c.242.086.294.181.385.639.027.115.086.314.166.487.076.174.153.326.147.395-.015.138.088.23.145.34.022.044.043.09.07.131.098.175.215.337.34.466.064.067.283.307.678.536.39.23.955.434 1.554.512a6.664 6.664 0 0 0 1.68-.002 7.77 7.77 0 0 0 .817-.131c.088-.036.24-.09.328-.101.261-.037.324-.066.522-.054.55.03.911.202.968.429.056.224-.15.644-.642.927-.358.201-.623.367-1.271.483-.116.025-.69.141-.841.111-.06-.016-1.321.064-2.546-.337a5.354 5.354 0 0 1-1.588-.81c-.4-.306-.638-.59-.679-.637-.363-.376-.687-.964-.843-1.53-.163-.569-.145-1.1-.153-1.338a.504.504 0 0 1 .297-.491.626.626 0 0 1 .466-.024"/>
        <path fill="#AAE4FF" d="M222.594 115.677a18.583 18.583 0 0 1-9.597 7.312c3.416.002 6.807-1.48 9.126-3.988.525-.566 1.015-1.226 1.101-1.994.086-.768-.378-1.642-1.142-1.759M212.413 75.277c.084 3.664 1.68 7.093 3.499 10.25 1.819 3.16 3.907 6.2 5.135 9.634.572 1.602.95 3.364.463 5.015-.777 2.634-3.454 4.215-5.902 5.526l-7.16 3.836c-.908.486-1.914.988-2.914.79-1.081-.213-1.807-1.173-2.432-2.065-2.256-3.222-4.551-6.524-5.58-10.327-1.319-4.875-.345-10.353 2.591-14.572 2.937-4.22 7.782-7.106 12.89-7.678"/>
        <path fill="#2E5488" d="M197.085 93.448c-.16-.002-.287-.122-.345-1.175-.002-.262.003-.583.016-.976.043-.389.064-.855.162-1.392.17-1.08.498-2.49 1.265-4.203.371-.866 1.002-2.042 1.874-3.258a20.165 20.165 0 0 1 3.22-3.506c2.445-2.104 5.127-3.467 6.16-3.858 2.03-.8 3.986-1.447 6.104-1.786.844-.136 1.693-.231 2.541-.277 3.418-.215 6.827.324 9.728 1.378.788.294 2.49.903 4.593 2.247 1.037.688 2.2 1.513 3.332 2.601a21.206 21.206 0 0 1 3.245 3.937 18.776 18.776 0 0 1 2.323 5.313c.515 1.968.72 4.09.596 6.236-.238 4.294-1.797 8.672-4.41 12.265-1.3 1.798-2.86 3.4-4.584 4.72a24.291 24.291 0 0 1-5.477 3.147c-3.789 1.577-7.669 2.031-10.95 1.786-3.285-.286-5.979-1.298-7.68-2.284-1.733-.957-2.64-1.734-2.772-1.817-.26-.18-.55-.41-.85-.666-.306-.252-.634-.52-.934-.813-.624-.563-1.182-1.179-1.584-1.617a27.801 27.801 0 0 1-2.279-3.035 23.97 23.97 0 0 1-3.023-6.916 16.045 16.045 0 0 1-.553-3.298c-.095-1.814.141-2.756.282-2.753.168 0 .297.956.715 2.633.217.839.506 1.849.974 3a30.495 30.495 0 0 0 1.79 3.838c1.127 1.99 2.296 3.608 3.868 5.292.787.84 1.698 1.677 2.793 2.53 1.1.845 2.406 1.698 4.034 2.405l.644.25c.273.11.6.24.98.336.747.236 1.67.441 2.612.577 1.888.278 3.85.195 4.615.121l.828-.067c.447-.076 1.066-.144 1.816-.305a21.7 21.7 0 0 0 5.783-2.053l.843-.454c.286-.154.557-.344.844-.52.58-.339 1.122-.771 1.698-1.187 1.1-.894 2.205-1.91 3.183-3.111.975-1.2 1.861-2.54 2.601-3.99a21.65 21.65 0 0 0 1.685-4.628c.384-1.608.598-3.264.573-4.897a18.206 18.206 0 0 0-.686-4.73 16.073 16.073 0 0 0-1.816-4.126c-.763-1.23-1.606-2.342-2.525-3.254l-.331-.348-.349-.319-.676-.618c-.475-.364-.904-.746-1.356-1.048a20.903 20.903 0 0 0-2.454-1.508c-.37-.184-.705-.362-1.013-.506-.313-.132-.59-.25-.83-.35-.474-.213-.814-.31-.965-.366-2.503-.888-5.537-1.382-8.658-1.212-3.116.155-6.291.955-9.002 2.286a26.118 26.118 0 0 0-3.756 2.233 20.375 20.375 0 0 0-2.91 2.522 16.49 16.49 0 0 0-3.039 4.439c-.962 2.102-1.46 3.891-1.802 5.149-.328 1.26-.532 1.988-.711 1.986"/>
        <path fill="#2E5488" d="M212.504 75.69c.12-.021.218.003.36.316.14.312.325.913.693 2.02.186.556.548 1.553.932 2.469.381.918.78 1.757.893 2.075.218.64.553 1.184.86 1.768.12.235.247.465.375.695.51.924 1.075 1.814 1.6 2.633.273.457 1.26 1.868 2.41 3.939.564 1.043 1.157 2.248 1.564 3.646.41 1.382.604 2.907.493 4.426-.117 1.513-.58 3.037-1.424 4.239-.827 1.223-1.97 2.032-2.958 2.541-.999.516-1.868.797-2.481.993l-1.033.306c-.39.126-1.04.316-1.403.406-1.064.266-1.315.356-2.054.545-2.021.52-3.035 1.129-3.2.935-.069-.086.075-.406.514-.845.437-.435 1.19-.966 2.228-1.408.75-.32 1.411-.556 2.18-.802.768-.248 1.647-.478 2.784-.865.205-.072.797-.29 1.356-.562.564-.266 1.076-.602 1.28-.728.079-.074 1.058-.61 1.819-1.966.788-1.328 1.134-3.524.733-5.664-.353-2.142-1.426-4.162-2.305-5.681-.895-1.52-1.593-2.59-1.706-2.78a46.136 46.136 0 0 1-1.575-2.605 32.326 32.326 0 0 1-1.42-2.918c-.824-1.931-1.333-3.7-1.573-4.477-.488-1.565-.177-2.616.058-2.65M197.074 96.926c.001.248-.19.357-2.881.539-.677.046-1.898.138-3.038.246-1.142.105-2.2.234-2.587.245-.774.019-1.486.173-2.23.295-.296.05-.593.096-.885.157a25.608 25.608 0 0 0-3.34.858c-.547.191-2.379.778-4.505 2.11a16.762 16.762 0 0 0-3.176 2.589c-.986 1.07-1.869 2.328-2.437 3.715a12.572 12.572 0 0 0-.953 4.256c-.073 1.395.088 2.7.349 3.785.532 2.178 1.365 3.493 1.4 3.587.22.372.623.984.853 1.323.675.997.898 1.213 1.422 1.902 1.5 1.866 2.53 2.829 2.37 3.036-.066.088-.444 0-1.049-.324-.604-.324-1.441-.887-2.357-1.778a16.455 16.455 0 0 1-1.77-2.011 14.181 14.181 0 0 1-1.735-3.092 16.595 16.595 0 0 1-.625-1.775c-.219-.783-.354-1.598-.377-1.922-.001-.153-.245-1.603.004-3.688.122-1.038.388-2.229.861-3.433.46-1.208 1.16-2.413 2.007-3.485 1.695-2.167 3.982-3.734 5.838-4.674 1.861-.958 3.291-1.366 3.53-1.456 2.014-.682 4.67-1.157 7.038-1.35 2.368-.205 4.44-.217 5.353-.27 1.829-.096 2.92.373 2.92.615"/>
        <path fill="#2E5488" d="M197.19 93.576c-.023.12-.085.202-.467.22-.383.016-1.088-.03-2.4-.087a43.521 43.521 0 0 0-2.972-.012c-1.12.031-2.164.109-2.544.103-.762-.017-1.47.104-2.209.193-.295.032-.59.072-.883.113-1.178.164-2.33.398-3.4.627l-1.786.376c-.874.176-2.006.399-3.335.547-1.323.14-2.879.197-4.48-.092-1.593-.28-3.26-.879-4.65-1.955-.166-.127-.35-.293-.49-.407a1.138 1.138 0 0 0-.955-.263 1.126 1.126 0 0 0-.598.32 6.748 6.748 0 0 0-2.073 3.957c-.143 1.032-.01 1.897.169 2.48.176.59.36.918.381.963.186.35.566.907.814 1.193.342.436.608.667.836.876.234.2.436.382.762.614.89.666 1.727.98 2.3 1.199.29.11.52.185.677.25.157.068.24.133.24.191 0 .058-.088.119-.263.177a2.56 2.56 0 0 1-.787.123c-.686.016-1.753-.113-2.911-.761a7.812 7.812 0 0 1-2.163-1.73c-.64-.745-1.3-1.748-1.625-3.32a7.468 7.468 0 0 1-.125-1.97c.053-.85.293-1.678.419-1.99.08-.125.488-1.649 2.04-3.194l.303-.284a2.712 2.712 0 0 1 2.674-.524c.19.064.372.156.546.262.084.06.173.112.25.18l.203.172c.802.734 1.866 1.308 3.02 1.67 1.153.364 2.387.524 3.55.527 1.174.002 2.291-.125 3.266-.275 1.948-.313 3.347-.637 3.592-.678a45.597 45.597 0 0 1 3.361-.61 37.672 37.672 0 0 1 3.622-.32c2.35-.1 4.406.067 5.315.12 1.83.105 2.823.788 2.775 1.019M209.913 117.245c-.075.106-.184.114-.732-.105a6.931 6.931 0 0 0-1.265-.357 7.257 7.257 0 0 0-2.414-.004 9.704 9.704 0 0 0-2.014.547c-.776.29-1.595.743-2.383 1.23-1.558.989-3.015 2.078-3.6 2.398-1.143.663-2.232 1.366-3.478 1.87a17.86 17.86 0 0 1-1.503.545 18.511 18.511 0 0 1-6.088.833c-.529.007-1.656-.135-3.05-.23-.698-.035-1.46-.027-2.227.178-.761.202-1.501.61-1.916 1.31-.429.694-.566 1.697-.323 2.675.117.49.313.967.607 1.395.298.443.67.855 1.108 1.22.87.739 1.973 1.296 3.146 1.737 1.181.437 2.42.764 3.673.967 2.507.41 5.064.318 7.367-.155 2.303-.484 4.35-1.32 5.956-2.289a19.682 19.682 0 0 0 3.642-2.756c.807-.787 1.24-1.312 1.303-1.376.457-.559 1.195-1.533 1.56-2.112.562-.828.858-1.383 1.121-1.872.138-.242.25-.477.372-.729.126-.25.263-.517.404-.846.212-.447.38-.883.542-1.293.168-.412.29-.78.365-1.112.074-.331.092-.622.056-.872a1.218 1.218 0 0 0-.234-.599 1.313 1.313 0 0 0-.755-.517c-.208-.042-.347-.022-.375-.079-.025-.042.055-.193.358-.29.294-.087.832-.045 1.325.375.243.194.482.53.596.907.125.378.16.814.123 1.254-.037.44-.133.89-.261 1.336-.126.45-.263.929-.45 1.419a20.018 20.018 0 0 1-1.938 3.944c-.837 1.31-1.94 2.748-3.782 4.377-.343.284-1.323 1.14-2.44 1.844-1.105.722-2.315 1.31-2.807 1.501-.117.05-.717.313-1.707.646a21.11 21.11 0 0 1-4.066.933c-3.35.468-7.932.136-11.994-1.863-1.008-.516-1.984-1.173-2.771-2.04-.79-.849-1.362-1.963-1.533-3.088-.186-1.122-.035-2.299.518-3.263a4.064 4.064 0 0 1 1.057-1.21 4.837 4.837 0 0 1 1.303-.693c.882-.312 1.737-.382 2.475-.378.74.005 1.376.074 1.91.126 1.065.118 1.728.142 1.933.147a17.32 17.32 0 0 0 5.418-.749 16.76 16.76 0 0 0 2.72-1.095c.872-.443 1.707-.965 2.512-1.493 1.604-1.063 3.137-2.111 4.562-2.784 1.43-.692 2.704-.96 3.487-1.072 1.58-.235 2.912.133 3.656.605.76.468.996.919.93 1.002"/>
        <path fill="#2E5488" d="M217.564 115.47c.214.118.309.199.203.7-.053.248-.265.895-.407.972-.13.081-.167.222-.258.33l-.108.13c-.144.174-.303.328-.439.479-.15.159-1.019 1.016-2.018 1.616-.49.313-1.002.563-1.393.74-.394.172-.666.27-.684.28-.07.046-.196.113-.271.134-.226.05-.279.08-.451.073-.48-.028-.774-.232-.822-.457-.05-.23.105-.624.428-.88.236-.19.396-.343.802-.507.073-.035.412-.214.51-.228.048-.002.804-.276 1.51-.703a8.335 8.335 0 0 0 1.404-1.031c.468-.464 1.13-1.255 1.21-1.548.077-.285.567-.213.784-.1M223.673 116.224c.227.087.328.166.185.918a9.19 9.19 0 0 1-.244.83c-.112.306-.255.579-.336.657-.161.158-.236.355-.365.53l-.155.206c-.202.281-.442.522-.64.76-.223.248-1.53 1.599-3.123 2.412-.775.436-1.598.737-2.224.933-.631.189-1.068.272-1.099.279-.12.042-.327.105-.446.121-.354.026-.442.048-.697.02-.707-.098-1.082-.367-1.078-.592.003-.239.368-.586.942-.795.21-.085.388-.154.597-.224.206-.084.446-.147.776-.23.119-.039.684-.22.828-.25.071-.003 1.278-.335 2.382-.986.557-.31 1.072-.698 1.463-1.01.372-.333.643-.57.676-.622.338-.382.768-.874 1.081-1.362.333-.476.542-.942.611-1.155.1-.436.634-.52.866-.44"/>
        <path fill="#2E5488" d="M210.418 120.373c.069-.1.152-.153.504.01.339.168.994.548 1.81 1.645.42.541 1.02 1.654 1.28 2.816.29 1.153.22 2.304.112 2.698-.185.792-.342 1.557-.726 2.282a7.798 7.798 0 0 1-.489.82c-.719 1.053-1.63 1.874-2.482 2.533-.468.381-2.01 1.441-4.135 2.641a59.295 59.295 0 0 1-7.673 3.654c-1.391.54-2.8 1.055-4.203 1.38-1.395.331-2.786.434-3.979.286a8.268 8.268 0 0 1-2.799-.866c-.325-.158-.565-.316-.739-.426a5.27 5.27 0 0 1-.3-.193c-.385-.25-1.003-.733-1.292-1.061-.443-.461-.679-.788-.886-1.075a6.306 6.306 0 0 1-.558-.967c-.544-1.137-.679-2.13-.664-2.786.01-.66.144-.996.25-.998.126-.005.265.327.495.885.224.558.557 1.347 1.141 2.227a8.11 8.11 0 0 0 1.425 1.646c.573.497 1.262 1.06 2.348 1.512a6.28 6.28 0 0 0 1.393.4c.617.114 1.271.115 1.53.121.122.005 1.286.025 2.991-.432 1.698-.45 3.949-1.291 6.128-2.238a57.259 57.259 0 0 0 5.915-3.012c1.62-.933 2.663-1.694 2.836-1.838.728-.568 1.504-1.274 2.104-2.132a6.17 6.17 0 0 0 1.081-2.873 6.958 6.958 0 0 0-.279-2.725c-.24-.76-.56-1.323-.787-1.639-.45-.633-.816-1.127-1.058-1.522-.251-.377-.364-.668-.294-.773M179.097 102.17c.132.205.165.33-.173.747-.172.212-.594.764-.743.811-.155.042-.223.18-.335.272l-.135.11c-.182.144-.35.298-.509.434-.168.153-1.104.988-1.866 1.924-.39.46-.736.94-.989 1.308-.25.369-.405.626-.41.648a1.338 1.338 0 0 1-.134.283c-.133.197-.15.255-.283.377-.361.336-.711.467-.923.364-.207-.1-.403-.51-.303-1.03.074-.374.124-.66.434-1.163.059-.088.304-.545.413-.624.05-.04.718-.875 1.48-1.625.751-.762 1.595-1.427 1.67-1.494.618-.577 1.713-1.28 1.976-1.545.268-.27.7-.005.83.203M168.015 106.194c.08.233-.036.392-2.122 1.281l-2.349 1.025c-.88.39-1.691.772-2 .874-.619.206-1.148.515-1.714.797l-.674.342c-.897.47-1.746.975-2.492 1.482-.401.28-1.75 1.163-3.216 2.665-.723.757-1.478 1.663-2.107 2.713a12.353 12.353 0 0 0-1.446 3.448c-.31 1.22-.417 2.476-.313 3.622a8.95 8.95 0 0 0 .769 3.005c.772 1.649 1.771 2.457 1.813 2.519.261.233.735.584 1 .776.394.277.655.43.89.554.23.139.444.225.747.39 1.726.806 2.91.803 2.925 1.08.01.107-.273.29-.86.408-.583.126-1.484.13-2.563-.185a8.778 8.778 0 0 1-2.128-.98c-.696-.449-1.456-1.058-2.253-2.103a9.442 9.442 0 0 1-.887-1.375c-.332-.629-.57-1.305-.633-1.577-.013-.13-.438-1.338-.44-3.128-.007-.89.093-1.914.338-2.973.242-1.06.645-2.147 1.166-3.174 1.045-2.063 2.609-3.78 3.93-4.931 1.328-1.155 2.383-1.815 2.56-1.938 1.471-1.008 3.492-2.035 5.336-2.794 1.843-.77 3.489-1.333 4.2-1.625 1.427-.576 2.445-.429 2.523-.198"/>
        <path fill="#2E5488" d="M170.463 120.274c.129.223-.06.416-2.968 2.271-.723.475-2.011 1.348-3.119 2.276-1.119.917-2.063 1.885-2.431 2.212-.74.654-1.294 1.373-1.866 2.134-.217.31-.448.61-.646.93a14.995 14.995 0 0 0-1.848 3.908c-.095.353-.327 1.101-.443 2.167-.048.532-.094 1.141-.043 1.808.004.337.07.672.112 1.028.081.35.14.717.269 1.083a9.352 9.352 0 0 0 2.707 4.242 7.608 7.608 0 0 0 2.316 1.428c.842.32 1.804.497 2.643.407.866-.106 1.73-.448 2.357-.97.632-.53.946-1.205.88-1.876-.058-.698-.543-1.508-.768-2.543a3.57 3.57 0 0 1-.071-.837c.024-.293.072-.588.186-.859.213-.55.602-.975.98-1.26.772-.574 1.512-.791 2.128-.997l1.555-.482 1.464-.458c.552-.19 1.492-.504 2.023-.662 1.556-.462 1.946-.597 3.07-.886 3.101-.798 4.897-1.085 4.967-.862.068.22-1.574 1.102-4.556 2.194-2.16.792-3.747 1.385-7.26 2.48-.315.113-1.287.36-1.99.737-.354.192-.621.42-.74.618a1.145 1.145 0 0 0-.182.498c0 .06-.056.328.174 1.008.107.338.29.769.457 1.348.17.568.257 1.394-.003 2.178-.115.397-.331.76-.574 1.106a4.776 4.776 0 0 1-.901.883c-.676.515-1.48.867-2.349 1.057a5.765 5.765 0 0 1-1.35.14 4.223 4.223 0 0 1-.682-.054c-.222-.035-.45-.043-.669-.104-.892-.17-1.744-.533-2.53-.982a9.166 9.166 0 0 1-2.1-1.67 10.203 10.203 0 0 1-1.548-2.074c-.86-1.453-1.271-3.022-1.405-4.4-.203-2.767.528-4.631.588-4.945a16.427 16.427 0 0 1 1.956-4.096c.866-1.348 1.97-2.598 3.081-3.653 2.217-2.153 4.559-3.542 5.545-4.176 2.006-1.26 3.469-1.5 3.584-1.295"/>
        <path fill="#2E5488" d="M151.225 130.48c.162.185.186.315-.291.948a27.4 27.4 0 0 0-.507.704c-.182.26-.328.496-.412.557-.172.122-.224.313-.32.472a2.768 2.768 0 0 0-.108.195 2.61 2.61 0 0 0-.268.758c-.024.126-.114.595.034 1.104.08.25.21.483.427.67.218.19.542.342.924.438.377.1.812.148 1.216.177.404.028.782.029 1.106.016a8.347 8.347 0 0 0 1.11-.113 3.8 3.8 0 0 1 .44-.113c.342-.05.424-.085.677-.095.7-.027 1.162.048 1.25.27.086.209-.175.717-.88 1.075-.51.25-.901.45-1.805.56-.163.026-.956.112-1.153.069-.046-.012-.483-.022-1.106-.106-.608-.09-1.483-.212-2.314-.727a2.888 2.888 0 0 1-.995-1.048 3.116 3.116 0 0 1-.364-1.185c-.067-.718.078-1.194.085-1.278.065-.343.197-.727.39-1.085.188-.353.421-.686.662-.972.482-.572.957-.984 1.136-1.198.363-.426.908-.28 1.066-.094M157.495 143.728c.028.12.02.213-.127.341-.14.136-.447.292-.843.733-.2.219-.49.67-.576 1.122-.104.455-.044.887-.053 1.041-.023.322.128.594.273.847.057.107.128.206.199.305.302.39.737.7 1.19.914.243.117 1.078.491 2.379.559 1.285.102 2.931-.123 4.515-.596 1.579-.461 3.133-1.116 4.263-1.6.539-.238.916-.48 1.126-.666.216-.186.273-.306.288-.32.074-.135.117-.336.128-.454.024-.346-.048-.44-.173-.763-.215-.46-.542-.859-.727-1.153-.196-.297-.28-.503-.212-.599.067-.093.307-.108.681.01.367.128.897.355 1.42.971.361.444.65 1.019.607 1.742-.02.354-.13.746-.351 1.108-.218.365-.537.677-.913.951-.135.1-.535.37-.94.564a7.67 7.67 0 0 1-.956.406l-1.79.65c-1.024.357-2.4.786-3.843 1.025-1.441.247-2.944.245-4.085.043-1.16-.19-1.925-.597-2.057-.659-.547-.264-1.15-.675-1.614-1.27a3.653 3.653 0 0 1-.765-2.086 3.72 3.72 0 0 1 .422-1.911 4.32 4.32 0 0 1 .795-1.041c.404-.407.882-.528 1.203-.503.328.024.51.173.536.29"/>
        <path fill="#2E5488" d="M171.569 149.115c.102.217.09.372-.942 1.009-.516.324-1.922 1.098-2.278 1.155-.349.07-.64.236-.966.352l-.391.131a50.26 50.26 0 0 1-1.52.475c-.261.075-1.104.325-2.242.59-1.145.25-2.534.592-4.063.688-.762.039-1.54-.007-2.273-.196a5.538 5.538 0 0 1-1.87-.861c-1.026-.736-1.366-1.626-1.4-1.674a3.018 3.018 0 0 1-.294-.88c-.064-.701-.043-.89.098-1.374.224-.667.631-1.087.951-1.267.326-.184.548-.162.609-.074.072.099.015.305-.052.581a4.843 4.843 0 0 0-.145 1.053c-.003.307.043.57.132.852.097.287.208.562.507.934a2.6 2.6 0 0 0 .432.408c.205.162.445.295.534.363.04.028.463.304 1.19.469.732.175 1.786.173 2.884.014a40.263 40.263 0 0 0 4.648-.957c.86-.255 1.953-.595 2.91-.944.957-.345 1.778-.698 2.124-.89.687-.387 1.308-.18 1.417.043"/>
        <path fill="#FFF" d="M191.86 135.918c.162-.015.244-.01.37.18.064.095.219.346.185.408s.013.113.018.17l.006.068c.007.092.014.182.022.264.017.18.141 1.971.157 2.003a.33.33 0 0 1 .033.12c-.004.095.006.118-.025.188-.088.194-.25.314-.405.33a.633.633 0 0 1-.521-.24c-.089-.125-.162-.216-.184-.427-.004-.039-.047-.22-.026-.269.02-.046.063-1.548.056-1.623-.03-.307-.017-.786-.081-.916-.065-.13.233-.24.395-.256M187.741 136.75c.14-.085.21-.126.314-.16.053-.017.181-.057.151-.03-.03.027.009.011.012.018l.004.007c.005.01.008.022.014.03.012.02.086.235.098.232.013-.002.028-.003.026.002-.005.017.004.015-.025.042-.078.075-.219.175-.352.256a3.16 3.16 0 0 1-.442.227c-.074.026-.135.049-.15.027-.003-.004-.037-.01-.018-.029a1.38 1.38 0 0 0 .078-.28c-.02-.033 0-.114-.053-.102-.053.012.204-.155.343-.24"/>
        <path fill="#2E5488" d="M216.182 117.961c.184-.16.295-.221.577-.153.147.036.505.092.521.175.015.092.108.078.161.117l.065.047c.086.066.18.118.26.171.09.052.596.358 1.15.495.273.079.55.115.757.133.209.015.349.011.358.005a.304.304 0 0 1 .144-.036c.11.01.136-.007.222.043.233.13.42.354.47.584.05.223-.029.605-.305.8-.197.138-.355.25-.707.252-.063-.002-.374.03-.445-.022-.035-.02-.66-.155-1.226-.419-.574-.248-1.069-.62-1.117-.649-.43-.232-.933-.783-1.128-.883-.205-.107.054-.503.243-.66M214.105 120.047c.209-.127.33-.167.585-.072.134.05.46.129.462.208-.002.089.088.08.133.12l.054.05c.069.067.151.12.22.175.076.052.518.37 1.027.501.5.154 1.004.124 1.017.108.034-.022.092-.047.126-.043.1.003.122-.015.203.03.221.113.425.319.5.542.074.216.042.604-.22.823-.187.154-.34.277-.697.297-.063 0-.377.045-.45-.007-.035-.018-.67-.14-1.225-.421-.567-.261-1.028-.67-1.074-.704-.41-.262-.838-.872-1.012-1.003-.186-.14.138-.484.351-.604M209.473 78.67c.055.239.058.365-.138.58-.102.11-.334.393-.416.364-.087-.033-.123.053-.186.079l-.074.03c-.102.04-.197.09-.285.13-.094.05-.625.308-1.065.672-.224.174-.422.37-.566.523-.143.154-.23.266-.232.277a.309.309 0 0 1-.064.134c-.08.08-.085.11-.179.143-.252.094-.543.08-.746-.037-.2-.113-.434-.421-.41-.742.018-.23.03-.413.236-.671.04-.045.196-.292.277-.314.037-.013.502-.395 1.017-.684.51-.303 1.06-.505 1.11-.529.406-.22 1.1-.366 1.271-.487.18-.125.4.293.45.533"/>
        <path fill="#FFF" d="M217.832 96.794c.726.55 1.071 1.556.836 2.436-.209.785-.825 1.411-1.53 1.815-.705.403-1.502.614-2.288.82a12.296 12.296 0 0 0 2.736-5.331"/>
        <path fill="#2E5488" d="M217.899 96.706c.074-.097.138-.163.285-.147.144.02.387.118.71.464.16.171.423.526.561.925.15.393.176.81.129.954-.082.284-.083.571-.183.839-.038.107-.086.209-.134.31-.202.4-.47.735-.737.997l-.082.08-.156.138c-.155.127-.351.28-.587.422-.472.294-1.072.534-1.677.713-1.14.315-2.82.75-3.431.86.869-1.025 1.697-1.966 2.222-2.645l.354-.484.27-.43a7.05 7.05 0 0 0 .239-.399c.05-.09.096-.178.14-.26.237-.457.352-.738.359-.762.028-.113.084-.3.128-.399.134-.29.143-.372.271-.57.343-.55.668-.855.898-.802.223.048.494.511.43 1.232-.054.517-.09.914-.435 1.666-.035.067-.118.269-.22.466-.036.073-.013.03-.02.043h-.019c-.017.005-.036-.005-.194.155l-.135.122c-.017.018-.075.065-.064.068 0 .01.002.02.008.028.02.035.092.055.191.046a.858.858 0 0 0 .316-.1.977.977 0 0 0 .12-.076c.065-.051.105-.09.12-.105.34-.328.656-.838.67-1.333.03-.504-.182-.94-.322-1.07-.135-.139-.158-.306-.153-.485.008-.176.054-.362.128-.461M239.798 87.69c-.025.244-.114.358-1.153.425l-1.174.096c-.441.034-.853.07-1.001.035-.298-.068-.579.005-.871.01l-.35.006c-.469.004-.928.044-1.348.064-.457.034-2.98.218-5.341.806-1.184.269-2.32.628-3.17.92-.848.296-1.407.527-1.444.55a5.228 5.228 0 0 1-.568.267c-.444.178-.549.24-.884.33-.92.26-1.515.284-1.626.074-.106-.2.218-.777 1.036-1.338.594-.401 1.036-.704 2.097-1.122.195-.069 1.113-.46 1.362-.487.118-.022 2.099-.605 4.147-.929 2.042-.359 4.13-.434 4.327-.447.816-.054 1.86-.079 2.786-.048.927.013 1.736.082 2.098.062.726-.012 1.106.483 1.077.727M169.244 106.492c.166.054.178.159-.042 1.408-.05.316-.13.887-.18 1.425-.052.537-.083 1.04-.115 1.222-.078.36-.046.707-.063 1.066l-.005.429c-.008.574.024 1.139.068 1.653.026.28.104 1.194.376 2.378.273 1.183.761 2.627 1.452 3.946a17.393 17.393 0 0 0 2.264 3.347c.72.836 1.279 1.33 1.314 1.367.163.135.443.36.59.496l.879.75c.87.77 1.37 1.231 1.287 1.374-.07.126-.8.006-1.842-.628-.742-.47-1.308-.817-2.304-1.823-.185-.178-1.034-1.079-1.19-1.344-.083-.111-1.677-2.155-2.573-4.58a18.178 18.178 0 0 1-.95-3.433 19.922 19.922 0 0 1-.22-1.811 18.1 18.1 0 0 1 .038-3.445c.114-1.143.345-2.124.424-2.562.166-.882.647-1.288.792-1.235M180.382 134.88c.21-.125.335-.156.694.111.185.137.667.445.702.569.028.133.153.173.232.26l.095.103c.124.141.263.265.382.385.135.122.885.82 1.76 1.277.426.242.874.422 1.215.544.343.119.579.178.597.175a.865.865 0 0 1 .252.031c.185.056.235.052.36.134.347.216.55.492.529.727-.018.228-.294.562-.763.647-.336.058-.597.104-1.105-.035-.09-.03-.544-.124-.633-.208-.046-.035-.913-.436-1.674-.996-.775-.542-1.418-1.234-1.482-1.294-.561-.49-1.19-1.442-1.424-1.672-.241-.237.05-.637.263-.757M156.907 113.816c.157.044.23.09.274.348.023.134.102.458.06.52-.05.064-.01.133-.016.2l-.005.08c-.01.107-.006.214-.008.311.003.104.011.694.176 1.236.071.273.179.53.266.717.09.188.163.308.172.314a.428.428 0 0 1 .092.114c.051.098.074.115.088.202.042.237-.004.449-.124.55-.115.1-.39.145-.632-.008-.173-.112-.308-.198-.464-.47-.025-.05-.179-.28-.178-.354-.003-.034-.191-.57-.264-1.125-.086-.554-.05-1.112-.05-1.164-.022-.44.137-1.096.135-1.291-.001-.202.322-.229.478-.18M154.223 115.501c.152-.058.233-.074.41.09.09.082.313.301.298.374-.014.073.046.113.068.171l.026.07c.033.092.066.183.098.266.069.181.713 2 .738 2.03.024.03.058.082.067.116.023.098.04.12.03.2-.028.223-.149.39-.294.445a.624.624 0 0 1-.575-.113c-.122-.105-.219-.18-.302-.393-.015-.04-.11-.216-.104-.27.006-.054-.392-1.618-.42-1.693-.119-.31-.247-.809-.348-.926-.1-.117.156-.309.308-.367M162.761 127.792c.153.07.197.133.163.527-.023.202-.003.704-.046.804-.056.101-.02.208-.03.313l-.005.126c-.008.17 0 .336.013.488.002.161.119 1.095.637 1.817.247.364.556.675.816.875.257.203.453.307.466.314.061.021.162.057.21.09.153.084.194.097.297.176.28.222.446.429.41.584-.03.147-.313.337-.75.282-.311-.046-.56-.079-.984-.351-.078-.047-.449-.288-.509-.385-.031-.037-.705-.676-1.072-1.514-.399-.826-.433-1.737-.437-1.816a4.648 4.648 0 0 1 .056-1.183c.065-.39.175-.718.201-.872.057-.314.424-.349.564-.275M160.74 130.053c.163.004.245.028.353.245.056.113.214.375.189.44-.032.068.023.117.036.177l.015.07c.017.097.048.188.07.273.03.09.186.601.477 1.025a3.7 3.7 0 0 0 .43.544c.132.135.23.217.24.22.034.014.09.042.112.068.073.069.098.076.133.15.102.197.121.405.044.543-.074.133-.31.273-.576.218-.19-.04-.34-.072-.563-.268-.037-.037-.245-.195-.265-.263-.012-.03-.338-.456-.554-.936-.231-.473-.342-.986-.355-1.032-.137-.39-.153-1.023-.203-1.198-.052-.184.254-.284.417-.276M199.067 104.3c.006.162-.036.246-.639.381-.305.07-1.087.273-1.265.26-.18-.023-.34.043-.51.067l-.206.029c-.275.035-.542.088-.788.129-.267.05-1.737.32-3.1.785-.683.219-1.338.48-1.827.688-.488.21-.81.368-.83.383a2.756 2.756 0 0 1-.325.18c-.257.12-.316.161-.513.221-.54.173-.901.188-.982.052-.078-.13.084-.502.543-.87.332-.265.578-.465 1.187-.753.112-.048.636-.318.782-.343.07-.017 1.212-.44 2.399-.738 1.183-.314 2.403-.491 2.518-.512.95-.192 2.445-.276 2.865-.345.423-.072.688.223.691.386"/>
        <path fill="#AAE4FF" d="M179.478 113.686c-.917-1.031-.755-2.694-.002-3.852 1.314-2.022 3.824-3.293 6.233-3.417l-.175-.313c-2.642-.164-5.595 1.16-7.062 3.417-.752 1.158-.914 2.82.003 3.851.458.516 1.106.794 1.795.91a2.582 2.582 0 0 1-.792-.596"/>
        <path fill="#2E5488" d="M185.53 106.501c-.005.081-.032.142-.21.191-.178.051-.51.078-1.111.205-.303.06-.843.2-1.328.394-.489.18-.919.404-1.087.458-.333.12-.605.317-.893.502l-.339.23a6.92 6.92 0 0 0-1.349 1.297l-.285.404c-.194.304-.4.743-.484 1.27-.09.52-.042 1.134.254 1.618.283.49.841.83 1.49.968.65.145 1.357.108 1.995-.018a5.98 5.98 0 0 0 1.667-.587c.921-.491 1.377-1.038 1.413-1.065.125-.152.33-.414.435-.562.31-.441.357-.575.548-.915.498-.964.634-1.625.805-1.613.074.004.17.178.215.516.043.336.032.843-.16 1.451a5.077 5.077 0 0 1-.561 1.219 5.207 5.207 0 0 1-1.198 1.297 6.86 6.86 0 0 1-.763.528 5.06 5.06 0 0 1-.868.414c-.073.018-.735.304-1.753.424a5.948 5.948 0 0 1-1.748-.037c-.634-.112-1.33-.376-1.871-.89-.55-.507-.837-1.243-.889-1.905-.06-.669.075-1.28.263-1.777.183-.498.449-.887.644-1.139.188-.267.344-.414.379-.467.343-.393.774-.8 1.265-1.154a8.99 8.99 0 0 1 1.568-.893c1.065-.483 2.084-.65 2.529-.73.91-.159 1.448.214 1.427.366"/>
        <path fill="#CAF1FF" d="M90.294 112.38c0 24.344-19.744 44.078-44.1 44.078-24.355 0-44.1-19.734-44.1-44.078s19.745-44.078 44.1-44.078c24.356 0 44.1 19.734 44.1 44.078"/>
        <path fill="#FFF" d="M15.467 98.146c1.636 1.27 3.77 1.682 5.828 1.911 9.827 1.094 20.402-.991 29.202 3.514 1.185.605 2.348 1.357 3.073 2.472 1.39 2.137.785 5.085-.686 7.168-1.471 2.082-3.648 3.532-5.667 5.09a51.822 51.822 0 0 0-10.037 10.255c-2.076 2.815-3.94 6.252-3.141 9.657.803 3.428 4.163 5.752 7.598 6.53 4.558 1.031 9.317-.088 13.76-1.536 9.794-3.191 19.293-8.043 29.123-10.8a43.863 43.863 0 0 0 5.14-20.662c0-24.344-19.746-44.078-44.102-44.078-11.832 0-22.575 4.657-30.495 12.238a51.585 51.585 0 0 0-1.842 5.873c-1.071 4.31-1.263 9.643 2.246 12.368"/>
        <path fill="#2E5488" d="M90.441 112.38c.161 0 .284.253.328 2.39l-.07 1.98a49.601 49.601 0 0 1-.293 2.826l-.278 1.771-.424 2.023c-.168.717-.385 1.472-.597 2.283-.257.796-.51 1.651-.834 2.538-.635 1.793-1.687 4.263-3.174 6.886-1.486 2.621-3.422 5.384-5.611 7.8a45.152 45.152 0 0 1-6.686 6.066c-2.102 1.575-3.94 2.582-4.908 3.117-1.973 1.011-3.923 1.917-5.927 2.675-2.01.732-4.043 1.393-6.179 1.835-.845.2-1.707.32-2.56.481-.858.12-1.718.231-2.577.325-6.942.675-13.88-.315-19.765-2.447-.408-.134-.912-.352-1.527-.588-.62-.229-1.32-.55-2.117-.913-.807-.341-1.66-.825-2.622-1.306-.931-.537-1.958-1.102-3.005-1.803-4.208-2.728-9.22-7.015-13.254-13.197-4.065-6.117-6.986-14.174-7.322-22.865-.1-2.168 0-4.364.2-6.567.243-2.2.636-4.4 1.178-6.575a49.567 49.567 0 0 1 2.169-6.383 48.297 48.297 0 0 1 3.108-5.997 45.584 45.584 0 0 1 8.59-10.185 45.298 45.298 0 0 1 10.717-7.043c1.881-.896 3.805-1.602 5.706-2.224 1.92-.562 3.815-1.067 5.697-1.363.935-.187 1.87-.278 2.787-.4.918-.107 1.83-.15 2.722-.222.895-.015 1.775-.062 2.64-.048.863.035 1.714.016 2.542.095 3.321.214 6.34.775 8.968 1.488.652.193 1.294.35 1.898.557l1.75.593c1.103.437 2.13.819 3.03 1.25a42.362 42.362 0 0 1 4.2 2.164c.498.278.885.514 1.162.699l.525.334.873.552.948.663c.667.447 1.34.978 2.011 1.502.684.51 1.301 1.094 1.905 1.598.59.52 1.1 1.036 1.541 1.45 2.52 2.506 3.854 4.305 5.008 5.897 1.152 1.598 2.047 3.07 3.215 5.312a42.948 42.948 0 0 1 3.277 8.668c.665 2.606 1.011 4.866 1.144 6.701.095.915.11 1.727.121 2.425.006.35.016.67.01.963l-.038.794c-.056.943-.124 1.425-.202 1.425-.077 0-.177-.49-.292-1.427l-.089-.787-.139-.949c-.095-.686-.198-1.48-.374-2.367-.298-1.782-.793-3.955-1.58-6.43a46.568 46.568 0 0 0-3.49-8.16c-2.334-4.2-4.914-7.54-8.45-10.895a44.152 44.152 0 0 0-15.318-9.417l-1.422-.478c-.604-.205-1.346-.388-2.16-.624-1.644-.404-3.633-.847-5.672-1.064-4.072-.56-8.252-.243-9.88-.101l-1.757.21c-.95.154-2.258.353-3.84.738-.798.165-1.646.444-2.575.69-.908.314-1.9.602-2.913 1.022a42.199 42.199 0 0 0-6.553 3.192 42.983 42.983 0 0 0-6.844 5.088 43.943 43.943 0 0 0-6.261 7.097 42.03 42.03 0 0 0-4.808 8.878c-.658 1.593-1.165 3.258-1.637 4.938-.417 1.693-.792 3.409-1.009 5.15-.46 3.477-.54 7.02-.155 10.469a44.1 44.1 0 0 0 2.27 9.944c2.25 6.28 5.857 11.588 9.677 15.512 3.832 3.937 7.8 6.564 10.89 8.174.775.403 1.483.772 2.142 1.055.65.299 1.228.565 1.741.756l1.276.506.762.262a43.358 43.358 0 0 0 8.652 2.03c3.085.398 6.335.476 9.6.185 6.542-.554 13.082-2.788 18.514-6.08 5.444-3.304 9.728-7.614 12.637-11.654.742-1.004 1.373-2.009 1.97-2.951.553-.97 1.091-1.868 1.51-2.74a39.453 39.453 0 0 0 1.918-4.377c1.686-4.622 2.441-8.507 2.875-11.195.096-.675.19-1.273.28-1.793.08-.52.13-.961.194-1.318.12-.713.229-1.089.31-1.089"/>
        <path fill="#2E5488" d="M59.545 76.896c-.017-.162-.021-.285.125-.403.143-.105.461-.223 1.032-.117.284.052.786.23 1.178.55.406.321.652.703.687.864.068.317.238.555.313.841a5.423 5.423 0 0 1 .156 1.647c-.008.118-.022.371-.12.745a2.844 2.844 0 0 1-.802 1.361c-.49.46-1.153.694-1.751.765a4.476 4.476 0 0 1-.898.02 4.422 4.422 0 0 1-.901-.159 4.293 4.293 0 0 1-1.605-.832c-.464-.396-.84-.937-.98-1.493a2.789 2.789 0 0 1-.027-1.341c.073-.317.154-.486.159-.51.051-.192.186-.49.292-.624.306-.39.38-.472.652-.652.76-.446 1.294-.373 1.485-.142.2.245.12.874-.161 1.448a3.67 3.67 0 0 0-.306 1.02c-.02.075.066.259.068.338-.008.017.023.176.293.426.267.246.805.501 1.368.54.289.022.56-.006.755-.071a.786.786 0 0 0 .413-.283c.196-.268.232-.642.234-.689.027-.473-.049-1.183-.287-1.635-.225-.473-.612-.694-.79-.706-.172-.013-.25-.153-.356-.338-.097-.186-.206-.406-.226-.57M34.423 79.11l-.026-.088.006.024a.25.25 0 0 0 .047.08c.022.003-.089-.04-.287.058a.89.89 0 0 0-.188.125c-.02.019.036-.028.095-.145.012-.03.03-.059.039-.098v-.004l-.146.49h-.005l-.008.002-.015.002-.031.006-.139.02c-.099.02-.203.04-.303.067-.198.049-.369.099-.436.065-.137-.069-.253.028-.375.056-.05.01-.1.02-.149.034-.195.05-.394.123-.542.204-.02.01-.017 0-.046.015-.014.007-.012.021-.004.032l.013.021s-.006-.004.003.004l.046.033.091.064c.06.039.12.078.176.11.23.133.417.192.545.196a.51.51 0 0 0 .314-.073c.189-.114.23-.249.23-.249-.01-.04-.021-.092-.008-.122.04-.09.02-.118.085-.21.18-.265.277-.671.496-.892.111-.103.314-.184.577-.122.257.058.575.275.758.688.127.297.204.59.189.95-.016.354-.141.803-.503 1.24-.065.078-.257.308-.501.488-.24.184-.529.312-.654.328-.043.004-.627.209-1.354.06a3.26 3.26 0 0 1-1.046-.415c-.345-.212-.532-.359-1.01-.768-.2-.179-.4-.36-.53-.55a1.368 1.368 0 0 1-.256-.583 1.07 1.07 0 0 1 .082-.613c.074-.179.198-.326.327-.461.52-.54 1.09-.762 1.136-.8.514-.279 1.241-.456 1.893-.463.325-.007.631.027.885.064.128.022.242.038.341.06.1.022.16.014.333.077.25.096.372.25.443.42.064.17.08.37-.009.587-.044.103-.128.2-.216.232a.235.235 0 0 1-.211-.006c-.1-.066-.13-.163-.152-.24M23.507 116.957c-.037-.159-.054-.28.035-.41.09-.125.285-.27.712-.389.214-.06.621-.138 1.027-.116.404.015.794.131.904.233.22.194.486.26.722.45.089.075.179.15.259.233.33.327.578.712.751 1.093.076.2.435.921.211 1.996a2.932 2.932 0 0 1-.898 1.51 3.359 3.359 0 0 1-1.6.798 3.04 3.04 0 0 1-1.821-.19 2.74 2.74 0 0 1-1.236-1.1c-.473-.829-.429-1.447-.45-1.483a1.831 1.831 0 0 1-.02-.622c.097-.467.138-.594.337-.885.295-.398.665-.588.93-.634.281-.038.456.045.54.173.085.129.114.352.138.568l.087.657c.046.304.127.505.21.85.008.082.175.281.175.336.003.018.042.13.219.237.172.107.6.14.97-.048.183-.088.337-.216.436-.352a.92.92 0 0 0 .171-.45c.037-.325-.068-.588-.082-.626-.156-.349-.469-.73-.893-.924-.415-.203-.865-.224-1.047-.166-.183.056-.339-.052-.484-.21a1.382 1.382 0 0 1-.303-.53M65.458 123.618a1.098 1.098 0 0 1-.38.018c-.108-.015-.221-.06-.354-.045a.58.58 0 0 0-.241.093c-.036.026-.038.055-.051.07-.016.013-.03.019-.04-.002-.05-.073-.078.021-.118.041-.018.006-.036.02-.056.029a.581.581 0 0 0-.19.184c-.022.045-.097.12-.087.358.002.23.193.594.45.724a.948.948 0 0 0 .444.125c.14.002.24-.03.304-.064a.236.236 0 0 0 .132-.157c-.008-.036-.025-.092-.009-.117.04-.082.016-.097.085-.16.09-.09.192-.205.267-.35.079-.146.132-.312.23-.435a.59.59 0 0 1 .545-.204c.263.026.605.242.787.648.128.29.199.57.192.899-.012.326-.094.72-.436 1.173-.06.076-.262.33-.51.5-.239.179-.515.29-.629.302-.051.001-.554.166-1.208.068a3.117 3.117 0 0 1-1.026-.343 2.871 2.871 0 0 1-.923-.792c-.496-.647-.667-1.465-.573-2.092.085-.635.388-1.022.42-1.076.328-.54 1.036-1.027 1.799-1.053.795-.045 1.356.403 1.593.608.256.208.246.53.11.723-.131.203-.378.302-.527.327M40.79 150.357c-.214-.121-.242-.239-.377-.375a.226.226 0 0 0-.173-.052c-.06.009-.09.047-.062.02.05-.057-.008-.003-.004 0l-.001-.003c0-.003-.007-.007-.004-.008.007-.001-.031-.003-.086.026-.01.008-.02.013-.024.016h-.003-.003l-.185-.098a1.694 1.694 0 0 0-.452-.166c-.208-.031-.116.063.052-.151a1.7 1.7 0 0 0 .151-.213l.094-.162.053-.098c.008-.017.003-.004.005-.008.002.004.034.02.092.04l1.1.4c.123.035.178.04.19.04.002.01.005-.022.005.022l.007.106.01.086c.016.11.054.189.054.189.05.077.096.152.14.223l-.008-.014-.02-.023c-.015-.013-.032-.028-.046-.037-.028-.02-.06-.03-.067-.033-.013 0 .06.011.13-.006a.269.269 0 0 0 .129-.057c.02-.04-.031.104.04-.132.035-.136.14-.363.454-.323.307.046.63.434.597.904a1.245 1.245 0 0 1-.45.899l-.107.086c-.292.22-.72.322-1.095.282a3.6 3.6 0 0 1-.418-.051c-.164-.03-.275-.072-.319-.113a7.045 7.045 0 0 0-.527-.272l-.503-.245-.14-.068a3.383 3.383 0 0 1-.205-.118c-.149-.1-.38-.24-.564-.589a1.187 1.187 0 0 1-.034-.997c.094-.218.184-.33.29-.457.209-.243.446-.405.665-.51.44-.211.805-.199.862-.208.256-.02.546.025.812.152.269.122.494.34.648.578.321.488.299 1.035.301 1.263.009.245-.215.4-.437.412-.223.02-.49-.107-.566-.157M7.474 104.556c.272-.179.42-.25.774-.103l.172.077.103.05.12.087c.154.12.275.26.266.335-.016.148.108.226.153.353l.05.154c.064.214.109.451.12.707 0 .07.008.221-.038.467a1.77 1.77 0 0 1-.502.927c-.158.15-.317.264-.575.37a1.64 1.64 0 0 1-.79.098c-.527-.068-.89-.33-1.164-.628a1.923 1.923 0 0 1-.484-1.148c-.015-.213.026-.48.083-.635.053-.172.132-.324.214-.452.346-.507.685-.644.694-.67a.896.896 0 0 1 .306-.199c.261-.071.326-.098.523-.059.554.134.722.566.652.857-.073.3-.289.745-.34.976a.745.745 0 0 0-.032.213c.002.03.001.05.006.067 0 .006.004.013.005.017-.01-.012-.028-.04-.048-.06a.53.53 0 0 0-.156-.123s-.003 0 0 0a85.44 85.44 0 0 1-.22-.053c.015.003.032.009.114-.005a.449.449 0 0 0 .172-.075c.015-.016-.063.052-.109.176-.052.128-.02.225-.036.172a.068.068 0 0 0-.01-.017l-.09-.146.005.009.01.018c.01.02.05.06.047.058.002.005.02.02.018.018a.045.045 0 0 0-.016-.01c-.03-.02-.077-.03-.113-.043.009.004.015-.005.02-.013.015-.014.016-.042.018-.045a1.59 1.59 0 0 0-.26-.79.679.679 0 0 0-.171-.185c-.204-.122.237-.566.51-.747M17.246 137.144c.213-.293.32-.445.513-.617.096-.089.353-.264.316-.186-.039.073.036.016.053.027l.018.014.072.058c.026.019.15.142.244.289.097.143.158.301.17.302.028 0 .063.008.06.023-.01.043.009.045-.051.096-.158.174-.475.33-.777.402-.301.072-.755.209-.941.31-.144.053-.262.108-.262.108s-.046.024-.002 0a.736.736 0 0 0 .173-.134.454.454 0 0 0 .09-.132c-.018-.006 0-.076-.061-.01-.03.033.027-.045.104-.155l.28-.395M80.911 85.173c.075.144.082.28-.246.579-.315.316-.993.77-2.067 1.808a15.362 15.362 0 0 0-2.118 2.595c-.686 1.058-1.157 2.129-1.34 2.484-.391.727-.51 1.495-.556 2.22-.02.291-.012.575.029.845.071.553.27 1.023.58 1.474.312.45.743.867 1.2 1.263.44.417 2.455 1.845 4.51 4.274 2.078 2.41 4.16 5.846 5.295 9.613.56 1.887.827 4.016.263 5.96-.27.962-.692 1.79-1.11 2.515-.424.724-.848 1.352-1.214 1.924-.37.57-.68 1.083-.92 1.542a7.69 7.69 0 0 0-.304.648c-.09.2-.168.388-.223.566a7.41 7.41 0 0 0-.33 1.202c-.09.47-.135 1.277-.158 1.728-.022.662.015 1.078.045 1.447.042.367.074.687.147 1.16.208 1.307.57 2.305.817 3 .12.351.223.621.274.82.049.202.046.333-.016.38-.06.05-.189.021-.382-.089a3.16 3.16 0 0 1-.737-.595c-.571-.585-1.296-1.599-1.765-3.084-.329-1.073-.505-2.054-.52-3.216.001-.58.027-1.21.161-1.911a9.788 9.788 0 0 1 .706-2.332c.117-.323.555-1.19 1.043-1.98.49-.79.98-1.53 1.175-1.807.049-.069.288-.422.605-.988.312-.572.69-1.338.84-2.313.157-.981.087-2.197-.234-3.496-.316-1.295-.843-2.687-1.46-4.017-1.238-2.674-3.02-5.092-4.615-6.751a26.35 26.35 0 0 0-2.097-1.966 48.72 48.72 0 0 1-1.082-.92c-.473-.417-.983-.904-1.42-1.53a5.132 5.132 0 0 1-.875-2.204c-.23-1.62.242-3.191.856-4.492 1.25-2.616 3.102-4.377 3.911-5.124.819-.758 1.648-1.146 2.255-1.295.61-.153 1.006-.077 1.077.063"/>
        <path fill="#2E5488" d="M15.41 144.51c-.109-.12-.155-.241.085-.59.24-.35.77-.934 1.954-1.81.59-.445 1.734-1.164 2.901-1.68 1.16-.531 2.33-.837 2.76-.896.865-.089 1.656-.301 2.512-.352.34-.035.681-.027 1.02-.04 1.369-.024 2.716.152 3.898.4.655.108 2.741.636 5.293 1.644 2.56.971 5.606 2.38 8.682 3.007l.575.115.573.08c.382.059.76.1 1.142.124.764.051 1.532.059 2.29.056 1.512-.008 2.977-.034 4.274.087 1.293.113 2.386.366 3.155.621.77.25 1.216.493 1.278.512.49.2 1.286.668 1.673 1.017.593.514.89.9 1.14 1.248.25.347.429.678.636 1.185.545 1.423.432 2.692.128 3.43-.3.75-.664 1.012-.788.948-.309-.137.116-1.688-1.025-3.59a5.22 5.22 0 0 0-1.52-1.618c-.653-.455-1.48-.882-2.765-1.222-.233-.063-.924-.211-1.657-.286-.729-.08-1.492-.105-1.8-.136-.15-.03-1.499-.048-3.6-.084a21.973 21.973 0 0 1-3.615-.37c-1.308-.25-2.646-.66-3.944-1.125-2.597-.944-5.047-2.087-6.989-2.79-1.937-.717-3.346-1.033-3.594-1.074-1.015-.205-2.173-.366-3.376-.355a16.304 16.304 0 0 0-3.576.409 16.09 16.09 0 0 0-3.013 1.008 11.93 11.93 0 0 0-1.837 1.024c-1.466 1.015-2.621 1.355-2.87 1.103"/>
        <path fill="#FFF" d="M143.033 20.906c3.024-.54 6.252.163 8.777 1.912a11.914 11.914 0 0 1 4.876 7.54c.44 2.385.13 4.862-.583 7.178-.95 3.085-2.663 5.997-5.2 7.992-4.534 3.566-11.487 3.55-16.089.072-4.601-3.478-6.523-10.051-4.652-15.506 1.871-5.454 7.324-9.438 13.087-9.709"/>
        <path fill="#2E5488" d="M143.007 20.761c-.027-.156.026-.301.702-.495a7.61 7.61 0 0 1 1.564-.23 11.387 11.387 0 0 1 2.912.234c.616.126 1.475.356 2.4.75a12.152 12.152 0 0 1 4.886 3.794c.536.7.88 1.314 1.038 1.65.618 1.347 1.151 2.657 1.37 4.115a13.9 13.9 0 0 1 .144 1.73c.05 2.324-.453 4.53-1.13 6.433-.19.519-.588 1.633-1.402 3.065-.812 1.422-2.066 3.194-4.027 4.692-1.964 1.507-4.626 2.557-7.495 2.765-2.86.213-5.931-.418-8.523-1.95-2.612-1.528-4.549-3.943-5.667-6.438a15.21 15.21 0 0 1-1.148-3.765c-.21-1.234-.285-2.426-.205-3.523.1-2.202.746-3.988 1.288-5.18l.39-.798.342-.583a6.65 6.65 0 0 1 .34-.556c.434-.724 1.322-1.85 1.9-2.402.416-.41.777-.72 1.086-.988l.852-.662c.536-.361 1.005-.676 1.749-1.047 2.054-1.029 3.848-1.33 5.037-1.392a5.66 5.66 0 0 1 1.365.062c.307.053.463.12.467.197.004.077-.147.178-.433.294-.143.058-.32.12-.528.185l-.712.253c-1.06.38-2.586.946-4.29 2.024a15.184 15.184 0 0 0-3.174 2.693c-.955 1.092-2.003 2.439-2.79 4.557-.089.187-.181.577-.325 1.053-.11.487-.241 1.072-.295 1.676a15.356 15.356 0 0 0-.022 2.928c0 .119.05.722.258 1.671.203.947.6 2.246 1.387 3.624.783 1.367 1.935 2.845 3.544 3.943.793.56 1.69 1.04 2.662 1.383.965.353 1.993.614 3.044.714 2.099.24 4.258-.064 6.116-.794a11.784 11.784 0 0 0 4.47-3.164 15.286 15.286 0 0 0 2.293-3.468c.47-.965.695-1.636.769-1.831.563-1.628 1.012-3.566.982-5.556 0-1.99-.578-3.99-1.57-5.636a11.011 11.011 0 0 0-3.6-3.707 10.252 10.252 0 0 0-3.178-1.309c-1.447-.317-2.622-.455-3.465-.588-.84-.128-1.347-.254-1.378-.423"/>
        <path fill="#2E5488" d="M149.97 24.984c.065-.148.084-.236.345-.237.061 0 .21.02.359.104.141.078.248.199.255.257.016.114.092.19.115.299.01.042.015.085.02.127.018.176-.005.344-.049.482-.027.07-.095.35-.429.586a1.07 1.07 0 0 1-.605.18 1.185 1.185 0 0 1-.599-.176 1.11 1.11 0 0 1-.424-.47 1.026 1.026 0 0 1-.085-.58c.056-.333.202-.485.203-.501a.549.549 0 0 1 .124-.176c.131-.1.166-.13.29-.155.363-.056.525.173.502.317-.023.152-.103.393-.074.508.007.083.044.141.04.155.036.011-.076-.017-.078-.009-.007-.003-.04.016.03-.019-.023.01 0 .072.048.103.048.03.07.048.11.035a.134.134 0 0 0 .07-.07c.02-.065.032-.134 0-.203a.168.168 0 0 0-.153-.099c-.104.008-.074-.305-.014-.458M139.407 44.386c-.117-.1-.209-.17-.065-.401a.693.693 0 0 1 .237-.211c.11-.063.245-.082.29-.056.086.048.18.028.274.067a.913.913 0 0 1 .414.37c.03.061.172.267.105.633a.822.822 0 0 1-.343.503.85.85 0 0 1-.593.136.781.781 0 0 1-.562-.38.854.854 0 0 1-.11-.472.975.975 0 0 1 .106-.401.326.326 0 0 1 .055-.134c.07-.076.08-.097.148-.119.187-.047.344.05.454.157.11.11.213.335.24.462.011.045.029.08.045.103.007.011.015.02.021.023l-.04-.019-.1-.042.003.001.005.003.008.002c.023.004-.028-.006-.062.001a.227.227 0 0 0-.097.035l-.003.004c-.037.04-.011.011-.018.017a.102.102 0 0 0 .012-.03c.009-.032-.002-.068 0-.057a.134.134 0 0 0 .047.051c-.038-.017-.03-.011-.065-.014-.055.007-.048.013-.044.008-.006.004.017-.012.029-.033-.013.035-.008.025-.013.019-.014-.01-.048 0-.04.027.032.037-.2-.162-.338-.253M151.406 35.495c-.023.165-.07.23-.176.345-.068.058-.118.227-.149.207-.043-.016-.035.032-.048.046l-.015.018a.25.25 0 0 0-.044.083c-.003.012-.014.044-.016.094-.002.054-.006.022-.006.043-.002.018.024.042.04.036.029-.021.026-.042.026-.042-.013.004-.02-.038-.015-.056.016-.056.005-.069.04-.113.094-.123.214-.274.358-.337.135-.064.425-.038.567.235.08.204.19.318.036.793-.016.084-.196.446-.288.478-.013-.004-.029.054-.277.191-.077.025-.282.094-.536.04-.251-.05-.53-.231-.694-.496a1.293 1.293 0 0 1-.19-.785c.017-.194.07-.321.076-.346.061-.234.265-.499.492-.631.224-.143.451-.186.551-.223.225-.074.31.265.268.42M130.444 30.23c-.061-.05-.11-.097-.074-.214.03-.102.198-.333.618-.384a1.148 1.148 0 0 1 .896.3c.271.244.38.54.39.64.018.21.082.378.088.572a2 2 0 0 1-.008.242 1.645 1.645 0 0 1-.13.513c-.082.19-.229.378-.398.493-.01.007-.021.018-.121.074a1.11 1.11 0 0 1-.46.12 1.27 1.27 0 0 1-.707-.183 1.395 1.395 0 0 1-.56-.642 1.348 1.348 0 0 1-.042-.967c.113-.317.302-.585.65-.774a.79.79 0 0 1 .842.067c.192.155.23.236.308.337.07.103.126.2.18.324.065.147.102.297.115.436.027.281-.065.508-.16.66-.246.364-.64.468-.936.458a1.37 1.37 0 0 1-.636-.172c-.255-.147-.335-.26-.35-.267a1.01 1.01 0 0 1-.303-.492 1.059 1.059 0 0 1 .006-.52.875.875 0 0 1 .19-.357c.332-.366.728-.33.902-.248.194.089.233.217.202.283-.032.071-.14.129-.226.218-.09.086-.142.21-.112.275.009.052.05.093.075.077.018-.013.064.039.163.085.091.03.03-.012.058.016 0 0 .003.004.008 0 .003-.004.05.026.03-.062a.9.9 0 0 0-.086-.164l-.042-.062c-.013.013.04-.043.056-.066a.748.748 0 0 0 .053-.073.302.302 0 0 0 .04-.082c.004-.031-.009.045.034.14l.038.08c.014.026.003.007.004.014-.005 0-.015.007-.024.012a.349.349 0 0 0-.106.103.377.377 0 0 0-.06.296c.022.103.091.199.163.251.16.11.24.067.267.06l.03-.018a.254.254 0 0 0 .077-.1.753.753 0 0 0 .057-.219c.021-.168.003-.384-.048-.54-.105-.341-.328-.397-.423-.368-.089.024-.135-.022-.243-.058-.1-.038-.22-.061-.285-.114M144.389 21.082a.482.482 0 0 1-.184.09c-.05.015-.167.035-.162.1.002.014.003.036.014.054a.03.03 0 0 0 .012.01c-.004-.001-.018-.007-.029-.008l-.016-.002h-.008.03l.022-.004c.083-.03.06-.022.09-.015.018.007.035.013.038.026.013.05.105.026.194.013.029-.003.105-.018.105-.018.003 0 .009 0 .012-.004v-.008l-.004-.006-.003-.002-.065-.037a1.076 1.076 0 0 0-.12-.058c-.07-.03-.131-.029-.124-.028-.009-.003-.012.013-.021-.003a.321.321 0 0 0-.125-.104c-.003-.004-.037-.006.015-.001-.012 0 .004.001.03-.007a.502.502 0 0 0 .11-.053c.002.002.004.007.014.017a.57.57 0 0 0 .211.13c.039.014.078.02.097.02.005-.061.034.166.07.192.017.027.02.025.008.016l-.015-.009-.003-.002.028.015h-.001l-.007-.003a.252.252 0 0 0-.04-.014c-.068-.023-.216.006-.175-.006.002-.038-.103-.107-.13-.092-.052 0-.123.051-.14.082-.022.032-.02.045-.02.045.015.005-.019-.003-.05-.004a.362.362 0 0 0-.075.003l-.012.003-.003.001-.063.017.002-.001.007-.004a.152.152 0 0 0 .028-.018c.062-.057.058-.092.054-.064a.205.205 0 0 0 .013.11c.01.02.01.01-.015-.004-.014-.014-.081-.027-.06-.025.033-.002.068-.035.092-.067.056-.065.055-.162.085-.233.022-.064.163-.15.359-.002.09.073.177.2.198.387a.661.661 0 0 1-.333.63.854.854 0 0 1-.58.099.85.85 0 0 1-.701-.66.987.987 0 0 1-.01-.372c.04-.236.154-.465.354-.659.07-.07.294-.265.6-.336.303-.085.649.008.745.072.025.016.17.073.343.236.165.164.39.442.368.911-.006.24-.184.574-.47.7-.276.125-.505.098-.702.058a1.539 1.539 0 0 1-.541-.245 1.217 1.217 0 0 1-.442-.522.837.837 0 0 1 .123-.847.99.99 0 0 1 .627-.343c.241-.03.424.02.585.08.163.066.265.127.398.212.322.195.503.436.563.63.065.195.025.336.021.374v.004c-.067.334-.416.574-.835.671-.334.082-.697.101-1.046-.102-.319-.179-.535-.578-.451-.936a.884.884 0 0 1 .463-.595c.342-.167.63.017.702.174.087.168.015.297-.05.34M139.514 29.234c-.058-.057-.103-.1-.1-.176.004-.07.064-.193.255-.29a.892.892 0 0 1 .456-.087c.179.01.35.1.376.146.063.098.16.136.223.213l.067.091c.083.122.136.238.18.337.017.051.122.257.125.597a.97.97 0 0 1-.268.688.86.86 0 0 1-.425.23.974.974 0 0 1-.4 0 1.099 1.099 0 0 1-.864-.866.908.908 0 0 1 .056-.512c.056-.13.11-.187.113-.197a.636.636 0 0 1 .197-.213c.188-.102.244-.12.403-.115.222.014.396.15.444.27.054.121.011.212-.044.262-.057.053-.152.095-.21.17-.064.091-.053.11-.05.181.007.043.02.055.008.038a.21.21 0 0 0-.093-.07l-.003-.001h-.001l.088.018h.021a.274.274 0 0 0 .117-.043c.007-.007-.008.01-.004.023.011.043-.006-.002.04.228-.025-.045.005.009.001 0l-.007-.006a.229.229 0 0 0-.048-.027c-.018-.008-.064-.023-.046-.018.014-.006.028-.051.029-.096a.48.48 0 0 0-.026-.184c-.048-.118-.111-.24-.174-.288-.047-.046-.123-.045-.125-.016-.003.028-.019-.036-.086-.1-.064-.067-.165-.13-.225-.187"/>
        <path fill="#FFF" d="M301.494 157.983c-12.25-6.521-26.552-8.387-40.41-7.595-20.964 1.2-41.86 8.525-57.69 22.317-15.83 13.793-26.137 34.305-25.756 55.29"/>
        <path fill="#2E5488" d="M301.425 158.113c-.076.144-.272.182-1.45-.29-.294-.118-.649-.268-1.08-.455l-1.559-.617c-.6-.256-1.307-.512-2.12-.805-.408-.144-.837-.315-1.303-.468-.468-.15-.965-.311-1.491-.482-2.119-.686-6.023-1.72-9.772-2.326-3.742-.645-7.3-.895-8.58-1.049-2.57-.259-5.004-.266-7.542-.26-1.012.011-2.024.031-3.032.06-2.031.064-4.04.228-5.998.376-.977.092-1.938.212-2.884.314-.473.056-.943.099-1.405.164l-1.37.205c-1.974.262-8.401 1.209-16.59 3.819-4.082 1.316-8.591 3.061-13.125 5.31-4.535 2.242-9.088 4.99-13.288 8.129-4.209 3.13-8.046 6.652-11.287 10.255-1.64 1.786-3.093 3.622-4.438 5.382l-1.891 2.618-1.642 2.535c-.546.801-.98 1.624-1.429 2.386-.431.773-.886 1.483-1.234 2.195-.36.706-.696 1.37-1.01 1.984a23.792 23.792 0 0 0-.828 1.718l-1.115 2.516c-.27.604-.385.985-.424 1.069l-.941 2.566c-.327.934-.596 1.878-.822 2.543l-.437 1.343c-.121.412-.212.791-.307 1.141l-.486 1.843-.219.812-.176.824-.416 1.885c-.247.988-.386 1.938-.54 2.83-.14.892-.326 1.723-.412 2.506l-.27 2.169c-.082.662-.183 1.264-.212 1.806-.18 2.165-.36 3.326-.516 3.33-.154.001-.334-1.172-.487-3.395-.055-.557-.03-1.175-.028-1.858l.044-2.235c.02-.805.137-1.663.217-2.583.092-.92.178-1.899.377-2.915.257-1.478.461-2.87.815-4.236l.487-2.079c.17-.701.406-1.4.619-2.137.227-.73.434-1.499.711-2.287l.916-2.482c.305-.882.716-1.78 1.139-2.747.423-.966.861-2 1.429-3.064l1.063-2.107c.502-.942 1.155-2.044 1.791-3.167 1.337-2.207 2.785-4.394 3.437-5.197l.661-.896c.358-.49.841-1.165 1.5-1.948a76.96 76.96 0 0 1 5.425-6.142l1.83-1.838 2.045-1.86c.353-.315.702-.644 1.07-.96l1.138-.932c.775-.617 1.53-1.293 2.362-1.895 3.245-2.525 6.933-4.893 10.751-7.027 1.901-1.086 3.877-2.036 5.82-2.98l2.94-1.3c.97-.43 1.96-.787 2.919-1.175 3.864-1.483 7.581-2.674 10.88-3.502 6.588-1.72 11.397-2.293 12.224-2.432 6.85-1.034 15.717-1.445 23.548-.675 3.915.36 7.56.981 10.57 1.674a75.864 75.864 0 0 1 6.845 1.896c2.92.917 5.1 2.072 6.544 2.924 1.418.917 2.116 1.532 2.039 1.676"/>
        <path fill="#2E5488" d="M236.287 164.316c-.149.014-.315.048-.373-.254-.024-.15.04-.387.2-.579.16-.194.37-.348.686-.448.19-.05.365-.08.568-.092.208-.014.439.006.659.052.441.09.815.315.903.444.178.251.426.4.6.657a2.874 2.874 0 0 1 .479 1.714 3.062 3.062 0 0 1-.712 1.833c-.31.39-.847.765-1.388.923-.27.084-.541.132-.804.154-.264.02-.51.021-.797-.009a2.836 2.836 0 0 1-.907-.247 2.314 2.314 0 0 1-.813-.638 2.68 2.68 0 0 1-.57-1.513c-.03-.446.042-.809.116-1.068.075-.256.135-.377.14-.4.037-.153.133-.4.216-.512.24-.331.293-.412.519-.572.631-.408 1.115-.357 1.332-.145.224.22.266.812.096 1.336-.104.37-.15.662-.22.96-.025.058.032.32.005.372a.513.513 0 0 0 .024.226c.005.035.042.094.204.145.15.05.423.072.631.06a1.27 1.27 0 0 0 .534-.133c.143-.072.266-.199.356-.323.18-.26.2-.497.203-.53a1.14 1.14 0 0 0-.091-.49 1.256 1.256 0 0 0-.346-.456 1.122 1.122 0 0 0-.46-.232.698.698 0 0 0-.188-.017l-.073.008-.012.018c-.022.018-.023.039-.067-.05a.634.634 0 0 0-.204-.237c-.018-.012-.034-.016-.034-.016a.394.394 0 0 0-.133-.004c-.1.013-.199.053-.28.063M201.644 194.162c-.017.33-.08.475-.342.699a1.954 1.954 0 0 0-.232.249c-.07.086-.104.15-.14.123-.075-.055-.07.04-.097.057l-.025.017a.29.29 0 0 0-.08.08c-.02.013-.026.084-.065.08l-.052.004-.017.003-.006.002-.182.051.009-.002a.441.441 0 0 0 .127-.066c.085-.067.04-.068 0 .068a.496.496 0 0 0-.017.175c.003.02.007.034.007.034v.002l-.084-.179.001.004.003.006a.302.302 0 0 0 .025.05c.084.117.026.002-.192-.069-.014-.015.014-.168-.001-.167-.027-.033-.057-.087-.055-.127.012-.111-.012-.14.042-.244.147-.295.392-.591.685-.706.282-.113.812-.102 1.122.266.208.273.418.473.38 1.14-.008.064-.01.246-.07.459-.05.208-.168.435-.247.506-.022.016-.312.46-.909.674a1.78 1.78 0 0 1-1.068.041 1.934 1.934 0 0 1-.881-.53 1.842 1.842 0 0 1-.48-.897 1.9 1.9 0 0 1 .024-.822c.12-.45.32-.68.343-.727.215-.373.688-.72 1.103-.854.418-.152.775-.174.93-.237.33-.12.475.514.44.837M206.666 236.477c-.004-.19-.012-.343.05-.506.062-.154.217-.353.623-.424.199-.04.592-.009.91.192.32.187.528.493.539.621.028.254.16.452.186.7.005.099.012.2.005.295-.02.391-.137.742-.289 1.028-.09.148-.35.68-1.12 1.048a2.243 2.243 0 0 1-1.316.154 2.418 2.418 0 0 1-1.22-.623 2.28 2.28 0 0 1-.678-1.226 1.726 1.726 0 0 1-.025-.451c.01-.174.066-.39.157-.562.187-.355.428-.521.58-.623.33-.195.415-.21.528-.27.1-.049.162-.08.168-.086a.728.728 0 0 1 .219-.153c.192-.062.23-.1.393-.094.447.019.798.234.933.513s.136.802-.125 1.162c-.189.26-.321.466-.729.667a1.392 1.392 0 0 0-.177.109l-.003.004-.097-.15a2.504 2.504 0 0 0-.166-.222 1 1 0 0 0-.154-.156c-.005-.01-.09-.054-.059-.04a.81.81 0 0 0 .271.011c.078-.007.178-.02.317-.05l.055-.013c.003 0 0 0 0 0l-.002.002-.007.003c-.048.017-.018.168.098.26a.314.314 0 0 0 .332.078.485.485 0 0 0 .21-.162c.072-.144.122-.31.057-.463-.057-.163-.237-.201-.304-.138-.067.05-.078-.022-.107-.096a1.082 1.082 0 0 1-.033-.119c-.005-.024-.008-.033-.011-.07l-.01-.15M282.494 158.05c-.053.154-.1.268-.133.373-.016.063-.009.017-.011.09 0 .025.016.09.035.131.021.042.028.045.026.044a.216.216 0 0 0-.039-.034l-.033-.021a.368.368 0 0 0-.135-.046c-.015-.01-.044.028.073-.05a.364.364 0 0 0 .093-.111c.003-.014-.02.056-.013.135.007.082.038.118.027.104a.324.324 0 0 0-.125-.067c-.117-.025-.103-.01-.1-.014 0 0 .019-.003.033-.008a.38.38 0 0 0 .096-.047.267.267 0 0 0 .074-.07c-.008.014.018-.027.036-.062l.052-.107.094-.219a.893.893 0 0 1 .35-.413.643.643 0 0 1 .653.015c.3.195.557.422.558.996 0 .052 0 .207-.032.367-.031.16-.102.324-.157.376-.027.014-.18.32-.593.568-.414.257-1.012.281-1.426.096a1.632 1.632 0 0 1-.897-.883c-.142-.368-.085-.656-.082-.695.018-.397.286-.766.57-.965.284-.212.608-.28.764-.338.16-.064.3.086.325.28.032.194-.028.422-.083.576M242.395 198.39c.056-.32.101-.479.376-.647l.235-.136.007-.004.577.328c.253.143.438.356.431.451-.013.16.108.25.144.387l.035.162c.038.219.04.444.014.659-.016.096-.041.406-.292.802a1.753 1.753 0 0 1-.58.564c-.297.18-.646.247-.942.23a1.819 1.819 0 0 1-1.397-.762 1.53 1.53 0 0 1-.276-.76c-.02-.25.027-.425.052-.534l.091-.4.397-.229.233-.135a.272.272 0 0 0 .053-.035c.023-.041.068-.1.106-.11.111-.033.127-.062.235-.037.297.072.579.308.735.578.154.267.281.74.197 1.032-.061.211-.099.38-.317.511l-.138.103-.119-.867a.11.11 0 0 0-.043-.009h-.001c-.018-.004.023.02.156-.086a.517.517 0 0 0 .113-.141c.007-.02-.018.038-.016.122 0 .084.037.16.033.149l.001.001-.117-.151.002.004-.005-.005s-.024-.018-.039-.024c.01.005.061-.025.055-.033.026-.077.012-.304-.05-.317l.372.207c-.13-.016-.176-.013-.21 0-.176.073-.165-.547-.108-.868"/>
        <path fill="#C0D5EE" d="M84.84 35.82c-.06.032-.135.056-.222-.105a.594.594 0 0 1-.03-.39.752.752 0 0 1 .525-.555l.024-.007.08-.001.297-.004c.278-.003.786.05 1.241.204.46.14.854.367.979.47.243.217.506.372.737.594l.265.271c.342.378.616.803.819 1.217.108.228.49.957.473 2.124a1.98 1.98 0 0 1-.316.992c-.214.33-.551.57-.886.708-.677.276-1.367.265-1.993.206a5.641 5.641 0 0 1-1.828-.485c-.559-.257-1.04-.634-1.362-1.043-.323-.393-.508-.858-.561-1.173-.063-.32-.053-.513-.057-.538-.011-.204.01-.553.072-.737.172-.539.252-.674.514-.993.394-.43.871-.593 1.174-.588.307-.003.448.103.447.17-.005.171-.547.343-.88.98-.123.23-.184.458-.222.72-.03.259-.054.576.064.936.018.073.092.233.226.424.13.18.298.336.359.406.03.03.32.335.92.584.297.126.667.232 1.076.295.41.063.86.095 1.26.031.41-.059.743-.227.897-.48.16-.247.174-.632.129-.966-.08-.676-.312-1.124-.345-1.199a4.516 4.516 0 0 0-1.588-1.775c-.677-.45-1.39-.583-1.691-.59-.091 0-.176-.009-.254-.023l.09-.007c-.016-.03-.158.018-.237.099-.089.076-.135.195-.196.228M111.416 142.784c-.06-.054-.099-.103-.029-.246.067-.128.273-.41.825-.544.272-.075.781-.083 1.21.059.433.13.788.371.893.484.205.224.433.411.604.67.058.1.125.197.175.302.215.414.342.854.4 1.262.025.216.147.972-.217 1.912-.181.466-.504.953-1.002 1.33-.502.366-1.13.56-1.742.56a3.013 3.013 0 0 1-1.719-.495c-.492-.342-.84-.817-.966-1.32a2.257 2.257 0 0 1 .017-1.182c.075-.273.153-.424.159-.446a2.34 2.34 0 0 1 .326-.565c.331-.373.451-.447.774-.614.473-.204.908-.181 1.155-.076.25.103.338.228.314.296-.058.162-.551.19-1.009.588a2.16 2.16 0 0 0-.41.492 2.146 2.146 0 0 0-.286.748l-.014.155c.012.066 0 .151.023.225.021.157.1.29.124.358.006.03.133.32.558.568.413.245 1.169.362 1.793.085.625-.241 1.034-.916 1.154-1.464.135-.558.062-.984.055-1.051-.085-.585-.383-1.326-.92-1.71-.526-.421-1.136-.484-1.338-.41a2.573 2.573 0 0 1-.538.081c-.156.013-.306.003-.369-.052M203.743 43.664c.02-.08.042-.136.15-.156.106-.019.319-.015.638.183.163.092.424.322.588.593.177.265.255.555.255.662-.004.213.046.406.033.62-.007.083-.022.168-.035.251-.063.336-.21.665-.415.926-.063.067-.182.222-.409.372-.22.145-.551.3-.936.314-.77.042-1.62-.372-2.098-1.114a1.964 1.964 0 0 1-.31-1.28c.016-.259.123-.569.308-.744a.964.964 0 0 1 .674-.267c.108-.005.257.014.302.02l.161.021.263.035.247.03c.096 0 .258.008.347.024.26.047.328.048.51.11.503.171.77.38.751.534-.02.153-.346.35-.872.387-.38.028-.661.056-1.256-.02l-.33-.032c0 .003.002.002-.007-.009a.02.02 0 0 0-.017-.007c-.009.004-.022-.025-.037.138-.03.24.13.634.47.905.332.27.777.377 1.062.286.301-.067.44-.268.47-.286.196-.248.318-.716.225-1.123-.067-.416-.32-.69-.44-.758a.584.584 0 0 1-.235-.29c-.049-.112-.077-.247-.057-.325M252.124 120.405c-.013-.08-.015-.141.071-.205.085-.063.265-.131.614-.12.175.003.493.06.769.19.278.123.501.317.56.404.108.182.262.309.36.498.043.071.074.15.107.228.13.314.176.665.15.969-.01.161-.074.726-.502 1.272a2.479 2.479 0 0 1-.881.713 2.128 2.128 0 0 1-1.28.175c-.86-.146-1.547-.828-1.686-1.535a1.63 1.63 0 0 1 .054-.868c.074-.197.142-.301.148-.316.053-.123.185-.303.277-.387.274-.234.364-.28.617-.355.361-.09.673-.006.831.11.163.116.195.237.162.301-.035.073-.147.121-.27.19a2.093 2.093 0 0 0-.375.262 1.278 1.278 0 0 0-.376.617.451.451 0 0 0 .004.162c.009.08.047.156.047.195.009.012.042.179.257.365.208.185.593.347.962.255.383-.075.737-.381.9-.67.173-.29.194-.531.196-.569.036-.327-.114-.755-.403-1.041-.28-.294-.633-.41-.781-.41-.277-.014-.488-.262-.532-.43M159.623.169c.071-.142.138-.217.782-.002.163.056.46.172.734.336.274.162.512.386.57.49.117.205.27.365.37.593.042.09.074.183.099.277.108.377.109.76.052 1.089-.036.172-.139.789-.699 1.373a2.28 2.28 0 0 1-1.164.645 2.49 2.49 0 0 1-1.42-.138 2.635 2.635 0 0 1-1.099-.83 2.228 2.228 0 0 1-.458-1.145c-.06-.736.184-1.173.184-1.202.038-.13.133-.34.21-.442.222-.3.291-.373.513-.524.316-.2.61-.264.808-.254.2.012.304.077.32.15.026.163-.25.428-.518.807-.188.281-.302.512-.413.982-.01.044-.018.17-.013.293l.04.288c.007.02.033.243.258.51.213.268.662.543 1.136.557.47.022.898-.253 1.123-.582.23-.323.28-.618.289-.662a1.495 1.495 0 0 0-.36-1.27 2.648 2.648 0 0 0-.923-.662c-.384-.147-.492-.528-.421-.677"/>
        <path fill="#154A89" d="M99.87 180.547l1.936 3.38 3.454 1.804-3.383 1.935-1.804 3.453-1.935-3.382-3.455-1.803L98.066 184zM119.853 20.08l.846 1.479 1.512.789-1.48.846-.79 1.511-.847-1.48-1.512-.788 1.481-.847zM63.991 60.972l.42.733.75.391-.735.42-.391.75-.42-.735-.75-.39.735-.42zM276.567 56.56l-.202 1.935.874 1.738-1.936-.202-1.74.874.203-1.935-.874-1.738 1.936.202z"/>
    </g>
</svg>
