<svg xmlns="http://www.w3.org/2000/svg" width="322" height="194" viewBox="0 0 322 194">
    <g fill="none" fill-rule="evenodd">
        <path fill="#FFF" d="M-1077-105H363v1720h-1440z"/>
        <path fill="#9ADBF9" d="M13.896 147.407c-4.503.023-8.141-3.672-8.056-8.18L9.27 7.908c.06-3.182 1.776-6.21 5.91-7.562C5.275-.602 2.996 3.786 2.906 8.51L.436 139.83c-.085 4.508 3.554 8.203 8.057 8.18l30.612-.159-.08-.56-25.13.117z"/>
        <path fill="#314C75" d="M64.865 107.767c-.062-.001-.106-.308-.117-2.85-.01-2.543.01-7.32.08-16.263.067-8.998.254-32.575.349-37.783.062-5.21.121-10.108.184-15.227l.075-6.111.148-12.107.017-1.475a8.555 8.555 0 0 0-.117-1.381 7.597 7.597 0 0 0-5-5.844c-.867-.315-2.45-.51-4.467-.882L48.58 6.545 26.791 2.74 20.22 1.592c-1.115-.177-2.294-.45-3.372-.519a7.458 7.458 0 0 0-3.276.593c-2.086.877-3.788 2.768-4.381 5.05-.08.281-.115.576-.177.863-.038.293-.048.59-.074.885l-.04 1.879c-.022 1.259-.047 2.528-.071 3.803-.194 10.206-.397 20.897-.6 31.486l-1.6 84.571c-.025 1.502-.06 3.526-.092 5.53l-.052 2.925c-.011.94-.055 1.758.065 2.416a7.552 7.552 0 0 0 2.21 4.354c1.007.958 2.063 1.536 3.115 1.844 1.066.328 2.065.343 3.254.323 1.165 0 2.414-.002 3.901-.004l19.002.056 4.974.064 1.273.039c.285.014.43.029.43.043 0 .015-.147.032-.437.05l-1.286.058-5.013.133a1780.9 1780.9 0 0 1-18.953.275l-4.306.044c-1.404.048-2.918-.133-4.214-.777-2.64-1.188-4.623-3.882-4.84-7.05.023-6.084.192-12.942.353-22.417l.452-24.025 1.42-70.715c.086-4.318.171-8.64.258-12.907.036-1.063-.012-2.124.17-3.23A8.35 8.35 0 0 1 9.482 4.18 8.433 8.433 0 0 1 14.624.54C15.656.3 16.732.244 17.762.418c1.007.157 1.977.342 2.954.509l5.717 1.003L37.02 3.787l16.488 2.894 5.166.906c1.317.2 2.254.505 2.628.698a8.307 8.307 0 0 1 4.902 6.314c.164.966.085 1.928.087 2.87-.048 3.81-.099 7.765-.148 11.778-.102 8.026-.207 16.281-.304 24.055l-.417 35.194a596.997 596.997 0 0 1-.272 14.154c-.055 1.656-.11 2.935-.16 3.8-.05.866-.094 1.317-.125 1.317"/>
        <path fill="#314C75" d="M17.884.536c-.008.062-.192.09-1.655-.022-.364-.042-.813-.025-1.358-.045-.543-.03-1.184-.002-1.938.038-.377.003-.779.062-1.21.115-.216.028-.44.055-.672.083l-.706.15c-.976.181-2.048.549-3.153 1.137-.547.31-1.193.722-1.778 1.328A6.566 6.566 0 0 0 3.89 5.588c-.382.908-.582 1.941-.596 3.015l-.042 3.361c-.072 4.463-.14 8.65-.163 10.165-.087 3.03-.11 5.88-.165 8.858-.023 1.187-.046 2.374-.067 3.556-.092 4.762-.18 9.445-.262 13.724l-1.052 54.925-.64 33.518-.055 3.265c-.007.99.182 1.927.508 2.748a7.747 7.747 0 0 0 2.822 3.564 7.92 7.92 0 0 0 2.816 1.172c.728.13 1.172.123 1.275.13 1.742-.01 4.696-.028 6.347-.036 4.853-.01 6.085-.01 9.548-.016 4.78.016 8.515.05 11.055.095a130.5 130.5 0 0 1 2.895.075c.655.028.992.056.992.086 0 .03-.342.066-1.003.104-.66.039-1.64.08-2.916.122-2.551.084-6.289.17-11.028.234l-9.91.128-5.754.053c-2.221.04-4.827-.916-6.66-3.193a8.724 8.724 0 0 1-1.361-2.48c-.23-.603-.36-1.303-.447-2.04-.046-.754-.023-1.485-.008-2.22.058-2.948.118-5.943.14-7.123.049-2.294 1.655-79.6 1.735-83.48l.53-27.192.24-12.319c.064-1.825.66-3.45 1.53-4.58.86-1.136 1.833-1.874 2.63-2.286C8.395.631 10.003.3 11.382.125l1.005-.097c.323-.016.633-.01.93-.016l.85-.002.767.056c.968.053 1.705.19 2.202.281.497.092.752.158.747.189"/>
        <path fill="#314C75" d="M59.316 132.074c0 .063-.261.104-2.417.1-2.156-.003-6.206-.052-13.788-.17l-16.813-.272-15.055-.285c.01-.741.013-.893.016-1.036l.168-12.928.07-5.189.267-20.028L12.88 9.073c28.719 4.858 49.445 8.362 50.652 8.566l-.297 19.009-.13 9.293-.252 13.95c-.15 6.983-.289 12.44-.407 16.15l-.156 4.229c-.045.955-.085 1.445-.114 1.444-.03 0-.055-.5-.075-1.466l-.04-4.263c-.012-3.73.008-9.193.076-16.119.098-10.033.165-17.422.417-33.487l.119-8.024c-4.083-.693-9.506-1.611-11.438-1.938-1.033-.177-12.76-2.172-37.564-6.394l-1.207 82.772-.521 37.973 31.042.64c5.106.087 9.19.222 11.996.351 1.404.065 2.487.128 3.22.182.734.055 1.117.101 1.115.133M315.415 97.495c.063.003.103.12.092 1.07-.009.951-.07 2.737-.211 6.076-.143 3.36-.524 12.165-.66 14.107-.137 1.943-.205 3.773-.309 5.684l-.125 2.28-.483 8.804c-.03.354-.013 1-.258 1.812a5.293 5.293 0 0 1-3.34 3.474c-.324.112-.666.191-1.022.245-.368.04-.718.055-1.056.063l-4.513.157-22.407.78-31.549 1.103-4.082.16-6.13.184c-3.07.067-5.47.098-7.102.097-1.633-.001-2.498-.033-2.5-.093-.003-.06.873-.166 2.508-.295 1.636-.128 4.033-.279 7.075-.427 4.405-.214 7.65-.378 14.707-.628l8.963-.317c.735-.023 13.495-.43 26.383-.843l17.94-.58c.624-.028 1.248-.02 1.774-.097a4.542 4.542 0 0 0 1.47-.495 4.644 4.644 0 0 0 1.836-1.828c.716-1.341.54-2.43.609-2.739.56-10.24 1.429-26.081 1.674-30.578.104-2.25.252-4.045.389-5.278.137-1.232.264-1.902.327-1.898"/>
        <path fill="#9ADBF9" d="M320.009 12.333l.297-5.436a2.67 2.67 0 0 0-3.01-2.795L197.188 19.34a2.67 2.67 0 0 0-2.309 2.374l4.248 5.625 120.882-15.006z"/>
        <path fill="#314C75" d="M156.855 139.961c-.061-.006-.075-.332.158-3 .233-2.67.713-7.68 1.638-17.057.945-9.432 3.424-34.15 3.97-39.61.563-5.46 1.091-10.595 1.645-15.96l.66-6.406a205662.318 205662.318 0 0 1 3.052-29.579l.176-1.711.096-.925c.024-.305.092-.727.245-1.07a3.1 3.1 0 0 1 1.666-1.673c.384-.172.842-.222 1.187-.266l1.137-.147 23.109-3.011 62.675-8.166A353641.32 353641.32 0 0 0 305.2 5.266c2.337-.305 4.61-.6 6.81-.888l3.243-.422 1.579-.206.39-.051c.142-.01.296-.03.445-.026.3.002.597.049.882.136 1.144.349 1.999 1.385 2.135 2.524.066.599-.013 1.052-.024 1.54l-.079 1.428-.294 5.357-.48 8.797-.452 8.303-.613 11.516-.976 17.286-1.247 20.01-.376 5.236c-.052.59-.092 1.037-.12 1.338-.03.299-.054.45-.069.45-.015-.002-.022-.157-.022-.462l.023-1.36c.04-1.198.103-2.974.182-5.286.182-4.625.486-11.396.914-19.981.62-12.436 1.071-21.595 2.156-41.503.097-1.803.374-7.038.655-12.352-.023-1.133-1.044-2.115-2.132-2.12-.137-.014-.264.007-.407.016l-.473.062c-.313.04-.623.082-.928.12l-1.77.232-5.199.669-73.801 9.54-50.182 6.494-9.703 1.257-4.157.538c-1.212.117-2.06 1.149-2.135 2.16-.465 4.486-.77 7.426-.862 8.3l-8.856 85.874c-.63 6.316-1.2 11.361-1.627 14.826-.214 1.733-.392 3.07-.524 3.974-.133.903-.22 1.372-.252 1.37"/>
        <path fill="#314C75" d="M167.312 31.955c-.016-.124.534-.257 8.656-1.354 4.086-.553 14.794-1.992 17.166-2.258 2.372-.265 4.595-.576 6.923-.866l2.78-.347 10.726-1.337c7.325-.916 80.03-9.963 81.393-10.143 1.364-.18 3.68-.48 4.974-.638 3.8-.464 4.763-.59 7.477-.9 7.491-.855 11.718-1.248 11.732-1.13.015.119-4.242.835-11.651 1.842-5.366.73-9.316 1.273-17.92 2.35-1.565.196-9.078 1.154-10.926 1.365-1.795.205-62.236 7.612-65.27 7.991-12.476 1.56-31.782 3.927-37.256 4.65-5.472.724-8.788.9-8.804.775M298.6 9.703c-.003-.063 0-.11.083-.152.081-.042.251-.077.555 0 .15.038.414.157.612.337.205.174.338.398.364.485.046.18.127.333.155.519.007.073.015.148.015.223 0 .305-.081.578-.193.81-.058.122-.276.54-.764.855-.473.301-1.217.566-1.983.183-.397-.217-.59-.635-.652-.947a2.033 2.033 0 0 1 .015-.901c.123-.509.357-.784.36-.805.048-.086.145-.22.209-.285.192-.184.242-.23.405-.32.459-.239.763-.2.808-.097.053.112-.113.369-.375.667-.18.223-.305.389-.485.739-.044.062-.118.395-.131.474 0 0-.167.901.626.895.368.02.756-.155.987-.351.237-.198.337-.396.35-.43a1.089 1.089 0 0 0 0-.985c-.156-.32-.433-.497-.554-.52-.224-.06-.38-.262-.407-.394M304.67 8.834c-.002-.062 0-.11.084-.151.081-.043.25-.078.554-.001.15.038.413.157.613.337.204.174.336.398.364.486.045.179.126.333.154.518.008.075.015.148.016.223a1.878 1.878 0 0 1-.194.81c-.058.122-.276.54-.763.855-.474.301-1.218.566-1.984.184-.397-.217-.59-.635-.65-.948a2.022 2.022 0 0 1 .013-.901c.124-.508.357-.784.361-.805a1.51 1.51 0 0 1 .209-.284c.191-.184.24-.23.404-.321.459-.237.764-.199.809-.096.052.112-.114.368-.375.667-.18.222-.306.388-.485.738-.044.063-.119.395-.131.474 0 0-.168.902.625.896.369.02.756-.155.987-.352a1.27 1.27 0 0 0 .35-.428 1.09 1.09 0 0 0 0-.986c-.155-.32-.432-.497-.554-.52-.224-.061-.381-.263-.406-.395M311.475 7.699c-.003-.063 0-.11.083-.152.081-.042.25-.078.554 0 .15.038.413.156.613.337.205.174.337.397.364.485.046.18.126.333.154.519.008.073.015.148.016.222a1.872 1.872 0 0 1-.193.81c-.059.123-.276.54-.764.855-.474.302-1.218.566-1.984.184-.397-.217-.59-.635-.65-.948a2.022 2.022 0 0 1 .013-.9c.124-.509.357-.785.361-.805.048-.086.144-.22.21-.285.19-.184.24-.23.403-.32.46-.239.764-.2.809-.097.052.112-.114.369-.375.667-.18.223-.306.389-.485.738-.044.063-.118.396-.131.475 0 0-.167.901.625.895.37.02.756-.155.987-.352a1.27 1.27 0 0 0 .35-.428 1.089 1.089 0 0 0 0-.986c-.155-.32-.432-.497-.554-.52-.224-.06-.381-.262-.406-.394"/>
        <path fill="#314C75" d="M193.947 20.353c.099-.077.17-.088.54.259.187.175.669.637.734.771.065.135.174.224.26.337l.105.137.4.525c.275.358 2.977 3.932 3.036 3.993.058.06.153.167.199.232.134.193.177.235.254.386.217.415.27.702.176.775-.095.073-.4-.025-.743-.337-.248-.227-.436-.39-.76-.81-.059-.076-.357-.431-.411-.534-.051-.099-2.207-3.138-2.322-3.286-.468-.61-1.157-1.58-1.394-1.824-.238-.243-.174-.547-.074-.624"/>
        <path fill="#00B9F5" d="M190.266 78.64l97.528-6.813.533 29.126-99.395 3.207z" opacity=".478"/>
        <path fill="#FFF" d="M188.49 124.064c-1.323 1.97-2.707 4.347-1.893 6.577.518 1.423 1.838 2.403 3.202 3.06 2.88 1.387 6.187 1.693 9.368 1.385 5.56-.54 10.836-2.88 15.449-6.034 4.613-3.155 8.622-7.11 12.457-11.177 2.398-2.543 4.747-5.148 6.738-8.02 1.972-2.844 2.973-5.602 5.82-7.566.302-.208 5.355 1.475 5.403 2.673.206 5.155-3.916 9.167-6.354 13.713-4.414 8.234-9.706 16.042-16.176 22.778-6.47 6.736-14.147 12.388-22.751 16.008"/>
        <path fill="#9ADBF9" d="M244.587 104.13c-.021-.468-.881-.663-1.268-.401-.385.262.067 1.923-.066 2.371-1.612 5.446-5.067 10.438-8.458 14.99-1.694 2.273-3.594 4.383-5.49 6.49l-10.698 11.88c-2.194 2.438-4.401 4.887-6.966 6.929-3.267 2.601-6.946 6.558-10.835 8.075-5.737 2.238-5.596 4.32-4.81 4.263 2.785-.2 6.578-.522 9.247-1.825-.82 6.483-1.463 12.691-2.87 19.073-1.406 6.382-2.76 10.747-.866 17.002 1.137-.254.3.286.467-.87 1.806-12.545 4.57-22.546 6.137-36.074.174-1.503 1.058-2.865 1.988-4.058 1.014-1.305 2.41-2.247 3.78-3.17 4.412-2.966 8.87-5.99 12.391-9.978 1.868-2.115 3.443-4.47 5.012-6.815l5.25-7.851c2.121-3.172 4.261-6.38 5.606-9.951 1.345-3.572 3.676-6.733 2.45-10.347"/>
        <path fill="#FFF" d="M239.365 101.69c-.1-3.106.398-6.229 1.459-9.148.176-.484.518-1.056 1.026-.982.759.11.716 1.46 1.457 1.658.853-1.271 1.458-2.691 2.238-4.009.78-1.318 1.783-2.573 3.16-3.24.682-.329 1.483-.501 2.198-.253.681.237 1.197.83 1.472 1.498.276.667.338 1.403.33 2.125-.024 2.526-.85 4.993-2.025 7.228-1.176 2.235-3.6 5.638-5.112 7.66M193.783 91.935c3.56 4.608 4.167 10.802 4.281 16.627.064 3.298-.005 6.693-1.257 9.745-1.252 3.051-3.941 5.72-7.222 6.023-.622.058-1.281.04-1.822.351-.442.254-.745.699-.955 1.164-.82 1.818-.368 4.023.736 5.684 1.103 1.661 2.771 2.86 4.488 3.873.746.44 1.533.873 2.045 1.573.594.813.73 1.872.734 2.88.013 3.753-1.532 7.318-3.145 10.705-4.27 8.97-9.554 17.97-17.942 23.279-1.516.96-3.154 1.798-4.928 2.07-.957.145-2.01.1-2.791-.473-.668-.49-1.033-1.284-1.344-2.051-3.456-8.518-3.73-17.943-3.958-27.133-.08-3.21-.157-6.448.417-9.607.646-3.54 2.09-6.878 3.568-10.158 4.645-10.296 9.843-20.524 17.428-28.888 1.067-1.177 2.188-2.322 3.504-3.212a11.932 11.932 0 0 1 7.801-1.975"/>
        <path fill="#314C75" d="M196.614 93.536c.11-.027.245.093.759 2.23.273 1.071.774 3.927.795 4.569.043.638.132 1.233.187 1.859l.06.747c.077 1 .134 1.985.178 2.885.018.491.112 2.083.087 4.214-.032 2.125-.235 4.82-1.034 7.35-.394 1.264-.925 2.47-1.573 3.525-.647 1.055-1.453 1.937-2.303 2.51a6.05 6.05 0 0 1-2.291.927c-.596.11-.957.12-1.004.124-.382.046-1.023.038-1.379.019-1.037-.07-1.29-.108-2.01-.202-1.97-.306-3.063-.3-3.083-.426-.026-.112 1.148-.434 3.154-.288.72.04 1.34.08 2.056.093.71 0 1.537.021 2.571-.255a5.142 5.142 0 0 0 1.213-.511c.493-.285.929-.681 1.098-.839.079-.073.866-.78 1.614-2.146.761-1.355 1.478-3.3 1.817-5.352.363-2.045.438-4.154.43-5.785-.007-1.633-.068-2.796-.074-2.999-.081-1.667-.217-3.789-.433-5.666-.21-1.877-.495-3.509-.654-4.222-.317-1.425-.307-2.328-.181-2.361M186.65 130.622c.03-.012.068.01.153.154.092.14.221.41.56.82.332.408.89.95 1.861 1.496.973.53 2.342 1.114 4.22 1.452.942.174 2.291.324 3.814.282 1.52-.034 3.21-.26 4.816-.608 3.22-.703 6.052-2.007 7.058-2.486 2.03-.95 3.835-2.063 5.642-3.328.724-.5 1.426-1.031 2.122-1.565 2.789-2.178 5.319-4.585 7.555-6.863.725-.752 2.465-2.497 5.045-5.385 1.274-1.452 2.76-3.204 4.231-5.383.733-1.089 1.414-2.328 2.253-3.619.854-1.298 1.854-2.579 3.407-3.651l.096-.043c.047.022.072-.01.11-.011.068-.01.14-.054.208-.035.142.013.216.021.3.041.167.032.325.07.478.113a17.67 17.67 0 0 1 2.749 1.033c.608.308 1.223.598 1.8 1.19.07.093.137.189.201.287.061.114.1.28.127.421l-.003.541c.008.361-.028.72-.075 1.081-.346 2.932-2.009 5.548-3.633 8.013-.822 1.243-1.663 2.475-2.39 3.758-.721 1.292-1.437 2.633-2.184 3.917a115.442 115.442 0 0 1-4.618 7.38c-3.138 4.618-6.354 8.478-8.86 11.158-2.505 2.685-4.258 4.233-4.417 4.397-.96.898-2.635 2.374-3.619 3.14-2.869 2.267-3.648 2.78-5.832 4.207a55.444 55.444 0 0 1-7.318 3.951 28.35 28.35 0 0 1-2.016.823c-.462.169-.704.242-.716.214-.03-.07.9-.504 2.588-1.397 1.683-.895 4.144-2.223 7.077-4.196a71.902 71.902 0 0 0 5.914-4.419c2.006-1.662 4.247-3.651 7.081-6.611a89.017 89.017 0 0 0 3.4-3.806c1.423-1.674 2.774-3.45 3.31-4.148.32-.419 3.953-5.132 7.742-11.818.477-.833.953-1.698 1.436-2.581a39.664 39.664 0 0 1 1.612-2.664c1.141-1.754 2.396-3.484 3.344-5.352.474-.933.87-1.898 1.126-2.889.113-.498.212-.997.252-1.5.04-.25.026-.502.034-.752l.006-.375c-.032-.088-.002-.095-.078-.186-.217-.306-.666-.59-1.078-.824-.424-.24-.876-.438-1.322-.629-.45-.186-.903-.35-1.352-.496-.227-.072-.45-.138-.67-.193l-.321-.069c-.115-.012-.104-.02-.144.002a10.19 10.19 0 0 0-1.768 1.576c-.528.59-.982 1.222-1.4 1.862-.834 1.28-1.547 2.577-2.34 3.731-1.582 2.303-3.177 4.156-4.539 5.68-2.747 3.031-4.535 4.806-4.919 5.204-2.1 2.13-4.57 4.486-7.337 6.65-2.76 2.168-5.841 4.11-8.96 5.489-3.112 1.393-6.247 2.2-8.911 2.488-2.668.314-4.85.093-6.155-.15-2.62-.486-4.59-1.522-5.646-2.57-.53-.523-.822-1.03-.97-1.382-.144-.357-.161-.559-.137-.567M208.467 156.574c.125.014.172.155.035 2.159-.07 1.007-.297 3.646-.41 4.22-.104.577-.146 1.126-.228 1.694l-.097.68c-.136.908-.27 1.802-.39 2.618-.137.893-.917 5.772-1.888 10.426a248.34 248.34 0 0 1-1.377 6.315c-.402 1.711-.674 2.863-.694 2.946-.07.33-.19.887-.27 1.196-.235.907-.286 1.14-.476 1.782-.528 1.769-.917 2.74-1.032 2.71-.116-.03-.028-1.096.338-2.887.263-1.297.448-2.254.936-4.313l.603-2.62c.057-.213.944-3.934 1.706-7.723a199.94 199.94 0 0 0 1.464-8.008c.484-3.031 1.117-7.74 1.224-9.085.107-1.344.431-2.123.556-2.11M161.174 155.524c.015-.007.026-.014.033-.028.004-.007.001-.014.006-.03.01-.02.062-.072.054-.093-.036-.095-.007-.188.156-.154.08.025.174.13.207.275.035.156.014.295.007.42-.024.27-.057.621-.097 1.078-.081.92-.392 3.323-.527 3.843-.131.52-.182 1.022-.292 1.536l-.127.615c-.164.824-.345 1.63-.513 2.367-.172.808-1.218 5.207-2.57 9.342-.657 2.073-1.396 4.074-1.96 5.58-.576 1.5-.985 2.503-1.017 2.573-.109.29-.297.777-.412 1.046-.344.785-.428.986-.697 1.536-.755 1.513-1.282 2.313-1.386 2.264-.112-.052.135-.999.731-2.553.428-1.128.732-1.962 1.445-3.753l.872-2.286c.083-.183 1.33-3.44 2.368-6.808 1.052-3.362 1.886-6.826 1.95-7.16.644-2.725 1.426-6.988 1.545-8.213.036-.305.083-.579.136-.815.048-.232.13-.46.144-.548.009-.053-.007-.116-.044-.134a.075.075 0 0 0-.088.024c-.05.058.05.092.076.076M239.308 101.69c-.062.002-.11-.036-.157-.373-.044-.338-.104-.977-.06-2.173.017-.602.099-1.692.258-2.71.158-1.02.392-1.96.502-2.292.226-.675.38-1.278.648-1.968.13-.282.284-.573.597-.823.158-.123.38-.224.616-.234.232-.013.46.063.648.186.358.269.474.578.595.815l.162.333c.024.043.055.103.074.127-.003-.004 0 0 0 0 .002.004.007.006.009 0l.212-.351c.134-.229.294-.517.478-.857.369-.68.8-1.585 1.41-2.59.616-.992 1.438-2.102 2.671-2.888.612-.377 1.33-.695 2.143-.714.82-.047 1.676.399 2.152 1.035.508.63.733 1.414.81 2.134.075.73.043 1.415-.017 2.081a15.165 15.165 0 0 1-.796 3.532c-.71 1.998-1.466 3.21-1.497 3.303-.185.359-.526.95-.731 1.271-.604.938-.764 1.171-1.24 1.807-1.33 1.737-2.187 2.615-2.277 2.548-.102-.074.522-1.166 1.693-2.961.818-1.315 1.459-2.266 2.53-4.467.094-.201.358-.791.583-1.404.228-.613.412-1.248.487-1.497.023-.12.4-1.24.484-2.916.037-.83.026-1.82-.444-2.64-.233-.405-.586-.759-1.016-.928-.426-.171-.943-.154-1.437-.007-1 .303-1.879 1.023-2.544 1.813-.676.796-1.173 1.668-1.593 2.442-.42.777-.77 1.457-1.056 1.952l-.36.606-.165.262c-.05.084-.092.125-.118.154l-.16.182-.04.045c-.017 0-.038-.013-.058-.019l-.12-.046a1.02 1.02 0 0 1-.43-.296 1.287 1.287 0 0 1-.172-.223c-.039-.06-.066-.118-.1-.178l-.165-.345c-.196-.475-.476-.74-.771-.523-.323.227-.485.752-.658 1.249-.166.5-.326 1-.455 1.49-.539 1.963-.716 3.747-.75 4.53-.07 1.568-.24 2.52-.375 2.527"/>
        <path fill="#FFF" d="M187.87 90.729a24.512 24.512 0 0 0 5.64-7.34c.23-.462.413-1.103.01-1.423-.602-.476-1.553.482-2.205.078.338-1.495.953-2.91 1.375-4.382.422-1.473.643-.66.183-2.12-.228-.723-4.673-1.101-5.193-.6-1.817 1.751-3.04 1.64-3.857 4.031-.816 2.39-1.25 4.891-1.679 7.38"/>
        <path fill="#314C75" d="M188.842 91.171c-.106-.1.002-.202 1.228-1.83.302-.413.827-1.176 1.276-1.923.453-.742.828-1.466.981-1.72.308-.505.52-1.021.758-1.548l.273-.636c.094-.224.175-.413.215-.596.046-.182.05-.36.02-.454-.05-.142-.146-.192-.534-.046l-.353.146a4.29 4.29 0 0 1-.297.111l-.098.03c-.053.013-.108.03-.16.037-.107.006-.222.029-.33.019-.226-.005-.415-.104-.643-.19-.001-.234-.046-.449.027-.765.03-.17.064-.347.098-.533l.113-.52.586-2.383c.103-.425.18-.89.307-1.385.028-.109.067-.266.06-.26l-.008-.024-.062-.142a13.879 13.879 0 0 1-.307-.69c-.005.015-.013-.035-.172-.082-.12-.05-.282-.079-.434-.114a8.743 8.743 0 0 0-.994-.114 12.276 12.276 0 0 0-2.047.037c-.321.032-.682.093-.88.182.016-.064-.133.145-.25.258-.117.131-.243.252-.362.377-.487.487-1.005.9-1.41 1.292-.82.76-1.075 1.701-1.246 2.416-.172.718-.25 1.169-.26 1.22-.054.338-.143.911-.193 1.232l-.274 1.859c-.28 1.868-.485 2.927-.61 2.915-.113-.01-.22-1.105-.102-2.995.109-1.366.15-2.39.651-4.555.056-.196.18-.79.466-1.371.27-.592.723-1.096.907-1.257.044-.04.27-.258.626-.56.356-.306.826-.71 1.325-1.255l.095-.103c.05-.049.141-.118.217-.167.142-.076.254-.111.375-.146.229-.061.453-.096.681-.126.456-.055.926-.07 1.414-.071.487 0 .99.025 1.508.09.259.031.52.073.792.144.133.028.277.088.42.144.08.043.156.088.24.143l.21.27c.104.256.185.442.29.67.044.11.12.22.153.45.008.232-.048.352-.072.469-.124.449-.203.913-.318 1.375-.226.899-.442 1.749-.63 2.493l-.118.534-.072.371c-.075.15.108.146.18.129.114-.024.356-.122.48-.175l.3-.12c.2-.07.453-.149.753-.078a.878.878 0 0 1 .638.61c.146.572-.072 1.068-.247 1.49-.36.865-.778 1.733-1.221 2.524-.877 1.587-1.832 2.862-2.254 3.421-.846 1.13-1.621 1.56-1.705 1.476M193.273 134.714c.063.1.076.194-.46.577-.266.199-1.04.615-1.237.63-.191.034-.356.109-.538.16l-.217.05c-.293.07-.584.119-.85.158-.284.062-1.9.215-3.41-.015-.755-.1-1.482-.253-2.024-.384-.54-.138-.902-.23-.929-.238a3.726 3.726 0 0 1-.378-.087c-.28-.092-.355-.107-.548-.196-.533-.245-.801-.472-.766-.586.036-.114.404-.186.97-.1.412.06.714.1 1.346.262.116.03.672.147.804.193a15.16 15.16 0 0 0 2.378.453c1.174.142 2.367.018 2.476-.006a9.894 9.894 0 0 0 1.551-.347 5.23 5.23 0 0 0 1.094-.472c.34-.22.665-.16.738-.052"/>
        <path fill="#042556" d="M192.413 84.964c2.831 1.417 4.924 4.225 5.478 7.345.851 4.796-1.78 9.519-4.854 13.295s-6.754 7.206-8.65 11.692c-3.82 9.032.445 20.234-4.28 28.825-1.905 3.461-5.075 6.05-8.406 8.17-2.81 1.786-5.91 3.338-9.234 3.49-2.389.109-4.757-.516-6.986-1.38-4.49-1.74-8.66-4.56-11.406-8.52-5.08-7.328-4.157-18.225 2.085-24.59 3.107-3.169 7.18-5.158 10.974-7.46 3.793-2.3 7.533-5.166 9.251-9.26 1.018-2.425 1.245-5.101 1.927-7.642 1.904-7.105 7.635-13.056 14.656-15.22 1.3-.4 2.677-.68 4.019-.452 1.938.328 3.917.438 5.414 1.714"/>
        <path fill="#00B9F5" d="M19.893 107.166l63.64 2.806-1 17.436-63.24-1.203z" opacity=".478"/>
        <path fill="#FFF" d="M102.878 74.532l-5.327 20.85c-.431 1.688-.853 3.522-.168 5.122 1.235 2.887 5.321 3.479 6.913 6.184 1.643 2.791-.084 6.296-.074 9.536a118.077 118.077 0 0 0-19.055 9.049l-7.78-7.234c-.454-.421-.926-.871-1.107-1.464-.148-.484-.083-1.004-.016-1.506l.8-6.024a25.163 25.163 0 0 0-10.834-.629c2.804.29 3.535 3.952 3.892 6.753.556 4.353 1.969 8.584 4.023 12.461.285.537.59 1.112.523 1.716-.09.8-.8 1.378-1.497 1.779-3.626 2.086-8.221 1.832-12.134.352-3.91-1.479-7.297-4.05-10.656-6.544-2.114-1.57-4.482-3.198-7.107-3.024-1.694.112-3.236.969-4.713 1.805-1.426.808-2.851 1.615-4.276 2.424-.253.142-.512.29-.698.514-.885 1.064.623 2.626 2.005 2.64 1.382.016 2.727-.702 4.096-.517 1.922.26 3.137 2.128 4.172 3.77 3.435 5.451 7.77 10.418 13.145 13.964 5.376 3.547 11.845 5.604 18.262 5.105.718-.056 1.491-.131 2.11.237 1.42.845.836 3.003.102 4.486a174.883 174.883 0 0 0-11.394 29.387 133.278 133.278 0 0 0 44.44 4.257c1.976-.145 4.051-.37 5.667-1.519 1.682-1.195 2.58-3.188 3.35-5.103 7.458-18.531 9.99-39.024 7.267-58.815-.484-3.51-1.228-7.205-3.63-9.806-.548-.594-1.199-1.158-1.417-1.938-.192-.683-.016-1.41.171-2.096 2.099-7.724 5.312-16.05 2.163-23.407-1.695-3.96-5.075-7.007-8.838-9.094-3.763-2.088-7.93-3.32-12.057-4.534l1.745-.172"/>
        <path fill="#9ADBF9" d="M96.843 142.293a142.397 142.397 0 0 1-13.232 6.726c-2.596 1.153-5.258 2.238-8.064 2.678-3.756.59-7.608-.005-11.268-1.039-2.507-.708-4.987-1.64-7.118-3.143-2.259-1.595-4.032-3.769-5.778-5.914L45.93 134.9c-1.587-1.95-3.266-4.511-2.194-6.788 4.239 5.228 7.484 12.012 13.05 15.79 2.182 1.48 5.73 3.46 8.258 4.2 2.007.586 5.047.965 7.133.822 3.156-.217 6.222-.353 9.078-1.472a109.634 109.634 0 0 0 8.863-3.94c4.255-2.131 8.097-4.845 12.854-4.913 1.545-.022-7.593 7.702-11.038 9.805-9.526 5.817-21.387 26.93-21.458 26.32-.069-.61.23-1.672.534-2.205 3.812-6.693 6.354-13.119 7.362-21.058"/>
        <path fill="#314C75" d="M125.104 117.333c-.058-.031-.077-.078-.067-.228-.003-.144.013-.416-.408-.85-.35-.462-2.013-1.162-2.328-1.39-.333-.201-.668-.349-1.015-.508l-.41-.196a32.261 32.261 0 0 0-1.616-.695c-.545-.238-3.642-1.393-6.782-1.824-1.562-.204-3.14-.42-4.147-.084-1.02.33-1.618.879-1.665.894l-.63.508c-.495.387-.62.498-1.002.755-1.074.73-1.862.83-1.886.725-.04-.127.559-.497 1.455-1.298.675-.564 1.075-1.094 2.367-1.9.118-.072.475-.27.87-.419.398-.151.826-.225.991-.235.08-.011.83-.087 1.836.024 1.001.1 2.305.282 3.596.564 2.594.536 5.067 1.551 5.3 1.649.975.38 2.183.947 3.223 1.516.522.282 1 .564 1.402.801.42.256.711.531.884.716.349.36.477.853.362 1.151-.106.298-.287.354-.33.324"/>
        <path fill="#314C75" d="M118.18 117.095c-.022.064-.17.05-1.295-.237-.569-.122-1.384-.314-2.58-.433-1.19-.129-2.763-.192-4.8-.002a34.334 34.334 0 0 0-4.05.65c-1.592.346-3.341.837-5.02 1.377-3.365 1.076-6.44 2.315-7.553 2.761-2.232.88-4.27 1.853-6.38 2.902-.84.421-1.673.854-2.497 1.296-3.341 1.748-6.395 3.857-9.438 5.48-.836.418-2.598 1.418-5.319 2.13-1.356.339-2.963.59-4.743.458-1.785-.102-3.684-.76-5.456-1.768-1.778-1.01-3.47-2.33-5.286-3.556-.91-.61-1.858-1.19-2.87-1.662-1.013-.474-2.073-.845-3.188-.91-1.1-.08-2.252.132-3.063.824-.825.674-1.198 1.806-1.156 2.928.026 1.13.474 2.234 1.059 3.267.592 1.033 1.307 2.043 1.988 3.053 2.748 4.028 5.8 7.818 9.295 10.624 1.75 1.391 3.593 2.53 5.447 3.367a23.194 23.194 0 0 0 5.476 1.675c3.517.627 6.534.292 8.627-.097 2.1-.409 3.327-.837 3.493-.877 1.315-.394 3.486-1.256 4.678-1.793 3.491-1.588 4.321-2.12 6.75-3.407 3.33-1.827 5.947-3.262 7.776-4.138.913-.441 1.621-.759 2.105-.958.484-.196.74-.284.751-.257.027.06-.935.572-2.701 1.57-1.772.993-4.315 2.524-7.589 4.413-2.378 1.353-4.47 2.506-7.03 3.652-2.564 1.106-5.599 2.358-10.023 2.917-.797.098-3.157.322-5.535.024-2.383-.244-4.712-.98-5.598-1.331-.21-.096-1.342-.463-3.009-1.369-1.67-.888-3.855-2.346-6.087-4.46-2.232-2.11-4.494-4.845-6.655-7.924-.543-.768-1.08-1.559-1.617-2.361-.534-.802-1.087-1.624-1.54-2.534-.45-.903-.798-1.916-.833-2.982-.044-1.05.21-2.17.9-3.043.685-.874 1.753-1.369 2.796-1.503 1.052-.145 2.1-.007 3.081.274 1.963.6 3.647 1.682 5.21 2.756 1.563 1.084 3.022 2.195 4.517 3.063 1.488.876 3.024 1.486 4.523 1.707 3.027.433 5.646-.338 7.455-1.005 1.823-.708 2.948-1.353 3.29-1.525 2.77-1.496 5.768-3.541 9.065-5.279a95.342 95.342 0 0 1 10.11-4.704c3.354-1.323 6.566-2.387 9.306-3.119 2.74-.732 5.013-1.068 6.412-1.192 2.803-.277 5.078.033 6.572.41.746.207 1.314.39 1.681.56.372.16.557.258.548.288M126.884 120.691c.095-.016.31.218.718 4.009.217 1.908.44 6.91.44 8.01 0 1.105.062 2.143.086 3.228l.03 1.296.066 5.006c-.012 1.697.152 11.085-1.284 20.011a85.179 85.179 0 0 1-2.814 11.93c-.992 3.186-1.857 5.264-1.9 5.418-.222.6-.623 1.608-.86 2.166-.707 1.632-.9 2.04-1.454 3.181-.792 1.564-1.463 2.756-1.952 3.547-.494.79-.782 1.191-.834 1.161-.117-.065.733-1.874 2.14-5.016.99-2.29 1.71-3.98 3.061-7.732.271-.674 1.315-3.998 1.548-4.821.055-.2.625-2.022 1.249-4.717.62-2.696 1.286-6.264 1.668-9.894.82-7.255.709-14.66.723-15.36a467.406 467.406 0 0 0-.178-9.897c-.074-3.295-.196-6.173-.324-7.438-.23-2.53-.26-4.064-.129-4.088M78.614 151.591c.122.028.152.169-.237 2.089-.102.482-.33 1.343-.537 2.157a25.84 25.84 0 0 1-.57 1.825c-.19.54-.37 1.04-.556 1.568l-.231.626c-.306.84-.65 1.648-.94 2.397-.31.822-2.228 5.22-4.101 9.413a138.434 138.434 0 0 0-2.404 5.76c-.61 1.58-.976 2.66-.995 2.74l-.367 1.123c-.273.858-.331 1.08-.546 1.687-.56 1.684-.909 2.634-1.036 2.604-.106-.023-.06-1.066.349-2.806.308-1.255.544-2.181 1.238-4.13.135-.35.738-2.052.935-2.45.066-.458 6.11-13.574 6.296-14.27.553-1.38 1.253-3.14 1.787-4.736a44.378 44.378 0 0 0 1.101-3.644c.273-1.272.691-1.978.814-1.953"/>
        <path fill="#042556" d="M132.823 76.691c-.631-1.362-1.861-2.339-3.073-3.225-7.303-5.34-15.7-9.372-24.643-10.712-2.69-.403-5.447-.56-8.117-.05-1.664.318-3.402.99-4.298 2.427-1.134 1.816-.51 4.31.886 5.934 1.394 1.623 3.392 2.575 5.328 3.483l14.13 6.619c-1.866 2.126-2.524 5.248-1.676 7.948.319 1.015.916 2.042 1.91 2.42 1.114.424 2.358-.09 3.368-.722a21.466 21.466 0 0 0 .333 12.188c.51 1.553 1.233 3.093 2.458 4.174 1.224 1.081 3.04 1.61 4.539.963 1.531-.662 2.354-2.302 3.054-3.818 3.446-7.463 6.967-15.295 6.585-23.509"/>
        <path fill="#314C75" d="M102.008 77.245c.114.03.168.167-.254 1.881-.206.865-.868 3.094-1.075 3.562-.2.471-.335.934-.507 1.405l-.206.563-.784 2.169c-.226.74-1.827 4.776-2.272 8.838-.105 1.003-.101 2 .092 2.878.185.883.58 1.617 1.021 2.198.896 1.153 1.739 1.77 1.775 1.825l.826.644c.634.483.81.586 1.274.917 1.297.896 2.094 1.335 2.04 1.456-.04.098-.988-.06-2.418-.848-1.019-.589-1.786-1.034-3.164-2.348-.123-.121-.484-.477-.814-.882-.335-.401-.621-.86-.715-1.053-.034-.083-.555-.942-.72-2.299-.19-1.354.034-3.082.377-4.75.691-3.361 1.962-6.558 2.051-6.87.916-2.535 2.384-6.414 2.648-7.563.307-1.13.694-1.755.825-1.723M49.22 124.986c-.055.03-.112.026-.262-.151-.156-.17-.393-.535-1.006-1.045-.302-.262-.908-.668-1.532-.956-.623-.29-1.245-.484-1.463-.571-.44-.175-.882-.254-1.336-.353a8.002 8.002 0 0 0-.535-.095 2.84 2.84 0 0 0-1.873.315 4.222 4.222 0 0 0-.848.608c-.393.347-.857.86-1.406 1.469-.557.596-1.204 1.33-2.162 1.819-.465.252-1.047.382-1.566.414-.519.033-1.006.024-1.415.12-.395.091-.774.324-.925.602-.155.264-.094.59.12.898.448.62 1.211.912 1.877 1.04.676.13 1.283.146 1.717.167l.742.027c.281.001.76.01 1.027.024.783.04.983.041 1.54.092 1.542.14 2.404.307 2.4.426-.005.12-.895.268-2.428.29-1.115.015-1.923.037-3.712-.036-.164-.009-.645-.028-1.145-.102-.499-.067-1.01-.225-1.201-.317-.046-.025-.297-.107-.66-.343-.341-.249-.857-.614-1.11-1.379a1.506 1.506 0 0 1 .191-1.279c.262-.383.648-.631 1.059-.784.861-.3 1.706-.134 2.414-.283.711-.145 1.352-.584 1.895-1.083.546-.502 1.014-1.055 1.454-1.519.861-.954 1.696-1.47 1.858-1.523.6-.334 1.442-.498 2.223-.365.777.116 1.53.32 2.239.566 1.42.476 2.517 1.265 2.95 1.664.915.797.983 1.614.88 1.643M84.563 124.964c-.088.08-.219.061-1.204-1.01-.493-.542-1.741-1.972-1.986-2.305-.241-.339-.517-.618-.787-.92l-.324-.357c-.44-.476-.889-.92-1.325-1.29-.24-.196-1.01-.88-2.2-1.486a7.625 7.625 0 0 0-2.055-.71 5.842 5.842 0 0 0-1.17-.106c-.4-.005-.788.036-1.076.17-.543.23-.809 1.083-.886 1.772-.072.728-.004 1.44.093 2.042.185 1.21.465 2.01.472 2.066l.278.82.421 1.23c.414 1.24.672 1.938.562 2-.096.057-.648-.52-1.225-1.73-.404-.88-.721-1.527-1.1-3.044-.088-.269-.351-1.62-.335-1.972.01-.082-.11-.84.101-1.977a4.39 4.39 0 0 1 .3-.891c.145-.3.358-.64.71-.879.729-.461 1.505-.392 2.218-.359 1.473.112 2.823.744 3.76 1.33.942.596 1.524 1.13 1.628 1.218 1.745 1.463 3.722 4.293 4.379 4.994.635.726.845 1.307.751 1.394"/>
        <path fill="#314C75" d="M75.59 115.979c-.13-.022-.144-.15.024-1.9.097-.88.205-3.187.25-3.694a8.028 8.028 0 0 0 .034-1.433 1.522 1.522 0 0 0-.106-.448c-.179-.493-.961-.651-1.66-.795-.376-.082-1.609-.312-3.293-.389a63.327 63.327 0 0 0-2.8-.06c-1.002-.024-2.037-.013-2.555.64-.116.133-.205.36-.202.446.004.03-.007.01.024.049a.76.76 0 0 0 .206.124 9.062 9.062 0 0 0 2.65.708c.396.071.853-.032 1.4.305.275.177.413.536.426.754.026.233.016.378.02.542 0 .319.003.598.005.83l.007.786c.012.298.026.805.024 1.088-.006.83-.022 1.034-.042 1.612-.085 1.582.18 2.424.062 2.477-.095.065-.7-.795-.779-2.47-.048-1.19-.097-2.03-.115-3.89l-.007-.454c0-.206-.008-.479-.044-.526.03-.096-.487-.177-.689-.181-.097-.02-1.045-.058-2.328-.485a8.694 8.694 0 0 1-1.023-.412c-.185-.098-.477-.275-.572-.651-.067-.372.047-.6.152-.827.49-.93 1.588-1.224 2.456-1.229 1.734 0 3.435.04 4.78.166 1.337.121 2.276.332 2.44.365.335.076.693.14 1.08.288.376.138.809.422 1.006.871.198.437.197.89.185 1.296l-.066 1.184c-.103 1.54-.274 2.883-.336 3.478-.125 1.193-.493 1.857-.613 1.835"/>
        <path fill="#E9F9FF" d="M18.07 16.587c-.629 9.86-.86 19.745-.694 29.623.01.604.034 1.247.377 1.744.515.75 1.542.893 2.448.971l36.687 3.143c.3.026.625.047.88-.114.331-.21.425-.644.487-1.031a135.685 135.685 0 0 0 1.654-25.746c-.015-.484-.046-1.008-.353-1.383-.27-.328-.697-.474-1.103-.6-12.998-4.013-27.394-2.107-40.089-7M18.296 54.882c8.821-.517 17.625.95 26.34 2.41.797.133 1.675.314 2.157.963.337.454.408 1.049.45 1.613.071.954.093 1.912.067 2.869-.01.307-.028.632-.197.889-.298.45-.92.515-1.458.534a230.87 230.87 0 0 1-19.095-.107c-3.058-.144-6.213-.374-8.942-1.764-.26-.131-.527-.286-.671-.54-.196-.347-.11-.778-.019-1.166l1.394-5.91M18.29 68.886c5.721-.068 11.448.327 17.105 1.181.544.082 1.13.191 1.5.598.337.37.415.902.477 1.4l.543 4.33c.03.235.057.487-.05.7-.186.376-.68.452-1.1.478-5.683.356-11.389.35-17.072-.018-.502-.032-1.06-.095-1.381-.481-.186-.224-.258-.519-.31-.805a9.965 9.965 0 0 1 .593-5.62M171.56 35.774c13.222-1.444 26.424-3.059 39.625-4.673l5.091-.622c.482-.059 1.005-.11 1.422.14.665.396.728 1.321.71 2.096a393.453 393.453 0 0 1-2.443 35.744l-35.428 3.718c-4.582.48-9.211.96-13.782.386l3.675-32.647c.185-1.645.454-3.456 1.714-4.53M223.031 30.405a520.797 520.797 0 0 0 39.878-3.816l.197 3.109c.024.37.039.772-.176 1.074-.234.33-.668.435-1.064.517a241.401 241.401 0 0 1-38.608 4.73 8.68 8.68 0 0 1 .217-5.79M223.22 39.612a297.982 297.982 0 0 0 25.596-1.813c.204 1.681.283 3.378.237 5.071-.004.15-.014.312-.108.43-.11.136-.3.168-.474.192a201.775 201.775 0 0 1-25.597 1.848 12.092 12.092 0 0 1 1.232-6.271M225.42 58.034c-.049.14-.284-.031-.213-.16.071-.13.25-.14.397-.134l11.42.447.005 6.96c0 .297-.004.61-.152.867-.237.411-.756.547-1.222.638-3.592.702-7.27.97-10.927.798-.147-.008-.31-.022-.41-.13-.084-.092-.1-.225-.112-.35-.32-3.329-.457-6.797.771-9.907M246.814 57.334a109.37 109.37 0 0 1 9.729.031c.337.016.698.042.963.251.361.283.422.797.45 1.255.12 1.98.14 3.965.061 5.947-.004.112-.013.236-.092.315-.082.08-.208.087-.321.09l-12.481.29c-.349.007-.76-.015-.953-.307-.108-.162-.115-.368-.117-.562a20.183 20.183 0 0 1 .93-6.254M266.186 56.629a32.467 32.467 0 0 1 12.46-.758c.006 2.482.01 4.965.017 7.448 0 .263-.003.54-.133.768-.253.444-.853.515-1.362.533-3.52.12-7.043.108-10.561-.037-.305-.013-.628-.03-.887-.193-.535-.337-.564-1.098-.49-1.727.195-1.702.681-3.37 1.431-4.91"/>
    </g>
</svg>
