<svg xmlns="http://www.w3.org/2000/svg" xmlns:xlink="http://www.w3.org/1999/xlink" width="120" height="120" viewBox="0 0 120 120">
    <defs>
        <path id="a" d="M0 0v120h120V0z"/>
        <path id="c" d="M1 1v118h118V1H1zM0 0h120v120H0V0z"/>
    </defs>
    <g fill="none" fill-rule="evenodd">
        <g>
            <mask id="b" fill="#fff">
                <use xlink:href="#a"/>
            </mask>
            <g fill="#D8D8D8" mask="url(#b)">
                <path fill="none" d="M0 0h120v120H0z"/>
            </g>
        </g>
        <g>
            <mask id="d" fill="#fff">
                <use xlink:href="#c"/>
            </mask>
            <g fill="#D8D8D8" mask="url(#d)">
                <path fill="none" d="M0 0h120v120H0z"/>
            </g>
        </g>
        <g fill="#32373C">
            <path d="M60 .12C26.929.12.12 26.929.12 60c0 33.07 26.809 59.88 59.88 59.88 33.07 0 59.88-26.81 59.88-59.88C119.88 26.929 93.07.12 60 .12m0 3.593c7.6 0 14.971 1.487 21.908 4.421a56.298 56.298 0 0 1 9.56 5.19 56.708 56.708 0 0 1 8.333 6.875 56.718 56.718 0 0 1 6.876 8.333 56.285 56.285 0 0 1 5.188 9.56C114.8 45.029 116.287 52.4 116.287 60c0 7.6-1.487 14.971-4.422 21.908a56.285 56.285 0 0 1-5.188 9.56 56.708 56.708 0 0 1-6.876 8.333 56.708 56.708 0 0 1-8.333 6.876 56.285 56.285 0 0 1-9.56 5.188C74.971 114.8 67.6 116.287 60 116.287c-7.6 0-14.971-1.487-21.908-4.422a56.285 56.285 0 0 1-9.56-5.188 56.718 56.718 0 0 1-8.333-6.876 56.708 56.708 0 0 1-6.876-8.333 56.298 56.298 0 0 1-5.189-9.56C5.2 74.971 3.713 67.6 3.713 60c0-7.6 1.487-14.971 4.421-21.908a56.298 56.298 0 0 1 5.19-9.56 56.718 56.718 0 0 1 6.875-8.333 56.718 56.718 0 0 1 8.333-6.876 56.298 56.298 0 0 1 9.56-5.189C45.029 5.2 52.4 3.713 60 3.713"/>
            <path d="M103.79 36.06c.213 1.589.334 3.294.334 5.13 0 5.062-.948 10.754-3.795 17.873l-15.24 44.065C99.923 94.48 109.9 78.407 109.9 59.998a49.663 49.663 0 0 0-6.11-23.938zM60.876 64.363l-14.974 43.504A49.863 49.863 0 0 0 60 109.9c5.81 0 11.385-1.003 16.572-2.829a4.548 4.548 0 0 1-.358-.688l-15.337-42.02zm32.81-6.881c0-6.17-2.216-10.44-4.114-13.762-2.53-4.112-4.902-7.591-4.902-11.703 0-4.587 3.478-8.856 8.38-8.856.222 0 .431.026.646.04C84.82 15.066 72.991 10.1 60 10.1c-17.434 0-32.77 8.945-41.693 22.49 1.172.037 2.276.06 3.211.06 5.219 0 13.3-.633 13.3-.633 2.689-.158 3.006 3.794.32 4.112 0 0-2.705.316-5.711.474l18.17 54.05 10.922-32.75-7.774-21.3a91.463 91.463 0 0 1-5.234-.474c-2.69-.16-2.375-4.27.317-4.112 0 0 8.239.634 13.142.634 5.218 0 13.3-.634 13.3-.634 2.69-.158 3.007 3.794.319 4.112 0 0-2.707.316-5.711.474L84.91 90.242 90.06 73.93c2.287-7.128 3.628-12.179 3.628-16.448zM10.1 59.998c0 19.75 11.477 36.82 28.124 44.908L14.421 39.691A49.705 49.705 0 0 0 10.1 59.998z"/>
        </g>
    </g>
</svg>
