<svg xmlns="http://www.w3.org/2000/svg" xmlns:xlink="http://www.w3.org/1999/xlink" width="120" height="120" viewBox="0 0 120 120">
    <defs>
        <path id="a" d="M0 0v120h120V0z"/>
        <path id="c" d="M1 1v118h118V1H1zM0 0h120v120H0V0z"/>
    </defs>
    <g fill="none" fill-rule="evenodd">
        <g>
            <mask id="b" fill="#fff">
                <use xlink:href="#a"/>
            </mask>
            <g fill="#D8D8D8" mask="url(#b)">
                <path fill="none" d="M0 0h120v120H0z"/>
            </g>
        </g>
        <g>
            <mask id="d" fill="#fff">
                <use xlink:href="#c"/>
            </mask>
            <g fill="#D8D8D8" mask="url(#d)">
                <path fill="none" d="M0 0h120v120H0z"/>
            </g>
        </g>
        <g fill="#00CBFE" fill-rule="nonzero">
            <path d="M40.744 58.372V41.537c0-.868.173-1.215 1.041-1.215h33.67c.867 0 1.214.347 1.214 1.215v33.67c0 .867-.173 1.214-1.04 1.214h-33.67c-.868 0-1.042-.347-1.042-1.04 0-5.728-.173-11.455-.173-17.01zM101.14 76.248H84.306c-.868 0-1.215-.174-1.215-1.041v-33.67c0-.868.173-1.215 1.041-1.215h33.67c.867 0 1.041.174 1.041 1.042v33.843c0 .867-.174 1.04-1.041 1.04H101.14zM19.05.752h16.834c.868 0 1.042.174 1.042 1.041v33.67c0 .868-.174 1.041-1.042 1.041H2.041c-.694 0-1.041-.173-1.041-1.041V1.62C1 .752 1.347.579 2.041.579 7.77.752 13.322.752 19.05.752zM40.744 100.719V84.058c0-.868.173-1.215 1.041-1.215h33.67c.867 0 1.04.174 1.04 1.041v33.67c0 .867-.173 1.041-1.04 1.041H41.612c-.868 0-1.042-.347-1.042-1.041.347-5.554.174-11.108.174-16.835zM101.314 118.769H84.306c-.868 0-1.215-.174-1.215-1.042v-33.67c0-.867.173-1.04 1.041-1.04h33.67c.867 0 1.041.173 1.041 1.04v33.67c0 .868-.174 1.042-1.041 1.042h-16.488z"/>
        </g>
    </g>
</svg>
